<svg width="226" height="131" viewBox="0 0 226 131" fill="none" xmlns="http://www.w3.org/2000/svg">
<path d="M2.5415 30.082L140.691 31.2041L201.046 126.342L157.521 125.968L126.665 93.2426L66.7306 92.7751L54.2948 128.399L10.6762 128.025L2.5415 30.082Z" fill="#D73316" stroke="black" stroke-width="4.6751" stroke-miterlimit="10"/>
<path d="M2.77515 29.8008L140.877 30.9228L201.233 126.061L157.708 125.687L126.899 93.0081L66.9175 92.4938L54.4817 128.118L10.8631 127.744L2.77515 29.8008Z" fill="#D83416" stroke="black" stroke-width="4.6751" stroke-miterlimit="10"/>
<path d="M2.9624 29.5674L141.112 30.6427L201.467 125.781L157.895 125.454L127.086 92.7279L67.1047 92.2604L54.669 127.838L11.0971 127.511L2.9624 29.5674Z" fill="#D83516" stroke="black" stroke-width="4.6751" stroke-miterlimit="10"/>
<path d="M3.14929 29.2871L141.298 30.3624L201.654 125.501L158.129 125.173L127.273 92.4477L67.2916 91.9802L54.9026 127.558L11.284 127.23L3.14929 29.2871Z" fill="#D83716" stroke="black" stroke-width="4.6751" stroke-miterlimit="10"/>
<path d="M3.33618 29.0068L141.485 30.0821L201.841 125.22L158.316 124.893L127.46 92.1674L67.5253 91.6999L55.0895 127.277L11.4708 126.95L3.33618 29.0068Z" fill="#D83816" stroke="black" stroke-width="4.6751" stroke-miterlimit="10"/>
<path d="M3.56982 28.7256L141.672 29.8009L202.028 124.939L158.503 124.612L127.694 91.8861L67.7121 91.4186L55.2764 126.996L11.6577 126.669L3.56982 28.7256Z" fill="#D93916" stroke="black" stroke-width="4.6751" stroke-miterlimit="10"/>
<path d="M3.75708 28.4453L141.906 29.5206L202.262 124.706L158.69 124.332L127.881 91.6059L67.8994 91.1384L55.4636 126.763L11.8917 126.389L3.75708 28.4453Z" fill="#D93B16" stroke="black" stroke-width="4.6751" stroke-miterlimit="10"/>
<path d="M3.94397 28.165L142.093 29.2871L202.449 124.425L158.923 124.051L128.068 91.3256L68.0863 90.8581L55.6973 126.482L12.0786 126.108L3.94397 28.165Z" fill="#D93C16" stroke="black" stroke-width="4.6751" stroke-miterlimit="10"/>
<path d="M4.1311 27.8848L142.28 29.0068L202.636 124.145L159.111 123.771L128.255 91.0453L68.3202 90.5778L55.8844 126.202L12.2658 125.828L4.1311 27.8848Z" fill="#D93D16" stroke="black" stroke-width="4.6751" stroke-miterlimit="10"/>
<path d="M4.36487 27.6045L142.467 28.7265L202.823 123.865L159.298 123.537L128.489 90.8118L68.5072 90.2975L56.0714 125.922L12.4528 125.595L4.36487 27.6045Z" fill="#DA3F16" stroke="black" stroke-width="4.6751" stroke-miterlimit="10"/>
<path d="M4.55176 27.3701L142.701 28.4454L203.056 123.584L159.484 123.256L128.676 90.5307L68.6941 90.0632L56.2583 125.641L12.6864 125.313L4.55176 27.3701Z" fill="#DA4016" stroke="black" stroke-width="4.6751" stroke-miterlimit="10"/>
<path d="M4.73865 27.0898L142.888 28.1651L203.243 123.303L159.718 122.976L128.862 90.2504L68.881 89.7829L56.492 125.36L12.8733 125.033L4.73865 27.0898Z" fill="#DA4216" stroke="black" stroke-width="4.6751" stroke-miterlimit="10"/>
<path d="M4.92578 26.8086L143.075 27.8839L203.43 123.022L159.905 122.695L129.05 89.9692L69.1149 89.5016L56.6791 125.079L13.0604 124.752L4.92578 26.8086Z" fill="#DB4316" stroke="black" stroke-width="4.6751" stroke-miterlimit="10"/>
<path d="M5.15955 26.5283L143.262 27.6036L203.617 122.742L160.092 122.415L129.283 89.6889L69.3019 89.2214L56.8661 124.799L13.2475 124.472L5.15955 26.5283Z" fill="#DB4416" stroke="black" stroke-width="4.6751" stroke-miterlimit="10"/>
<path d="M5.34644 26.248L143.496 27.3701L203.851 122.508L160.279 122.134L129.47 89.4086L69.4888 88.9411L57.053 124.565L13.4811 124.191L5.34644 26.248Z" fill="#DB4616" stroke="black" stroke-width="4.6751" stroke-miterlimit="10"/>
<path d="M5.53357 25.9678L143.683 27.0898L204.038 122.228L160.513 121.854L129.657 89.1283L69.6759 88.6608L57.2869 124.285L13.6682 123.911L5.53357 25.9678Z" fill="#DC4716" stroke="black" stroke-width="4.6751" stroke-miterlimit="10"/>
<path d="M5.72046 25.6875L143.87 26.8095L204.225 121.948L160.7 121.574L129.844 88.8948L69.9095 88.3805L57.4738 124.005L13.8551 123.631L5.72046 25.6875Z" fill="#DC4816" stroke="black" stroke-width="4.6751" stroke-miterlimit="10"/>
<path d="M5.95422 25.4531L144.057 26.5284L204.412 121.667L160.887 121.339L130.078 88.6137L70.0965 88.0994L57.6608 123.724L14.0421 123.396L5.95422 25.4531Z" fill="#DC4A16" stroke="black" stroke-width="4.6751" stroke-miterlimit="10"/>
<path d="M6.14136 25.1729L144.29 26.2481L204.646 121.386L161.074 121.059L130.265 88.3334L70.2837 87.8659L57.8479 123.443L14.276 123.116L6.14136 25.1729Z" fill="#DC4B16" stroke="black" stroke-width="4.6751" stroke-miterlimit="10"/>
<path d="M6.32825 24.8926L144.477 25.9679L204.833 121.106L161.308 120.779L130.452 88.0531L70.4706 87.5856L58.0816 123.163L14.4629 122.836L6.32825 24.8926Z" fill="#DD4D17" stroke="black" stroke-width="4.6751" stroke-miterlimit="10"/>
<path d="M6.51526 24.6123L144.664 25.6876L205.02 120.826L161.495 120.499L130.639 87.7729L70.7043 87.3054L58.2686 122.883L14.6499 122.556L6.51526 24.6123Z" fill="#DD4E17" stroke="black" stroke-width="4.6751" stroke-miterlimit="10"/>
<path d="M6.74915 24.3311L144.851 25.4063L205.207 120.545L161.682 120.217L130.873 87.4916L70.8915 87.0241L58.4557 122.602L14.8371 122.274L6.74915 24.3311Z" fill="#DD4F17" stroke="black" stroke-width="4.6751" stroke-miterlimit="10"/>
<path d="M6.93604 24.0508L145.085 25.1728L205.441 120.311L161.869 119.937L131.06 87.2113L71.0784 86.7438L58.6426 122.368L15.0707 121.994L6.93604 24.0508Z" fill="#DE5117" stroke="black" stroke-width="4.6751" stroke-miterlimit="10"/>
<path d="M7.12305 23.7705L145.272 24.8925L205.628 120.031L162.102 119.657L131.247 86.9311L71.2654 86.4636L58.8764 122.088L15.2577 121.714L7.12305 23.7705Z" fill="#DE5217" stroke="black" stroke-width="4.6751" stroke-miterlimit="10"/>
<path d="M7.31018 23.4902L145.459 24.6123L205.815 119.75L162.29 119.376L131.434 86.6975L71.4993 86.1833L59.0635 121.808L15.4448 121.434L7.31018 23.4902Z" fill="#DE5317" stroke="black" stroke-width="4.6751" stroke-miterlimit="10"/>
<path d="M7.54382 23.2559L145.646 24.3311L206.002 119.469L162.477 119.142L131.668 86.4164L71.6861 85.9489L59.2504 121.526L15.6317 121.199L7.54382 23.2559Z" fill="#DF5517" stroke="black" stroke-width="4.6751" stroke-miterlimit="10"/>
<path d="M7.73083 22.9756L145.88 24.0509L206.235 119.189L162.664 118.862L131.855 86.1361L71.8732 85.6686L59.4374 121.246L15.8655 120.919L7.73083 22.9756Z" fill="#DF5617" stroke="black" stroke-width="4.6751" stroke-miterlimit="10"/>
<path d="M7.91797 22.6953L146.067 23.7706L206.423 118.909L162.897 118.582L132.042 85.8559L72.0603 85.3884L59.6713 120.966L16.0526 120.639L7.91797 22.6953Z" fill="#DF5717" stroke="black" stroke-width="4.6751" stroke-miterlimit="10"/>
<path d="M8.10486 22.4141L146.254 23.4893L206.609 118.628L163.084 118.3L132.229 85.5746L72.2939 85.1071L59.8582 120.685L16.2395 120.357L8.10486 22.4141Z" fill="#E05917" stroke="black" stroke-width="4.6751" stroke-miterlimit="10"/>
<path d="M8.33862 22.1338L146.441 23.2091L206.796 118.394L163.271 118.02L132.462 85.2943L72.4809 84.8268L60.0452 120.451L16.4265 120.077L8.33862 22.1338Z" fill="#E05A17" stroke="black" stroke-width="4.6751" stroke-miterlimit="10"/>
<path d="M8.52576 21.8535L146.675 22.9755L207.03 118.114L163.458 117.74L132.65 85.0141L72.6681 84.5466L60.2323 120.171L16.6604 119.797L8.52576 21.8535Z" fill="#E05B17" stroke="black" stroke-width="4.6751" stroke-miterlimit="10"/>
<path d="M8.71265 21.5732L146.862 22.6953L207.217 117.833L163.692 117.459L132.836 84.7338L72.855 84.2663L60.466 119.891L16.8473 119.517L8.71265 21.5732Z" fill="#E15D17" stroke="black" stroke-width="4.6751" stroke-miterlimit="10"/>
<path d="M8.89954 21.292L147.049 22.414L207.404 117.552L163.879 117.225L133.023 84.4993L73.0886 83.985L60.6529 119.609L17.0342 119.282L8.89954 21.292Z" fill="#E15E17" stroke="black" stroke-width="4.6751" stroke-miterlimit="10"/>
<path d="M9.1333 21.0586L147.236 22.1339L207.591 117.272L164.066 116.945L133.257 84.2192L73.2756 83.7516L60.8399 119.329L17.2212 119.002L9.1333 21.0586Z" fill="#E15F17" stroke="black" stroke-width="4.6751" stroke-miterlimit="10"/>
<path d="M9.32043 20.7783L147.47 21.8536L207.825 116.992L164.253 116.665L133.444 83.9389L73.4628 83.4714L61.027 119.049L17.4551 118.722L9.32043 20.7783Z" fill="#E26017" stroke="black" stroke-width="4.6751" stroke-miterlimit="10"/>
<path d="M9.50732 20.498L147.656 21.5733L208.012 116.712L164.487 116.384L133.631 83.6586L73.6497 83.1911L61.2606 118.769L17.642 118.441L9.50732 20.498Z" fill="#E26217" stroke="black" stroke-width="4.6751" stroke-miterlimit="10"/>
<path d="M9.69458 20.2168L147.844 21.2921L208.199 116.43L164.674 116.103L133.818 83.3774L73.8837 82.9098L61.4479 118.487L17.8292 118.16L9.69458 20.2168Z" fill="#E26317" stroke="black" stroke-width="4.6751" stroke-miterlimit="10"/>
<path d="M9.92822 19.9365L148.031 21.0585L208.386 116.197L164.861 115.823L134.052 83.0971L74.0705 82.6296L61.6348 118.254L18.0161 117.88L9.92822 19.9365Z" fill="#E36417" stroke="black" stroke-width="4.6751" stroke-miterlimit="10"/>
<path d="M10.1151 19.6562L148.264 20.7783L208.62 115.916L165.048 115.542L134.239 82.8168L74.2574 82.3493L61.8217 117.974L18.2498 117.6L10.1151 19.6562Z" fill="#E36517" stroke="black" stroke-width="4.6751" stroke-miterlimit="10"/>
<path d="M10.302 19.376L148.451 20.498L208.807 115.636L165.281 115.262L134.426 82.5833L74.4443 82.069L62.0553 117.693L18.4367 117.319L10.302 19.376Z" fill="#E36717" stroke="black" stroke-width="4.6751" stroke-miterlimit="10"/>
<path d="M10.4893 19.0957L148.638 20.2177L208.994 115.356L165.469 115.029L134.613 82.303L74.6783 81.7887L62.2426 117.413L18.6239 117.086L10.4893 19.0957Z" fill="#E46817" stroke="black" stroke-width="4.6751" stroke-miterlimit="10"/>
<path d="M10.7229 18.8613L148.825 19.9366L209.181 115.075L165.656 114.748L134.847 82.0219L74.8652 81.5544L62.4295 117.132L18.8108 116.805L10.7229 18.8613Z" fill="#E46917" stroke="black" stroke-width="4.6751" stroke-miterlimit="10"/>
<path d="M10.9098 18.5811L149.059 19.6563L209.414 114.795L165.842 114.467L135.034 81.7416L75.0521 81.2741L62.6164 116.852L19.0445 116.524L10.9098 18.5811Z" fill="#E46A17" stroke="black" stroke-width="4.6751" stroke-miterlimit="10"/>
<path d="M11.097 18.3008L149.246 19.3761L209.602 114.514L166.077 114.187L135.221 81.4613L75.2394 80.9938L62.8504 116.571L19.2317 116.244L11.097 18.3008Z" fill="#E56C17" stroke="black" stroke-width="4.6751" stroke-miterlimit="10"/>
<path d="M11.2839 18.0195L149.433 19.0948L209.789 114.233L166.263 113.906L135.408 81.1801L75.473 80.7126L63.0373 116.29L19.4186 115.963L11.2839 18.0195Z" fill="#E56D17" stroke="black" stroke-width="4.6751" stroke-miterlimit="10"/>
<path d="M11.5176 17.7393L149.62 18.8613L209.975 113.999L166.45 113.625L135.641 80.8998L75.6599 80.4323L63.2241 116.057L19.6055 115.683L11.5176 17.7393Z" fill="#E56E17" stroke="black" stroke-width="4.6751" stroke-miterlimit="10"/>
<path d="M11.7048 17.459L149.854 18.581L210.209 113.719L166.638 113.345L135.829 80.6195L75.8472 80.152L63.4114 115.776L19.8395 115.402L11.7048 17.459Z" fill="#E66F17" stroke="black" stroke-width="4.6751" stroke-miterlimit="10"/>
<path d="M11.8917 17.1787L150.041 18.3007L210.396 113.439L166.871 113.065L136.016 80.386L76.034 79.8718L63.645 115.496L20.0264 115.122L11.8917 17.1787Z" fill="#E67117" stroke="black" stroke-width="4.6751" stroke-miterlimit="10"/>
<path d="M12.0786 16.9443L150.228 18.0196L210.583 113.158L167.058 112.831L136.202 80.1049L76.2677 79.6374L63.8319 115.215L20.2133 114.888L12.0786 16.9443Z" fill="#E67217" stroke="black" stroke-width="4.6751" stroke-miterlimit="10"/>
<path d="M12.3126 16.6641L150.415 17.7393L210.77 112.878L167.245 112.55L136.436 79.8246L76.4549 79.3571L64.0192 114.935L20.4005 114.607L12.3126 16.6641Z" fill="#E77317" stroke="black" stroke-width="4.6751" stroke-miterlimit="10"/>
<path d="M12.4995 16.3838L150.649 17.4591L211.004 112.597L167.432 112.27L136.623 79.5443L76.6418 79.0768L64.2061 114.654L20.6342 114.327L12.4995 16.3838Z" fill="#E77417" stroke="black" stroke-width="4.6751" stroke-miterlimit="10"/>
<path d="M12.6864 16.1035L150.835 17.1788L211.191 112.317L167.666 111.99L136.81 79.2641L76.8287 78.7966L64.4397 114.374L20.8211 114.047L12.6864 16.1035Z" fill="#E77617" stroke="black" stroke-width="4.6751" stroke-miterlimit="10"/>
<path d="M12.8735 15.8223L151.023 16.8975L211.378 112.083L167.853 111.708L136.997 78.9828L77.0626 78.5153L64.6269 114.093L21.0082 113.766L12.8735 15.8223Z" fill="#E77717" stroke="black" stroke-width="4.6751" stroke-miterlimit="10"/>
<path d="M13.1073 15.542L151.21 16.664L211.565 111.802L168.04 111.428L137.231 78.7025L77.2496 78.235L64.8139 113.859L21.1952 113.485L13.1073 15.542Z" fill="#E87817" stroke="black" stroke-width="4.6751" stroke-miterlimit="10"/>
<path d="M13.2942 15.2617L151.443 16.3837L211.799 111.522L168.227 111.148L137.418 78.4223L77.4365 77.9548L65.0008 113.579L21.4289 113.205L13.2942 15.2617Z" fill="#E87917" stroke="black" stroke-width="4.6751" stroke-miterlimit="10"/>
<path d="M13.4813 14.9814L151.63 16.1035L211.986 111.242L168.461 110.914L137.605 78.1887L77.6236 77.6745L65.2346 113.299L21.616 112.971L13.4813 14.9814Z" fill="#E87A17" stroke="black" stroke-width="4.6751" stroke-miterlimit="10"/>
<path d="M13.6682 14.7471L151.817 15.8223L212.173 110.961L168.648 110.633L137.792 77.9076L77.8573 77.4401L65.4215 113.018L21.8029 112.69L13.6682 14.7471Z" fill="#E97C17" stroke="black" stroke-width="4.6751" stroke-miterlimit="10"/>
<path d="M13.902 14.4668L152.004 15.5421L212.36 110.68L168.835 110.353L138.026 77.6274L78.0443 77.1598L65.6085 112.737L21.9899 112.41L13.902 14.4668Z" fill="#E97D17" stroke="black" stroke-width="4.6751" stroke-miterlimit="10"/>
<path d="M14.0889 14.1865L152.238 15.2618L212.593 110.4L169.022 110.073L138.213 77.3471L78.2312 76.8796L65.7954 112.457L22.2235 112.13L14.0889 14.1865Z" fill="#EA7E17" stroke="black" stroke-width="4.6751" stroke-miterlimit="10"/>
<path d="M14.276 13.9053L152.425 14.9805L212.781 110.119L169.255 109.792L138.4 77.0658L78.4183 76.5983L66.0293 112.176L22.4107 111.849L14.276 13.9053Z" fill="#EA7F17" stroke="black" stroke-width="4.6751" stroke-miterlimit="10"/>
<path d="M14.4629 13.625L152.612 14.747L212.967 109.885L169.442 109.511L138.587 76.7856L78.652 76.318L66.2162 111.942L22.5976 111.568L14.4629 13.625Z" fill="#EA8017" stroke="black" stroke-width="4.6751" stroke-miterlimit="10"/>
<path d="M14.6967 13.3447L152.799 14.4667L213.155 109.605L169.629 109.231L138.82 76.5053L78.839 76.0378L66.4032 111.662L22.7846 111.288L14.6967 13.3447Z" fill="#EB8217" stroke="black" stroke-width="4.6751" stroke-miterlimit="10"/>
<path d="M14.8838 13.0645L153.033 14.1865L213.388 109.325L169.816 108.951L139.008 76.225L79.0261 75.7575L66.5904 111.382L23.0185 111.008L14.8838 13.0645Z" fill="#EB8317" stroke="black" stroke-width="4.6751" stroke-miterlimit="10"/>
<path d="M15.0707 12.7842L153.22 13.9062L213.575 109.044L170.05 108.717L139.194 75.9915L79.213 75.4772L66.824 111.101L23.2053 110.774L15.0707 12.7842Z" fill="#EB8417" stroke="black" stroke-width="4.6751" stroke-miterlimit="10"/>
<path d="M15.2576 12.5498L153.407 13.6251L213.762 108.763L170.237 108.436L139.381 75.7104L79.4466 75.2429L67.0109 110.82L23.3922 110.493L15.2576 12.5498Z" fill="#EC8517" stroke="black" stroke-width="4.6751" stroke-miterlimit="10"/>
<path d="M15.4916 12.2695L153.594 13.3448L213.949 108.483L170.424 108.156L139.615 75.4301L79.6339 74.9626L67.1981 110.54L23.5795 110.213L15.4916 12.2695Z" fill="#EC8617" stroke="black" stroke-width="4.6751" stroke-miterlimit="10"/>
<path d="M15.6785 11.9893L153.828 13.0645L214.183 108.203L170.611 107.875L139.802 75.1498L79.8208 74.6823L67.385 110.26L23.8131 109.933L15.6785 11.9893Z" fill="#EC8717" stroke="black" stroke-width="4.6751" stroke-miterlimit="10"/>
<path d="M15.8654 11.709L154.014 12.7843L214.37 107.922L170.845 107.595L139.989 74.8695L80.0077 74.402L67.6187 109.98L24 109.652L15.8654 11.709Z" fill="#ED8917" stroke="black" stroke-width="4.6751" stroke-miterlimit="10"/>
<path d="M16.0526 11.4277L154.202 12.5498L214.557 107.688L171.032 107.314L140.176 74.5883L80.2417 74.1208L67.8059 109.745L24.1873 109.371L16.0526 11.4277Z" fill="#ED8A17" stroke="black" stroke-width="4.6751" stroke-miterlimit="10"/>
<path d="M16.2863 11.1475L154.389 12.2695L214.744 107.408L171.219 107.034L140.41 74.308L80.4286 73.8405L67.9928 109.465L24.3742 109.091L16.2863 11.1475Z" fill="#ED8B17" stroke="black" stroke-width="4.6751" stroke-miterlimit="10"/>
<path d="M16.4731 10.8672L154.622 11.9892L214.978 107.127L171.406 106.753L140.597 74.0745L80.6155 73.5602L68.1797 109.184L24.6078 108.81L16.4731 10.8672Z" fill="#EE8C17" stroke="black" stroke-width="4.6751" stroke-miterlimit="10"/>
<path d="M16.6604 10.6338L154.81 11.7091L215.165 106.847L171.64 106.52L140.784 73.7943L80.8027 73.3268L68.4137 108.904L24.7951 108.577L16.6604 10.6338Z" fill="#EE8D17" stroke="black" stroke-width="4.6751" stroke-miterlimit="10"/>
<path d="M16.8473 10.3525L154.996 11.4278L215.352 106.566L171.827 106.239L140.971 73.5131L81.0364 73.0456L68.6006 108.623L24.982 108.296L16.8473 10.3525Z" fill="#EE8F17" stroke="black" stroke-width="4.6751" stroke-miterlimit="10"/>
<path d="M17.0809 10.0723L155.183 11.1475L215.539 106.286L172.014 105.959L141.205 73.2328L81.2233 72.7653L68.7875 108.343L25.1688 108.016L17.0809 10.0723Z" fill="#EF9017" stroke="black" stroke-width="4.6751" stroke-miterlimit="10"/>
<path d="M17.2682 9.79199L155.417 10.8673L215.773 106.005L172.201 105.678L141.392 72.9526L81.4105 72.485L68.9748 108.063L25.4029 107.735L17.2682 9.79199Z" fill="#EF9117" stroke="black" stroke-width="4.6751" stroke-miterlimit="10"/>
<path d="M17.4551 9.51172L155.604 10.587L215.96 105.725L172.435 105.398L141.579 72.6723L81.5974 72.2048L69.2084 107.782L25.5897 107.455L17.4551 9.51172Z" fill="#EF9217" stroke="black" stroke-width="4.6751" stroke-miterlimit="10"/>
<path d="M17.642 9.23047L155.791 10.3525L216.147 105.491L172.621 105.117L141.766 72.391L81.831 71.9235L69.3953 107.548L25.7766 107.174L17.642 9.23047Z" fill="#F09317" stroke="black" stroke-width="4.6751" stroke-miterlimit="10"/>
<path d="M17.876 8.9502L155.978 10.0722L216.334 105.21L172.809 104.836L142 72.1108L82.0183 71.6432L69.5825 107.267L25.9639 106.893L17.876 8.9502Z" fill="#F09517" stroke="black" stroke-width="4.6751" stroke-miterlimit="10"/>
<path d="M18.0629 8.66992L156.212 9.79194L216.567 104.93L172.996 104.603L142.187 71.8772L82.2052 71.363L69.7694 106.987L26.1975 106.613L18.0629 8.66992Z" fill="#F19617" stroke="black" stroke-width="4.6751" stroke-miterlimit="10"/>
<path d="M18.2498 8.43555L156.399 9.51082L216.754 104.649L173.229 104.322L142.374 71.5961L82.3921 71.1286L70.0031 106.706L26.3844 106.379L18.2498 8.43555Z" fill="#F19717" stroke="black" stroke-width="4.6751" stroke-miterlimit="10"/>
<path d="M18.4369 8.15527L156.586 9.23055L216.941 104.369L173.416 104.042L142.561 71.3158L82.626 70.8483L70.1902 106.426L26.5716 106.099L18.4369 8.15527Z" fill="#F19817" stroke="black" stroke-width="4.6751" stroke-miterlimit="10"/>
<path d="M18.6707 7.875L156.773 8.95027L217.175 104.088L173.603 103.761L142.794 71.0356L82.813 70.5681L70.3772 106.146L26.7586 105.818L18.6707 7.875Z" fill="#F29917" stroke="black" stroke-width="4.6751" stroke-miterlimit="10"/>
<path d="M18.8575 7.59473L157.007 8.67L217.362 103.808L173.79 103.481L142.981 70.7553L82.9999 70.2878L70.5641 105.865L26.9922 105.538L18.8575 7.59473Z" fill="#F29A17" stroke="black" stroke-width="4.6751" stroke-miterlimit="10"/>
<path d="M19.0447 7.31348L157.194 8.38875L217.549 103.574L174.024 103.2L143.168 70.474L83.187 70.0065L70.798 105.631L27.1793 105.257L19.0447 7.31348Z" fill="#F29B17" stroke="black" stroke-width="4.6751" stroke-miterlimit="10"/>
<path d="M19.2316 7.0332L157.381 8.15523L217.736 103.293L174.211 102.919L143.355 70.1938L83.4206 69.7262L70.9849 105.35L27.3662 104.976L19.2316 7.0332Z" fill="#F39D17" stroke="black" stroke-width="4.6751" stroke-miterlimit="10"/>
<path d="M19.4653 6.75293L157.614 7.87495L217.97 103.013L174.398 102.639L143.589 69.9135L83.6077 69.446L71.1719 105.07L27.5532 104.696L19.4653 6.75293Z" fill="#F39E17" stroke="black" stroke-width="4.6751" stroke-miterlimit="10"/>
<path d="M19.6522 6.47266L157.801 7.59468L218.157 102.733L174.585 102.406L143.776 69.68L83.7945 69.1657L71.3588 104.79L27.7869 104.463L19.6522 6.47266Z" fill="#F39F17" stroke="black" stroke-width="4.6751" stroke-miterlimit="10"/>
<path d="M19.8394 6.23926L157.988 7.31453L218.344 102.453L174.819 102.125L143.963 69.3998L83.9817 68.9323L71.5927 104.51L27.974 104.183L19.8394 6.23926Z" fill="#F4A017" stroke="black" stroke-width="4.6751" stroke-miterlimit="10"/>
<path d="M20.0262 5.95801L158.175 7.03328L218.531 102.172L175.006 101.844L144.15 69.1186L84.2153 68.6511L71.7796 104.229L28.1609 103.901L20.0262 5.95801Z" fill="#F4A117" stroke="black" stroke-width="4.6751" stroke-miterlimit="10"/>
<path d="M20.26 5.67773L158.409 6.75301L218.765 101.891L175.193 101.564L144.384 68.8383L84.4023 68.3708L71.9666 103.948L28.3479 103.621L20.26 5.67773Z" fill="#F5A217" stroke="black" stroke-width="4.6751" stroke-miterlimit="10"/>
<path d="M20.4471 5.39746L158.596 6.47273L218.952 101.611L175.38 101.284L144.571 68.558L84.5895 68.0905L72.1537 103.668L28.5818 103.341L20.4471 5.39746Z" fill="#F5A317" stroke="black" stroke-width="4.6751" stroke-miterlimit="10"/>
<path d="M20.634 5.11719L158.783 6.23921L219.139 101.377L175.613 101.003L144.758 68.2777L84.7764 67.8102L72.3874 103.434L28.7687 103.06L20.634 5.11719Z" fill="#F5A517" stroke="black" stroke-width="4.6751" stroke-miterlimit="10"/>
<path d="M20.821 4.83594L158.97 5.95796L219.326 101.096L175.8 100.722L144.945 67.9965L85.0101 67.529L72.5744 103.153L28.9557 102.779L20.821 4.83594Z" fill="#F6A617" stroke="black" stroke-width="4.6751" stroke-miterlimit="10"/>
<path d="M21.0549 4.55566L159.204 5.67769L219.56 100.816L175.988 100.442L145.179 67.763L85.1973 67.2487L72.7615 102.873L29.1428 102.499L21.0549 4.55566Z" fill="#F6A717" stroke="black" stroke-width="4.6751" stroke-miterlimit="10"/>
<path d="M21.2418 4.32227L159.391 5.39754L219.746 100.536L176.175 100.209L145.366 67.4828L85.3841 66.9686L72.9484 102.593L29.3765 102.266L21.2418 4.32227Z" fill="#F6A817" stroke="black" stroke-width="4.6751" stroke-miterlimit="10"/>
<path d="M21.4288 4.04102L159.578 5.11629L219.933 100.255L176.408 99.9272L145.553 67.2016L85.6179 66.7341L73.1822 102.312L29.5635 101.984L21.4288 4.04102Z" fill="#F7A917" stroke="black" stroke-width="4.6751" stroke-miterlimit="10"/>
<path d="M21.616 3.76074L159.765 4.83601L220.121 99.9742L176.595 99.647L145.74 66.9213L85.805 66.4538L73.3693 102.031L29.7506 101.704L21.616 3.76074Z" fill="#F7AA17" stroke="black" stroke-width="4.6751" stroke-miterlimit="10"/>
<path d="M21.8496 3.48047L159.999 4.55574L220.354 99.694L176.782 99.3667L145.973 66.641L85.9919 66.1735L73.5562 101.751L29.9375 101.424L21.8496 3.48047Z" fill="#F8AC17" stroke="black" stroke-width="4.6751" stroke-miterlimit="10"/>
<path d="M22.0366 3.2002L160.186 4.27547L220.541 99.4137L176.969 99.0864L146.16 66.3608L86.1789 65.8932L73.7432 101.471L30.1713 101.143L22.0366 3.2002Z" fill="#F8AD17" stroke="black" stroke-width="4.6751" stroke-miterlimit="10"/>
<path d="M22.2238 2.91895L160.373 4.04097L220.728 99.1792L177.203 98.8052L146.348 66.0795L86.4128 65.612L73.9771 101.236L30.3584 100.862L22.2238 2.91895Z" fill="#F8AE17" stroke="black" stroke-width="4.6751" stroke-miterlimit="10"/>
<path d="M22.4106 2.63867L160.56 3.7607L220.915 98.8989L177.39 98.5249L146.534 65.7992L86.5997 65.3317L74.164 100.956L30.5453 100.582L22.4106 2.63867Z" fill="#F9AF17" stroke="black" stroke-width="4.6751" stroke-miterlimit="10"/>
<path d="M22.6443 2.3584L160.793 3.48042L221.149 98.6186L177.577 98.2446L146.768 65.5657L86.7866 65.0514L74.3509 100.676L30.7322 100.302L22.6443 2.3584Z" fill="#F9B017" stroke="black" stroke-width="4.6751" stroke-miterlimit="10"/>
<path d="M75.4261 29.4734L77.6702 39.5716L66.3097 39.5249L68.694 51.4931H58.3153L56.1647 39.4781L44.664 39.4314L43.0745 29.2397L54.3882 29.3332L52.4247 18.3467L62.1489 18.4869L64.2994 29.3799L75.4261 29.4734Z" fill="#E63328" stroke="black" stroke-width="4.6751" stroke-miterlimit="10"/>
<path d="M75.473 29.4265L77.7171 39.5247L66.4033 39.478L68.7409 51.4462H58.3622L56.2584 39.4312L44.7109 39.3845L43.1681 29.146L54.4351 29.2863L52.4715 18.2998L62.1957 18.4401L64.393 29.333L75.473 29.4265Z" fill="#E63328" stroke="black" stroke-width="4.6751" stroke-miterlimit="10"/>
<path d="M75.5198 29.3806L77.7638 39.4788L66.4501 39.4321L68.7876 51.3536H58.4089L56.3051 39.3853L44.7576 39.3386L43.2148 29.1001L54.4818 29.1936L52.565 18.2539L62.2425 18.3942L64.4398 29.2871L75.5198 29.3806Z" fill="#E63328" stroke="black" stroke-width="4.6751" stroke-miterlimit="10"/>
<path d="M75.5663 29.3338L77.8103 39.432L66.4966 39.3852L68.8809 51.3067H58.4554L56.3516 39.3385L44.8041 39.2917L43.2614 29.0533L54.5283 29.1468L52.6115 18.207L62.3357 18.3005L64.4863 29.2403L75.5663 29.3338Z" fill="#E63328" stroke="black" stroke-width="4.6751" stroke-miterlimit="10"/>
<path d="M75.6598 29.2869L77.8571 39.3851L66.5433 39.2916L68.9276 51.2598H58.5489L56.3984 39.2448L44.8976 39.1981L43.3081 29.0064L54.5751 29.0999L52.6583 18.1602L62.3825 18.2537L64.533 29.1934L75.6598 29.2869Z" fill="#E63328" stroke="black" stroke-width="4.6751" stroke-miterlimit="10"/>
<path d="M75.7067 29.24L77.9507 39.2915L66.5902 39.2447L68.9745 51.213H58.5958L56.4452 39.198L44.9445 39.1512L43.355 28.9595L54.6687 29.053L52.7052 18.1133L62.4294 18.2068L64.5799 29.1465L75.7067 29.24Z" fill="#E63328" stroke="black" stroke-width="4.6751" stroke-miterlimit="10"/>
<path d="M75.7534 29.1463L77.9975 39.2445L66.637 39.1977L69.0213 51.166H58.6425L56.492 39.151L44.9913 39.1042L43.4017 28.9125L54.7155 29.006L52.7519 18.0195L62.4761 18.1598L64.6267 29.0528L75.7534 29.1463Z" fill="#E63328" stroke="black" stroke-width="4.6751" stroke-miterlimit="10"/>
<path d="M75.8003 29.0994L78.0443 39.1976L66.7306 39.1508L69.0681 51.1191H58.6894L56.5856 39.1041L45.0381 39.0573L43.4954 28.8656L54.7623 28.9591L52.7988 17.9727L62.523 18.1129L64.6735 29.0059L75.8003 29.0994Z" fill="#E63328" stroke="black" stroke-width="4.6751" stroke-miterlimit="10"/>
<path d="M75.8468 29.0525L78.0908 39.1507L66.7771 39.104L69.1146 51.0255H58.7359L56.6321 39.0572L45.0847 39.0105L43.5419 28.772L54.8089 28.8655L52.8921 17.9258L62.5695 18.066L64.7668 28.959L75.8468 29.0525Z" fill="#E63328" stroke="black" stroke-width="4.6751" stroke-miterlimit="10"/>
<path d="M75.8935 29.0056L78.1376 39.1038L66.8239 39.0571L69.2082 50.9786H58.7827L56.6789 39.0103L45.1314 38.9636L43.5886 28.7251L54.8556 28.8186L52.9388 17.8789L62.6163 18.0192L64.8136 28.9121L75.8935 29.0056Z" fill="#E63328" stroke="black" stroke-width="4.6751" stroke-miterlimit="10"/>
<path d="M75.9872 28.9597L78.1845 39.0579L66.8707 38.9644L69.255 50.9327H58.8763L56.7258 38.9644L45.225 38.8709L43.6355 28.6792L54.9025 28.7727L52.9857 17.833L62.7099 17.9265L64.8604 28.8662L75.9872 28.9597Z" fill="#E63328" stroke="black" stroke-width="4.6751" stroke-miterlimit="10"/>
<path d="M76.0339 28.9129L78.278 38.9643L66.9175 38.9176L69.3018 50.8858H58.9231L56.7725 38.8708L45.2718 38.8241L43.6823 28.6324L54.996 28.7259L53.0324 17.7861L62.7566 17.8796L64.9072 28.8194L76.0339 28.9129Z" fill="#E63328" stroke="black" stroke-width="4.6751" stroke-miterlimit="10"/>
<path d="M76.0807 28.8191L78.3247 38.9173L66.9642 38.8706L69.3485 50.8388H58.9698L56.8193 38.8238L45.3185 38.7771L43.729 28.5854L55.0427 28.6789L53.0792 17.6924L62.8034 17.8326L64.9539 28.7256L76.0807 28.8191Z" fill="#E63328" stroke="black" stroke-width="4.6751" stroke-miterlimit="10"/>
<path d="M76.1273 28.7722L78.3714 38.8705L67.0109 38.8237L69.3952 50.7919H59.0165L56.9127 38.7769L45.3652 38.7302L43.8224 28.5385L55.0894 28.632L53.1258 17.6455L62.85 17.7858L65.0006 28.6787L76.1273 28.7722Z" fill="#E63328" stroke="black" stroke-width="4.6751" stroke-miterlimit="10"/>
<path d="M76.1741 28.7254L78.4181 38.8236L67.1044 38.7768L69.4419 50.6983H59.0632L56.9594 38.7301L45.4119 38.6833L43.8691 28.4449L55.1361 28.5384L53.2193 17.5986L62.8968 17.7389L65.0941 28.6319L76.1741 28.7254Z" fill="#E63328" stroke="black" stroke-width="4.6751" stroke-miterlimit="10"/>
<path d="M76.2208 28.6785L78.4649 38.7767L67.1511 38.7299L69.5354 50.6514H59.11L57.0062 38.6832L45.4587 38.6364L43.9159 28.398L55.1829 28.4915L53.2661 17.5518L62.9435 17.692L65.1408 28.585L76.2208 28.6785Z" fill="#E63328" stroke="black" stroke-width="4.6751" stroke-miterlimit="10"/>
<path d="M76.3144 28.6316L78.5117 38.7298L67.198 38.6831L69.5823 50.6046H59.2036L57.053 38.6363L45.5523 38.5428L43.9628 28.3511L55.2298 28.4446L53.313 17.5049L63.0372 17.5984L65.1877 28.5381L76.3144 28.6316Z" fill="#E63328" stroke="black" stroke-width="4.6751" stroke-miterlimit="10"/>
<path d="M76.3612 28.5857L78.6052 38.6372L67.2448 38.5904L69.6291 50.5587H59.2503L57.0998 38.5437L45.5991 38.4969L44.0095 28.3052L55.3233 28.3987L53.3597 17.459L63.0839 17.5525L65.2345 28.4922L76.3612 28.5857Z" fill="#E63328" stroke="black" stroke-width="4.6751" stroke-miterlimit="10"/>
<path d="M76.4081 28.492L78.6521 38.5902L67.2916 38.5434L69.6759 50.5117H59.2972L57.1467 38.4967L45.6459 38.4499L44.0564 28.2582L55.3701 28.3517L53.4066 17.3652L63.1308 17.5055L65.2813 28.3985L76.4081 28.492Z" fill="#E63328" stroke="black" stroke-width="4.6751" stroke-miterlimit="10"/>
<path d="M76.4546 28.4451L78.6986 38.5433L67.3381 38.4965L69.7224 50.4648H59.3437L57.1932 38.4498L45.6924 38.403L44.1497 28.2113L55.4166 28.3048L53.4531 17.3184L63.1773 17.4586L65.3278 28.3516L76.4546 28.4451Z" fill="#E63328" stroke="black" stroke-width="4.6751" stroke-miterlimit="10"/>
<path d="M76.5013 28.3982L78.7454 38.4964L67.4316 38.4497L69.7692 50.3712H59.3905L57.2867 38.4029L45.7392 38.3562L44.1964 28.1177L55.4634 28.2112L53.4999 17.2715L63.2241 17.4117L65.4213 28.3047L76.5013 28.3982Z" fill="#E63328" stroke="black" stroke-width="4.6751" stroke-miterlimit="10"/>
<path d="M76.5482 28.3513L78.7923 38.4495L67.4785 38.4028L69.8628 50.3243H59.4373L57.3336 38.356L45.7861 38.3093L44.2433 28.0708L55.5103 28.1643L53.5935 17.2246L63.2709 17.3649L65.4682 28.2578L76.5482 28.3513Z" fill="#E63328" stroke="black" stroke-width="4.6751" stroke-miterlimit="10"/>
<path d="M76.6417 28.3045L78.839 38.4027L67.5253 38.3559L69.9096 50.2774H59.4841L57.3803 38.3092L45.8796 38.2157L44.29 28.024L55.557 28.1175L53.6402 17.1777L63.3644 17.2712L65.515 28.211L76.6417 28.3045Z" fill="#E63328" stroke="black" stroke-width="4.6751" stroke-miterlimit="10"/>
<path d="M76.6885 28.2576L78.9325 38.309L67.572 38.2623L69.9563 50.2305H59.5776L57.4271 38.2155L45.9263 38.1688L44.3368 27.9771L55.6505 28.0706L53.687 17.1309L63.4112 17.2244L65.5617 28.1641L76.6885 28.2576Z" fill="#E63328" stroke="black" stroke-width="4.6751" stroke-miterlimit="10"/>
<path d="M76.7353 28.1648L78.9794 38.263L67.6189 38.2163L70.0032 50.1845H59.6245L57.4739 38.1695L45.9732 38.1228L44.3837 27.9311L55.6974 28.0246L53.7339 17.0381L63.4581 17.1783L65.6086 28.1181L76.7353 28.1648Z" fill="#E63328" stroke="black" stroke-width="4.6751" stroke-miterlimit="10"/>
<path d="M76.7818 28.1179L79.0259 38.2161L67.6654 38.1694L70.0497 50.1376H59.671L57.5204 38.1226L46.0197 38.0759L44.4302 27.8842L55.7439 27.9777L53.7804 16.9912L63.5046 17.1315L65.6551 28.0244L76.7818 28.1179Z" fill="#E63328" stroke="black" stroke-width="4.6751" stroke-miterlimit="10"/>
<path d="M76.8286 28.0711L79.0726 38.1693L67.7589 38.1225L70.0965 50.044H59.7177L57.6139 38.0758L46.0665 38.029L44.5237 27.7906L55.7907 27.8841L53.8271 16.9443L63.5513 17.0846L65.7486 27.9776L76.8286 28.0711Z" fill="#E63328" stroke="black" stroke-width="4.6751" stroke-miterlimit="10"/>
<path d="M76.8755 28.0242L79.1195 38.1224L67.8058 38.0757L70.1901 49.9971H59.7646L57.6608 38.0289L46.1133 37.9821L44.5706 27.7437L55.8375 27.8372L53.9207 16.8975L63.5982 17.0377L65.7955 27.9307L76.8755 28.0242Z" fill="#E63328" stroke="black" stroke-width="4.6751" stroke-miterlimit="10"/>
<path d="M76.969 27.9773L79.1663 38.0755L67.8525 38.0288L70.2368 49.9503H59.8114L57.7076 37.982L46.2068 37.8885L44.6173 27.6968L55.8843 27.7903L53.9675 16.8506L63.6917 16.9441L65.8422 27.8838L76.969 27.9773Z" fill="#E63328" stroke="black" stroke-width="4.6751" stroke-miterlimit="10"/>
<path d="M77.0159 27.9314L79.2599 37.9829L67.8994 37.9361L70.2837 49.9044H59.905L57.7545 37.8894L46.2537 37.8426L44.6642 27.6509L55.9779 27.7444L54.0144 16.8047L63.7386 16.8982L65.8891 27.8379L77.0159 27.9314Z" fill="#E63328" stroke="black" stroke-width="4.6751" stroke-miterlimit="10"/>
<path d="M77.0624 27.8844L79.3064 37.9359L67.9459 37.8891L70.3302 49.8574H59.9515L57.801 37.8424L46.3002 37.7956L44.7107 27.6039L56.0244 27.6974L54.0609 16.7109L63.7851 16.8512L65.9356 27.7909L77.0624 27.8844Z" fill="#E63328" stroke="black" stroke-width="4.6751" stroke-miterlimit="10"/>
<path d="M77.1091 27.7908L79.3532 37.889L67.9927 37.8423L70.377 49.8105H59.9983L57.8477 37.7955L46.347 37.7487L44.7574 27.557L56.0712 27.6505L54.1076 16.6641L63.8318 16.8043L65.9824 27.6973L77.1091 27.7908Z" fill="#E63328" stroke="black" stroke-width="4.6751" stroke-miterlimit="10"/>
<path d="M77.156 27.7439L79.4 37.8421L68.0863 37.7954L70.4239 49.7169H60.0451L57.9413 37.7486L46.3939 37.7019L44.8511 27.4634L56.1181 27.5569L54.1545 16.6172L63.8787 16.7574L66.076 27.6504L77.156 27.7439Z" fill="#E63328" stroke="black" stroke-width="4.6751" stroke-miterlimit="10"/>
<path d="M77.2027 27.697L79.4468 37.7952L68.1331 37.7485L70.4706 49.67H60.0919L57.9881 37.7018L46.4406 37.655L44.8978 27.4165L56.1648 27.51L54.248 16.5703L63.9255 16.7106L66.1228 27.6035L77.2027 27.697Z" fill="#E63328" stroke="black" stroke-width="4.6751" stroke-miterlimit="10"/>
<path d="M77.2495 27.6502L79.4935 37.7484L68.1798 37.7016L70.5641 49.6231H60.1386L58.0349 37.6549L46.4874 37.5614L44.9446 27.3697L56.2116 27.4632L54.2948 16.5234L64.019 16.6169L66.1695 27.5567L77.2495 27.6502Z" fill="#E63328" stroke="black" stroke-width="4.6751" stroke-miterlimit="10"/>
<path d="M77.3428 27.6033L79.5868 37.6548L68.2263 37.608L70.6106 49.5762H60.2319L58.0814 37.5612L46.5806 37.5145L44.9911 27.3228L56.3048 27.4163L54.3413 16.4766L64.0655 16.5701L66.216 27.5098L77.3428 27.6033Z" fill="#E63328" stroke="black" stroke-width="4.6751" stroke-miterlimit="10"/>
<path d="M77.3896 27.5564L79.6337 37.6079L68.2732 37.5611L70.6575 49.5294H60.2788L58.1282 37.5144L46.6275 37.4676L45.038 27.2759L56.3517 27.3694L54.3882 16.4297L64.1124 16.5232L66.2629 27.4629L77.3896 27.5564Z" fill="#E63328" stroke="black" stroke-width="4.6751" stroke-miterlimit="10"/>
<path d="M77.4364 27.4636L79.6804 37.5619L68.3199 37.5151L70.7042 49.4833H60.3255L58.175 37.4684L46.6742 37.4216L45.0847 27.2299L56.3985 27.3234L54.4349 16.3369L64.1591 16.4772L66.3097 27.3701L77.4364 27.4636Z" fill="#E63328" stroke="black" stroke-width="4.6751" stroke-miterlimit="10"/>
<path d="M77.4833 27.4168L79.7273 37.515L68.4136 37.4682L70.7511 49.3897H60.3724L58.2686 37.4215L46.7211 37.3747L45.1783 27.1363L56.4453 27.2298L54.4818 16.29L64.206 16.4303L66.4033 27.3233L77.4833 27.4168Z" fill="#E63328" stroke="black" stroke-width="4.6751" stroke-miterlimit="10"/>
<path d="M77.53 27.3699L79.7741 37.4681L68.4603 37.4214L70.7979 49.3428H60.4192L58.3154 37.3746L46.7679 37.3279L45.2251 27.0894L56.4921 27.1829L54.5753 16.2432L64.2527 16.3834L66.45 27.2764L77.53 27.3699Z" fill="#E63328" stroke="black" stroke-width="4.6751" stroke-miterlimit="10"/>
<path d="M77.5765 27.323L79.8206 37.4212L68.5068 37.3745L70.8911 49.296H60.4657L58.3619 37.3277L46.8144 37.2342L45.2716 27.0425L56.5386 27.136L54.6218 16.1963L64.346 16.2898L66.4965 27.2295L77.5765 27.323Z" fill="#E63328" stroke="black" stroke-width="4.6751" stroke-miterlimit="10"/>
<path d="M77.6702 27.2761L79.9142 37.3744L68.5537 37.2808L70.938 49.2491H60.5593L58.4088 37.2341L46.908 37.1873L45.3185 26.9956L56.5855 27.0891L54.6687 16.1494L64.3929 16.2429L66.5434 27.1826L77.6702 27.2761Z" fill="#E63328" stroke="black" stroke-width="4.6751" stroke-miterlimit="10"/>
<path d="M77.7169 27.2293L79.961 37.2807L68.6005 37.234L70.9848 49.2022H60.6061L58.4555 37.1872L46.9548 37.1405L45.3652 26.9488L56.679 27.0423L54.7154 16.1025L64.4396 16.196L66.5902 27.1358L77.7169 27.2293Z" fill="#E63328" stroke="black" stroke-width="4.6751" stroke-miterlimit="10"/>
<path d="M77.7637 27.1355L80.0077 37.2337L68.6472 37.187L71.0315 49.1552H60.6528L58.5023 37.1402L47.0015 37.0935L45.412 26.9018L56.7257 26.9953L54.7622 16.0088L64.4864 16.149L66.6369 27.042L77.7637 27.1355Z" fill="#E63328" stroke="black" stroke-width="4.6751" stroke-miterlimit="10"/>
<path d="M77.8105 27.0896L80.0546 37.1878L68.7408 37.1411L71.0784 49.0626H60.6997L58.5959 37.0943L47.0484 37.0476L45.5056 26.8091L56.7726 26.9026L54.8091 15.9629L64.5333 16.1031L66.7306 26.9961L77.8105 27.0896Z" fill="#E63328" stroke="black" stroke-width="4.6751" stroke-miterlimit="10"/>
<path d="M77.8573 27.0427L80.1013 37.141L68.7876 37.0942L71.1251 49.0157H60.7464L58.6426 37.0475L47.0951 37.0007L45.5524 26.7622L56.8194 26.8557L54.9026 15.916L64.58 16.0563L66.7773 26.9492L77.8573 27.0427Z" fill="#E63328" stroke="black" stroke-width="4.6751" stroke-miterlimit="10"/>
<path d="M77.9038 26.9959L80.1478 37.0941L68.8341 37.0473L71.2184 48.9688H60.7929L58.6891 37.0006L47.1417 36.9538L45.5989 26.7154L56.8659 26.8089L54.9491 15.8691L64.6733 15.9626L66.8238 26.9024L77.9038 26.9959Z" fill="#E63328" stroke="black" stroke-width="4.6751" stroke-miterlimit="10"/>
<path d="M77.9974 26.949L80.2415 37.0472L68.881 36.9537L71.2653 48.9219H60.8866L58.736 36.9069L47.2353 36.8602L45.6458 26.6685L56.9127 26.762L54.9959 15.8223L64.7201 15.9158L66.8707 26.8555L77.9974 26.949Z" fill="#E63328" stroke="black" stroke-width="4.6751" stroke-miterlimit="10"/>
<path d="M78.0442 26.9021L80.2882 36.9536L68.9277 36.9068L71.312 48.8751H60.9333L58.7828 36.8601L47.282 36.8133L45.6925 26.6216L57.0062 26.7151L55.0427 15.7754L64.7669 15.8689L66.9174 26.8086L78.0442 26.9021Z" fill="#E63328" stroke="black" stroke-width="4.6751" stroke-miterlimit="10"/>
<path d="M78.0909 26.8084L80.335 36.9066L68.9745 36.8598L71.3588 48.8281H60.9801L58.8295 36.8131L47.3288 36.7663L45.7393 26.5746L57.053 26.6681L55.0895 15.6816L64.8137 15.8219L66.9642 26.7149L78.0909 26.8084Z" fill="#E63328" stroke="black" stroke-width="4.6751" stroke-miterlimit="10"/>
<path d="M78.1378 26.7625L80.3819 36.8607L69.0681 36.8139L71.4057 48.7822H61.0269L58.9232 36.7672L47.3757 36.7204L45.8329 26.482L57.0999 26.5755L55.1363 15.6357L64.8605 15.776L67.0578 26.669L78.1378 26.7625Z" fill="#E63328" stroke="black" stroke-width="4.6751" stroke-miterlimit="10"/>
<path d="M78.1843 26.7156L80.4284 36.8138L69.1146 36.7671L71.4522 48.6885H61.0735L58.9697 36.7203L47.4222 36.6736L45.8794 26.4351L57.1464 26.5286L55.2296 15.5889L64.907 15.7291L67.1043 26.6221L78.1843 26.7156Z" fill="#E63328" stroke="black" stroke-width="4.6751" stroke-miterlimit="10"/>
<path d="M78.2311 26.6687L80.4751 36.7669L69.1614 36.7202L71.5457 48.6417H61.1202L59.0164 36.6734L47.4689 36.6267L45.9261 26.3882L57.1931 26.4817L55.2763 15.542L65.0005 15.6355L67.1511 26.5752L78.2311 26.6687Z" fill="#E63328" stroke="black" stroke-width="4.6751" stroke-miterlimit="10"/>
<path d="M78.3247 26.6218L80.5687 36.7201L69.2083 36.6266L71.5926 48.5948H61.2138L59.0633 36.5798L47.5626 36.5331L45.973 26.3413L57.24 26.4348L55.3232 15.4951L65.0474 15.5886L67.198 26.5283L78.3247 26.6218Z" fill="#E63328" stroke="black" stroke-width="4.6751" stroke-miterlimit="10"/>
<path d="M78.3714 26.575L80.6155 36.6264L69.255 36.5797L71.6393 48.5479H61.2606L59.11 36.5329L47.6093 36.4862L46.0198 26.2945L57.3335 26.388L55.37 15.4482L65.0942 15.5417L67.2447 26.4815L78.3714 26.575Z" fill="#E63328" stroke="black" stroke-width="4.6751" stroke-miterlimit="10"/>
<path d="M78.4183 26.4812L80.6624 36.5794L69.3019 36.5327L71.6862 48.5009H61.3075L59.1569 36.4859L47.6562 36.4392L46.0667 26.2475L57.3804 26.341L55.4168 15.3545L65.141 15.4947L67.2916 26.3877L78.4183 26.4812Z" fill="#E63328" stroke="black" stroke-width="4.6751" stroke-miterlimit="10"/>
<path d="M78.4648 26.4353L80.7089 36.5335L69.3951 36.4868L71.7327 48.455H61.354L59.2502 36.44L47.7027 36.3933L46.1599 26.1548L57.4269 26.2951L55.4634 15.3086L65.1876 15.4488L67.3848 26.3418L78.4648 26.4353Z" fill="#E63328" stroke="black" stroke-width="4.6751" stroke-miterlimit="10"/>
<path d="M78.5116 26.3884L80.7556 36.4867L69.4419 36.4399L71.7794 48.3614H61.4007L59.2969 36.3932L47.7494 36.3464L46.2067 26.1079L57.4736 26.2014L55.5569 15.2617L65.2343 15.402L67.4316 26.2949L78.5116 26.3884Z" fill="#E63328" stroke="black" stroke-width="4.6751" stroke-miterlimit="10"/>
<path d="M78.5585 26.3416L80.8025 36.4398L69.4888 36.393L71.8731 48.3145H61.4476L59.3438 36.3463L47.7963 36.2995L46.2535 26.0611L57.5205 26.1546L55.6037 15.2148L65.2812 15.3551L67.4785 26.2481L78.5585 26.3416Z" fill="#E63328" stroke="black" stroke-width="4.6751" stroke-miterlimit="10"/>
<path d="M78.652 26.2947L80.8493 36.3929L69.5355 36.2994L71.9198 48.2677H61.5411L59.3906 36.2527L47.8898 36.2059L46.3003 26.0142L57.5673 26.1077L55.6505 15.168L65.3747 15.2615L67.5252 26.2012L78.652 26.2947Z" fill="#E63328" stroke="black" stroke-width="4.6751" stroke-miterlimit="10"/>
<path d="M78.6987 26.2478L80.9428 36.2993L69.5823 36.2525L71.9666 48.2208H61.5879L59.4373 36.2058L47.9366 36.159L46.347 25.9673L57.6608 26.0608L55.6972 15.1211L65.4214 15.2146L67.572 26.1543L78.6987 26.2478Z" fill="#E63328" stroke="black" stroke-width="4.6751" stroke-miterlimit="10"/>
<path d="M78.7456 26.1541L80.9896 36.2523L69.6292 36.2055L72.0135 48.1738H61.6347L59.4842 36.1588L47.9835 36.112L46.3939 25.9203L57.7077 26.0138L55.7441 15.0273L65.4683 15.1676L67.6189 26.0606L78.7456 26.1541Z" fill="#E63328" stroke="black" stroke-width="4.6751" stroke-miterlimit="10"/>
<path d="M78.7921 26.1072L81.0361 36.2054L69.6757 36.1587L72.06 48.1269H61.6812L59.5775 36.1119L48.03 36.0652L46.4872 25.8734L57.7542 25.9669L55.7906 14.9805L65.5148 15.1207L67.6654 26.0137L78.7921 26.1072Z" fill="#E63328" stroke="black" stroke-width="4.6751" stroke-miterlimit="10"/>
<path d="M78.8389 26.0603L81.0829 36.1585L69.7692 36.1118L72.1067 48.0333H61.728L59.6242 36.065L48.0767 36.0183L46.5339 25.7798L57.8009 25.8733L55.8841 14.9336L65.5616 15.0738L67.7589 25.9668L78.8389 26.0603Z" fill="#E63328" stroke="black" stroke-width="4.6751" stroke-miterlimit="10"/>
<path d="M78.8857 26.0144L81.1298 36.1126L69.816 36.0659L72.2003 47.9874H61.7749L59.6711 36.0191L48.1236 35.9724L46.5808 25.7339L57.8478 25.8274L55.931 14.8877L65.6085 15.0279L67.8057 25.9209L78.8857 26.0144Z" fill="#E63328" stroke="black" stroke-width="4.6751" stroke-miterlimit="10"/>
<path d="M78.9792 25.9676L81.1765 36.0658L69.8628 35.9723L72.2471 47.9405H61.8684L59.7178 35.9723L48.2171 35.8788L46.6276 25.687L57.8945 25.7805L55.9778 14.8408L65.702 14.9343L67.8525 25.874L78.9792 25.9676Z" fill="#E63328" stroke="black" stroke-width="4.6751" stroke-miterlimit="10"/>
<path d="M79.0261 25.9207L81.2702 35.9721L69.9097 35.9254L72.294 47.8936H61.9153L59.7647 35.8786L48.264 35.8319L46.6744 25.6402L57.9882 25.7337L56.0246 14.7939L65.7488 14.8874L67.8994 25.8272L79.0261 25.9207Z" fill="#E63328" stroke="black" stroke-width="4.6751" stroke-miterlimit="10"/>
<path d="M79.0729 25.8269L81.3169 35.9251L69.9564 35.8784L72.3407 47.8466H61.962L59.8115 35.8316L48.3107 35.7849L46.7212 25.5932L58.0349 25.6867L56.0714 14.7002L65.7956 14.8404L67.9461 25.7334L79.0729 25.8269Z" fill="#E63328" stroke="black" stroke-width="4.6751" stroke-miterlimit="10"/>
<path d="M79.1194 25.7801L81.3634 35.8783L70.0029 35.8315L72.3872 47.7998H62.0085L59.858 35.7848L48.3572 35.738L46.8145 25.5463L58.0814 25.6398L56.1179 14.6533L65.8421 14.7936L67.9926 25.6865L79.1194 25.7801Z" fill="#E63328" stroke="black" stroke-width="4.6751" stroke-miterlimit="10"/>
<path d="M79.1662 25.7332L81.4103 35.8314L70.0966 35.7846L72.4341 47.7061H62.0554L59.9516 35.7379L48.4041 35.6911L46.8613 25.4527L58.1283 25.5462L56.2115 14.6064L65.889 14.7467L68.0863 25.6397L79.1662 25.7332Z" fill="#E63328" stroke="black" stroke-width="4.6751" stroke-miterlimit="10"/>
<path d="M79.213 25.6863L81.457 35.7845L70.1433 35.7378L72.5276 47.6593H62.1021L59.9984 35.691L48.4509 35.6443L46.9081 25.4058L58.1751 25.4993L56.2583 14.5596L65.9357 14.6998L68.133 25.5928L79.213 25.6863Z" fill="#E63328" stroke="black" stroke-width="4.6751" stroke-miterlimit="10"/>
<path d="M79.3065 25.6394L81.5038 35.7376L70.1901 35.6909L72.5744 47.6124H62.1957L60.0451 35.6441L48.5444 35.5506L46.9548 25.3589L58.2218 25.4524L56.305 14.5127L66.0292 14.6062L68.1798 25.5459L79.3065 25.6394Z" fill="#E63328" stroke="black" stroke-width="4.6751" stroke-miterlimit="10"/>
<path d="M79.3534 25.5935L81.5974 35.645L70.2369 35.5982L72.6212 47.5665H62.2425L60.092 35.5515L48.5912 35.5047L47.0017 25.313L58.3154 25.4065L56.3519 14.4668L66.0761 14.5603L68.2266 25.5L79.3534 25.5935Z" fill="#E63328" stroke="black" stroke-width="4.6751" stroke-miterlimit="10"/>
<path d="M79.3999 25.4998L81.6439 35.598L70.2834 35.5512L72.6677 47.5195H62.289L60.1385 35.5045L48.6377 35.4577L47.0482 25.266L58.3619 25.3595L56.3984 14.373L66.1226 14.5133L68.2732 25.453L79.3999 25.4998Z" fill="#E63328" stroke="black" stroke-width="4.6751" stroke-miterlimit="10"/>
<path d="M79.4466 25.4529L81.6907 35.5511L70.3302 35.5044L72.7145 47.4726H62.3358L60.1852 35.4576L48.6845 35.4109L47.095 25.2191L58.4087 25.3126L56.4452 14.3262L66.1694 14.4664L68.3199 25.3594L79.4466 25.4529Z" fill="#E63328" stroke="black" stroke-width="4.6751" stroke-miterlimit="10"/>
<path d="M79.4935 25.406L81.7376 35.5042L70.4238 35.4575L72.7614 47.379H62.3827L60.2789 35.4107L48.7314 35.364L47.1886 25.1255L58.4556 25.219L56.492 14.2793L66.2162 14.4195L68.4135 25.3125L79.4935 25.406Z" fill="#E63328" stroke="black" stroke-width="4.6751" stroke-miterlimit="10"/>
<path d="M79.5403 25.3592L81.7843 35.4574L70.4706 35.4106L72.8549 47.3321H62.4294L60.3256 35.3639L48.7781 35.3171L47.2354 25.0786L58.5023 25.1721L56.5855 14.2324L66.263 14.3727L68.4603 25.2656L79.5403 25.3592Z" fill="#E63328" stroke="black" stroke-width="4.6751" stroke-miterlimit="10"/>
<path d="M79.6339 25.3133L81.8312 35.4115L70.5175 35.3647L72.9018 47.2862H62.4763L60.3725 35.318L48.8718 35.2245L47.2822 25.0327L58.5492 25.1262L56.6324 14.1865L66.3566 14.28L68.5072 25.2198L79.6339 25.3133Z" fill="#E63328" stroke="black" stroke-width="4.6751" stroke-miterlimit="10"/>
<path d="M79.6804 25.2664L81.9245 35.3178L70.564 35.2711L72.9483 47.2393H62.5696L60.419 35.2243L48.9183 35.1776L47.3287 24.9859L58.6425 25.0794L56.6789 14.1396L66.4031 14.2332L68.5537 25.1729L79.6804 25.2664Z" fill="#E63328" stroke="black" stroke-width="4.6751" stroke-miterlimit="10"/>
<path d="M79.7272 25.2194L81.9712 35.2708L70.6107 35.2241L72.995 47.1923H62.6163L60.4658 35.1773L48.965 35.1306L47.3755 24.9389L58.6892 25.0324L56.7257 14.0459L66.4499 14.1862L68.6004 25.1259L79.7272 25.2194Z" fill="#E63328" stroke="black" stroke-width="4.6751" stroke-miterlimit="10"/>
<path d="M79.7739 25.1258L82.018 35.224L70.6575 35.1772L73.0418 47.1455H62.6631L60.5125 35.1305L49.0118 35.0837L47.4222 24.892L58.736 24.9855L56.7724 13.999L66.4966 14.1393L68.6472 25.0323L79.7739 25.1258Z" fill="#E63328" stroke="black" stroke-width="4.6751" stroke-miterlimit="10"/>
<path d="M79.8208 25.0789L82.0648 35.1771L70.7511 35.1303L73.0886 47.0518H62.7099L60.6061 35.0836L49.0587 35.0368L47.5159 24.7984L58.7829 24.8919L56.8193 13.9521L66.5435 14.0924L68.7408 24.9854L79.8208 25.0789Z" fill="#E63328" stroke="black" stroke-width="4.6751" stroke-miterlimit="10"/>
<path d="M79.8675 25.032L82.1116 35.1302L70.7979 35.0835L73.1354 47.005H62.7567L60.6529 35.0367L49.1054 34.99L47.5626 24.7515L58.8296 24.845L56.9128 13.9053L66.5903 14.0455L68.7876 24.9385L79.8675 25.032Z" fill="#E63328" stroke="black" stroke-width="4.6751" stroke-miterlimit="10"/>
<path d="M79.914 24.9851L82.1581 35.0833L70.8444 35.0366L73.2287 46.9581H62.8032L60.6994 34.9898L49.1519 34.8963L47.6091 24.7046L58.8761 24.7981L56.9593 13.8584L66.6835 13.9519L68.8341 24.8916L79.914 24.9851Z" fill="#E63328" stroke="black" stroke-width="4.6751" stroke-miterlimit="10"/>
<path d="M80.0077 24.9392L82.2517 34.9907L70.8912 34.9439L73.2755 46.9122H62.8968L60.7463 34.8972L49.2455 34.8504L47.656 24.6587L58.9697 24.7522L57.0062 13.8125L66.7304 13.906L68.8809 24.8457L80.0077 24.9392Z" fill="#E63328" stroke="black" stroke-width="4.6751" stroke-miterlimit="10"/>
<path d="M80.0544 24.8924L82.2985 34.9438L70.938 34.8971L73.3223 46.8653H62.9436L60.793 34.8503L49.2923 34.8036L47.7028 24.6118L59.0165 24.7054L57.053 13.7656L66.7772 13.8591L68.9277 24.7989L80.0544 24.8924Z" fill="#E63328" stroke="black" stroke-width="4.6751" stroke-miterlimit="10"/>
<path d="M80.1012 24.7986L82.3452 34.8968L70.9847 34.8501L73.369 46.8183H62.9903L60.8398 34.8033L49.339 34.7566L47.7495 24.5648L59.0632 24.6584L57.0997 13.6719L66.8239 13.8121L68.9744 24.7051L80.1012 24.7986Z" fill="#E63328" stroke="black" stroke-width="4.6751" stroke-miterlimit="10"/>
<path d="M80.1481 24.7517L82.3921 34.8499L71.0784 34.8032L73.4159 46.7247H63.0372L60.9334 34.7564L49.3859 34.7097L47.8431 24.4712L59.1101 24.5647L57.1466 13.625L66.8708 13.7653L69.0681 24.6582L80.1481 24.7517Z" fill="#E63328" stroke="black" stroke-width="4.6751" stroke-miterlimit="10"/>
<path d="M80.1948 24.7049L82.4389 34.8031L71.1251 34.7563L73.4627 46.6778H63.084L60.9802 34.7096L49.4327 34.6628L47.8899 24.4243L59.1569 24.5178L57.2401 13.5781L66.9175 13.7184L69.1148 24.6114L80.1948 24.7049Z" fill="#E63328" stroke="black" stroke-width="4.6751" stroke-miterlimit="10"/>
<path d="M80.2414 24.658L82.4855 34.7562L71.1718 34.7094L73.556 46.6309H63.1306L61.0268 34.6627L49.4793 34.5692L47.9365 24.3775L59.2035 24.471L57.2867 13.5312L67.0109 13.6248L69.1615 24.5645L80.2414 24.658Z" fill="#E63328" stroke="black" stroke-width="4.6751" stroke-miterlimit="10"/>
<path d="M80.3349 24.6111L82.579 34.7093L71.2185 34.6158L73.6028 46.5841H63.2241L61.0735 34.5691L49.5728 34.5223L47.9833 24.3306L59.297 24.4241L57.3335 13.4844L67.0577 13.5779L69.2082 24.5176L80.3349 24.6111Z" fill="#E63328" stroke="black" stroke-width="4.6751" stroke-miterlimit="10"/>
<path d="M80.3817 24.5642L82.6257 34.6157L71.2653 34.5689L73.6496 46.5372H63.2708L61.1203 34.5222L49.6196 34.4754L48.03 24.2837L59.3438 24.3772L57.3802 13.4375L67.1044 13.531L69.255 24.4707L80.3817 24.5642Z" fill="#E63328" stroke="black" stroke-width="4.6751" stroke-miterlimit="10"/>
<path d="M80.4286 24.4715L82.6726 34.5697L71.3121 34.5229L73.6964 46.4912H63.3177L61.1672 34.4762L49.6664 34.4294L48.0769 24.2377L59.3906 24.3312L57.4271 13.3447L67.1513 13.485L69.3018 24.378L80.4286 24.4715Z" fill="#E63328" stroke="black" stroke-width="4.6751" stroke-miterlimit="10"/>
<path d="M80.4753 24.4246L82.7194 34.5228L71.4056 34.476L73.7432 46.3975H63.3645L61.2607 34.4293L49.7132 34.3825L48.1704 24.1441L59.4374 24.2376L57.4739 13.2979L67.1981 13.4381L69.3953 24.3311L80.4753 24.4246Z" fill="#E63328" stroke="black" stroke-width="4.6751" stroke-miterlimit="10"/>
<path d="M80.5218 24.3777L82.7659 34.4759L71.4521 34.4292L73.7897 46.3507H63.411L61.3072 34.3824L49.7597 34.3357L48.2169 24.0972L59.4839 24.1907L57.5671 13.251L67.2446 13.3912L69.4419 24.2842L80.5218 24.3777Z" fill="#E63328" stroke="black" stroke-width="4.6751" stroke-miterlimit="10"/>
<path d="M80.5687 24.3308L82.8128 34.429L71.499 34.3823L73.8833 46.3038H63.4579L61.3541 34.3355L49.8066 34.242L48.2638 24.0503L59.5308 24.1438L57.614 13.2041L67.3382 13.2976L69.4887 24.2373L80.5687 24.3308Z" fill="#E63328" stroke="black" stroke-width="4.6751" stroke-miterlimit="10"/>
<path d="M80.6622 24.284L82.9063 34.3822L71.5458 34.2887L73.9301 46.2569H63.5514L61.4008 34.2419L49.9001 34.1952L48.3105 24.0035L59.5775 24.097L57.6607 13.1572L67.3849 13.2507L69.5355 24.1905L80.6622 24.284Z" fill="#E63328" stroke="black" stroke-width="4.6751" stroke-miterlimit="10"/>
<path d="M80.709 24.2371L82.953 34.2885L71.5925 34.2418L73.9768 46.21H63.5981L61.4476 34.195L49.9468 34.1483L48.3573 23.9566L59.671 24.0501L57.7075 13.1104L67.4317 13.2039L69.5822 24.1436L80.709 24.2371Z" fill="#E63328" stroke="black" stroke-width="4.6751" stroke-miterlimit="10"/>
<path d="M80.7558 24.1443L82.9999 34.2425L71.6394 34.1958L74.0237 46.164H63.645L61.4944 34.149L49.9937 34.1023L48.4042 23.9106L59.7179 24.0041L57.7544 13.0176L67.4786 13.1578L69.6291 24.0508L80.7558 24.1443Z" fill="#E63328" stroke="black" stroke-width="4.6751" stroke-miterlimit="10"/>
<path d="M80.8024 24.0974L83.0464 34.1956L71.7327 34.1489L74.0702 46.0704H63.6915L61.5877 34.1021L50.0402 34.0554L48.4974 23.8169L59.7644 23.9104L57.8009 12.9707L67.5251 13.111L69.7224 24.0039L80.8024 24.0974Z" fill="#E63328" stroke="black" stroke-width="4.6751" stroke-miterlimit="10"/>
<path d="M80.8491 24.0506L83.0932 34.1488L71.7794 34.102L74.117 46.0235H63.7383L61.6345 34.0553L50.087 34.0085L48.5442 23.7701L59.8112 23.8636L57.8944 12.9238L67.5718 13.0641L69.7691 23.9571L80.8491 24.0506Z" fill="#E63328" stroke="black" stroke-width="4.6751" stroke-miterlimit="10"/>
<path d="M80.896 24.0037L83.14 34.1019L71.8263 34.0551L74.2106 45.9766H63.7851L61.6813 34.0084L50.1338 33.9616L48.5911 23.7232L59.858 23.8167L57.9413 12.877L67.6655 12.9705L69.816 23.9102L80.896 24.0037Z" fill="#E63328" stroke="black" stroke-width="4.6751" stroke-miterlimit="10"/>
<path d="M164.768 34.9435C166.684 43.873 159.485 51.0726 148.638 51.0726C137.792 51.0726 127.413 43.8262 125.497 34.9435C123.58 26.0141 130.78 18.8145 141.626 18.8145C152.472 18.8145 162.851 26.0609 164.768 34.9435Z" fill="#E63328" stroke="black" stroke-width="4.6751" stroke-miterlimit="10"/>
<path d="M167.479 32.1857C169.396 41.1152 162.196 48.3148 151.35 48.3148C140.504 48.3148 130.125 41.0684 128.208 32.1857C126.292 23.303 133.491 16.0566 144.337 16.0566C155.184 16.0566 165.562 23.303 167.479 32.1857Z" fill="#E63328" stroke="black" stroke-width="4.6751" stroke-miterlimit="10"/>
<path d="M170.237 29.4269C172.154 38.3564 164.954 45.556 154.108 45.556C143.262 45.556 132.883 38.3096 130.966 29.4269C129.05 20.4975 136.249 13.2979 147.095 13.2979C157.942 13.2979 168.32 20.5443 170.237 29.4269Z" fill="#E63328" stroke="black" stroke-width="4.6751" stroke-miterlimit="10"/>
<path d="M116.146 56.5425L113.949 46.4443H101.794L104.038 56.5425H116.146Z" fill="#E63328" stroke="black" stroke-width="4.6751" stroke-miterlimit="10"/>
<path d="M116.24 56.4489L113.996 46.3975H101.84L104.084 56.4489H116.24Z" fill="#E63328" stroke="black" stroke-width="4.6751" stroke-miterlimit="10"/>
<path d="M116.286 56.4019L114.042 46.3037H101.934L104.178 56.4019H116.286Z" fill="#E63328" stroke="black" stroke-width="4.6751" stroke-miterlimit="10"/>
<path d="M116.333 56.356L114.089 46.2578H101.981L104.225 56.356H116.333Z" fill="#E63328" stroke="black" stroke-width="4.6751" stroke-miterlimit="10"/>
<path d="M116.38 56.3091L114.136 46.2109H102.027L104.271 56.3091H116.38Z" fill="#E63328" stroke="black" stroke-width="4.6751" stroke-miterlimit="10"/>
<path d="M116.427 56.2623L114.183 46.1641H102.074L104.318 56.2623H116.427Z" fill="#E63328" stroke="black" stroke-width="4.6751" stroke-miterlimit="10"/>
<path d="M116.474 56.2154L114.229 46.1172H102.121L104.365 56.2154H116.474Z" fill="#E63328" stroke="black" stroke-width="4.6751" stroke-miterlimit="10"/>
<path d="M116.567 56.1218L114.323 46.0703H102.168L104.412 56.1218H116.567Z" fill="#E63328" stroke="black" stroke-width="4.6751" stroke-miterlimit="10"/>
<path d="M116.614 56.0748L114.37 45.9766H102.261L104.458 56.0748H116.614Z" fill="#E63328" stroke="black" stroke-width="4.6751" stroke-miterlimit="10"/>
<path d="M116.66 56.0279L114.416 45.9297H102.308L104.552 56.0279H116.66Z" fill="#E63328" stroke="black" stroke-width="4.6751" stroke-miterlimit="10"/>
<path d="M116.707 55.982L114.463 45.8838H102.355L104.599 55.982H116.707Z" fill="#E63328" stroke="black" stroke-width="4.6751" stroke-miterlimit="10"/>
<path d="M116.754 55.9351L114.51 45.8369H102.401L104.646 55.9351H116.754Z" fill="#E63328" stroke="black" stroke-width="4.6751" stroke-miterlimit="10"/>
<path d="M116.801 55.8882L114.557 45.79H102.448L104.692 55.8882H116.801Z" fill="#E63328" stroke="black" stroke-width="4.6751" stroke-miterlimit="10"/>
<path d="M116.894 55.7946L114.65 45.7432H102.495L104.739 55.7946H116.894Z" fill="#E63328" stroke="black" stroke-width="4.6751" stroke-miterlimit="10"/>
<path d="M116.941 55.7476L114.697 45.6494H102.588L104.786 55.7476H116.941Z" fill="#E63328" stroke="black" stroke-width="4.6751" stroke-miterlimit="10"/>
<path d="M116.988 55.7007L114.744 45.6025H102.635L104.879 55.7007H116.988Z" fill="#E63328" stroke="black" stroke-width="4.6751" stroke-miterlimit="10"/>
<path d="M117.035 55.6539L114.791 45.5557H102.682L104.926 55.6539H117.035Z" fill="#E63328" stroke="black" stroke-width="4.6751" stroke-miterlimit="10"/>
<path d="M117.081 55.607L114.837 45.5088H102.729L104.973 55.607H117.081Z" fill="#E63328" stroke="black" stroke-width="4.6751" stroke-miterlimit="10"/>
<path d="M117.128 55.5611L114.884 45.4629H102.776L105.02 55.5611H117.128Z" fill="#E63328" stroke="black" stroke-width="4.6751" stroke-miterlimit="10"/>
<path d="M117.221 55.4675L114.977 45.416H102.822L105.066 55.4675H117.221Z" fill="#E63328" stroke="black" stroke-width="4.6751" stroke-miterlimit="10"/>
<path d="M117.268 55.4206L115.024 45.3691H102.916L105.113 55.4206H117.268Z" fill="#E63328" stroke="black" stroke-width="4.6751" stroke-miterlimit="10"/>
<path d="M117.315 55.3736L115.071 45.2754H102.962L105.206 55.3736H117.315Z" fill="#E63328" stroke="black" stroke-width="4.6751" stroke-miterlimit="10"/>
<path d="M117.362 55.3267L115.118 45.2285H103.009L105.253 55.3267H117.362Z" fill="#E63328" stroke="black" stroke-width="4.6751" stroke-miterlimit="10"/>
<path d="M117.409 55.2798L115.165 45.1816H103.056L105.3 55.2798H117.409Z" fill="#E63328" stroke="black" stroke-width="4.6751" stroke-miterlimit="10"/>
<path d="M117.455 55.234L115.211 45.1357H103.103L105.347 55.234H117.455Z" fill="#E63328" stroke="black" stroke-width="4.6751" stroke-miterlimit="10"/>
<path d="M117.549 55.1403L115.305 45.0889H103.149L105.393 55.1403H117.549Z" fill="#E63328" stroke="black" stroke-width="4.6751" stroke-miterlimit="10"/>
<path d="M117.595 55.0934L115.351 45.042H103.243L105.44 55.0934H117.595Z" fill="#E63328" stroke="black" stroke-width="4.6751" stroke-miterlimit="10"/>
<path d="M117.642 55.0465L115.398 44.9482H103.29L105.534 55.0465H117.642Z" fill="#E63328" stroke="black" stroke-width="4.6751" stroke-miterlimit="10"/>
<path d="M117.689 54.9996L115.445 44.9014H103.337L105.581 54.9996H117.689Z" fill="#E63328" stroke="black" stroke-width="4.6751" stroke-miterlimit="10"/>
<path d="M117.736 54.9527L115.492 44.8545H103.383L105.627 54.9527H117.736Z" fill="#E63328" stroke="black" stroke-width="4.6751" stroke-miterlimit="10"/>
<path d="M117.782 54.9068L115.538 44.8086H103.43L105.674 54.9068H117.782Z" fill="#E63328" stroke="black" stroke-width="4.6751" stroke-miterlimit="10"/>
<path d="M117.829 54.8599L115.632 44.7617H103.477L105.721 54.8599H117.829Z" fill="#E63328" stroke="black" stroke-width="4.6751" stroke-miterlimit="10"/>
<path d="M117.923 54.7663L115.679 44.7148H103.57L105.767 54.7663H117.923Z" fill="#E63328" stroke="black" stroke-width="4.6751" stroke-miterlimit="10"/>
<path d="M117.97 54.7193L115.726 44.6211H103.617L105.861 54.7193H117.97Z" fill="#E63328" stroke="black" stroke-width="4.6751" stroke-miterlimit="10"/>
<path d="M118.016 54.6724L115.772 44.5742H103.664L105.908 54.6724H118.016Z" fill="#E63328" stroke="black" stroke-width="4.6751" stroke-miterlimit="10"/>
<path d="M118.063 54.6256L115.819 44.5273H103.71L105.954 54.6256H118.063Z" fill="#E63328" stroke="black" stroke-width="4.6751" stroke-miterlimit="10"/>
<path d="M118.11 54.5787L115.866 44.4805H103.757L106.001 54.5787H118.11Z" fill="#E63328" stroke="black" stroke-width="4.6751" stroke-miterlimit="10"/>
<path d="M118.157 54.5318L115.959 44.4336H103.804L106.048 54.5318H118.157Z" fill="#E63328" stroke="black" stroke-width="4.6751" stroke-miterlimit="10"/>
<path d="M118.25 54.4392L116.006 44.3877H103.851L106.095 54.4392H118.25Z" fill="#E63328" stroke="black" stroke-width="4.6751" stroke-miterlimit="10"/>
<path d="M118.297 54.3922L116.053 44.2939H103.944L106.188 54.3922H118.297Z" fill="#E63328" stroke="black" stroke-width="4.6751" stroke-miterlimit="10"/>
<path d="M118.343 54.3453L116.099 44.2471H103.991L106.235 54.3453H118.343Z" fill="#E63328" stroke="black" stroke-width="4.6751" stroke-miterlimit="10"/>
<path d="M118.39 54.2984L116.146 44.2002H104.038L106.282 54.2984H118.39Z" fill="#E63328" stroke="black" stroke-width="4.6751" stroke-miterlimit="10"/>
<path d="M118.437 54.2515L116.193 44.1533H104.084L106.329 54.2515H118.437Z" fill="#E63328" stroke="black" stroke-width="4.6751" stroke-miterlimit="10"/>
<path d="M118.484 54.2047L116.286 44.1064H104.131L106.375 54.2047H118.484Z" fill="#E63328" stroke="black" stroke-width="4.6751" stroke-miterlimit="10"/>
<path d="M118.577 54.111L116.333 44.0596H104.178L106.422 54.111H118.577Z" fill="#E63328" stroke="black" stroke-width="4.6751" stroke-miterlimit="10"/>
<path d="M118.624 54.065L116.38 43.9668H104.271L106.515 54.065H118.624Z" fill="#E63328" stroke="black" stroke-width="4.6751" stroke-miterlimit="10"/>
<path d="M118.671 54.0181L116.427 43.9199H104.318L106.562 54.0181H118.671Z" fill="#E63328" stroke="black" stroke-width="4.6751" stroke-miterlimit="10"/>
<path d="M118.717 53.9713L116.473 43.873H104.365L106.609 53.9713H118.717Z" fill="#E63328" stroke="black" stroke-width="4.6751" stroke-miterlimit="10"/>
<path d="M118.764 53.9244L116.52 43.8262H104.412L106.656 53.9244H118.764Z" fill="#E63328" stroke="black" stroke-width="4.6751" stroke-miterlimit="10"/>
<path d="M118.811 53.8775L116.614 43.7793H104.458L106.703 53.8775H118.811Z" fill="#E63328" stroke="black" stroke-width="4.6751" stroke-miterlimit="10"/>
<path d="M118.905 53.7839L116.661 43.7324H104.505L106.749 53.7839H118.905Z" fill="#E63328" stroke="black" stroke-width="4.6751" stroke-miterlimit="10"/>
<path d="M118.951 53.7379L116.707 43.6396H104.599L106.843 53.7379H118.951Z" fill="#E63328" stroke="black" stroke-width="4.6751" stroke-miterlimit="10"/>
<path d="M118.998 53.691L116.754 43.5928H104.645L106.889 53.691H118.998Z" fill="#E63328" stroke="black" stroke-width="4.6751" stroke-miterlimit="10"/>
<path d="M119.045 53.6441L116.801 43.5459H104.692L106.936 53.6441H119.045Z" fill="#E63328" stroke="black" stroke-width="4.6751" stroke-miterlimit="10"/>
<path d="M119.092 53.5972L116.848 43.499H104.739L106.983 53.5972H119.092Z" fill="#E63328" stroke="black" stroke-width="4.6751" stroke-miterlimit="10"/>
<path d="M119.138 53.5504L116.941 43.4521H104.786L107.03 53.5504H119.138Z" fill="#E63328" stroke="black" stroke-width="4.6751" stroke-miterlimit="10"/>
<path d="M119.232 53.4567L116.988 43.4053H104.833L107.077 53.4567H119.232Z" fill="#E63328" stroke="black" stroke-width="4.6751" stroke-miterlimit="10"/>
<path d="M119.278 53.4107L117.034 43.3125H104.926L107.17 53.4107H119.278Z" fill="#E63328" stroke="black" stroke-width="4.6751" stroke-miterlimit="10"/>
<path d="M119.325 53.3638L117.081 43.2656H104.973L107.217 53.3638H119.325Z" fill="#E63328" stroke="black" stroke-width="4.6751" stroke-miterlimit="10"/>
<path d="M119.372 53.317L117.128 43.2188H105.02L107.264 53.317H119.372Z" fill="#E63328" stroke="black" stroke-width="4.6751" stroke-miterlimit="10"/>
<path d="M119.419 53.2701L117.175 43.1719H105.066L107.31 53.2701H119.419Z" fill="#E63328" stroke="black" stroke-width="4.6751" stroke-miterlimit="10"/>
<path d="M119.466 53.2232L117.222 43.125H105.113L107.357 53.2232H119.466Z" fill="#E63328" stroke="black" stroke-width="4.6751" stroke-miterlimit="10"/>
<path d="M119.559 53.1296L117.315 43.0781H105.16L107.404 53.1296H119.559Z" fill="#E63328" stroke="black" stroke-width="4.6751" stroke-miterlimit="10"/>
<path d="M119.606 53.0826L117.362 42.9844H105.253L107.45 53.0826H119.606Z" fill="#E63328" stroke="black" stroke-width="4.6751" stroke-miterlimit="10"/>
<path d="M119.653 53.0357L117.409 42.9375H105.3L107.544 53.0357H119.653Z" fill="#E63328" stroke="black" stroke-width="4.6751" stroke-miterlimit="10"/>
<path d="M119.699 52.9898L117.455 42.8916H105.347L107.591 52.9898H119.699Z" fill="#E63328" stroke="black" stroke-width="4.6751" stroke-miterlimit="10"/>
<path d="M119.746 52.9429L117.502 42.8447H105.394L107.638 52.9429H119.746Z" fill="#E63328" stroke="black" stroke-width="4.6751" stroke-miterlimit="10"/>
<path d="M119.793 52.8961L117.549 42.7979H105.44L107.684 52.8961H119.793Z" fill="#E63328" stroke="black" stroke-width="4.6751" stroke-miterlimit="10"/>
<path d="M119.886 52.8024L117.642 42.751H105.487L107.731 52.8024H119.886Z" fill="#E63328" stroke="black" stroke-width="4.6751" stroke-miterlimit="10"/>
<path d="M119.933 52.7554L117.689 42.6572H105.58L107.778 52.7554H119.933Z" fill="#E63328" stroke="black" stroke-width="4.6751" stroke-miterlimit="10"/>
<path d="M119.98 52.7086L117.736 42.6104H105.627L107.871 52.7086H119.98Z" fill="#E63328" stroke="black" stroke-width="4.6751" stroke-miterlimit="10"/>
<path d="M120.027 52.6617L117.783 42.5635H105.674L107.918 52.6617H120.027Z" fill="#E63328" stroke="black" stroke-width="4.6751" stroke-miterlimit="10"/>
<path d="M120.073 52.6158L117.829 42.5176H105.721L107.965 52.6158H120.073Z" fill="#E63328" stroke="black" stroke-width="4.6751" stroke-miterlimit="10"/>
<path d="M120.12 52.5689L117.876 42.4707H105.767L108.012 52.5689H120.12Z" fill="#E63328" stroke="black" stroke-width="4.6751" stroke-miterlimit="10"/>
<path d="M120.214 52.4753L117.969 42.4238H105.814L108.058 52.4753H120.214Z" fill="#E63328" stroke="black" stroke-width="4.6751" stroke-miterlimit="10"/>
<path d="M120.26 52.4284L118.016 42.377H105.908L108.105 52.4284H120.26Z" fill="#E63328" stroke="black" stroke-width="4.6751" stroke-miterlimit="10"/>
<path d="M120.307 52.3814L118.063 42.2832H105.955L108.199 52.3814H120.307Z" fill="#E63328" stroke="black" stroke-width="4.6751" stroke-miterlimit="10"/>
<path d="M120.354 52.3355L118.11 42.2373H106.001L108.245 52.3355H120.354Z" fill="#E63328" stroke="black" stroke-width="4.6751" stroke-miterlimit="10"/>
<path d="M120.4 52.2886L118.156 42.1904H106.048L108.292 52.2886H120.4Z" fill="#E63328" stroke="black" stroke-width="4.6751" stroke-miterlimit="10"/>
<path d="M120.447 52.2418L118.203 42.1436H106.095L108.339 52.2418H120.447Z" fill="#E63328" stroke="black" stroke-width="4.6751" stroke-miterlimit="10"/>
<path d="M120.541 52.1481L118.297 42.0967H106.141L108.386 52.1481H120.541Z" fill="#E63328" stroke="black" stroke-width="4.6751" stroke-miterlimit="10"/>
<path d="M120.588 52.1013L118.344 42.0498H106.235L108.432 52.1013H120.588Z" fill="#E63328" stroke="black" stroke-width="4.6751" stroke-miterlimit="10"/>
<path d="M120.634 52.0543L118.39 41.9561H106.282L108.526 52.0543H120.634Z" fill="#E63328" stroke="black" stroke-width="4.6751" stroke-miterlimit="10"/>
<path d="M120.681 52.0074L118.437 41.9092H106.328L108.572 52.0074H120.681Z" fill="#E63328" stroke="black" stroke-width="4.6751" stroke-miterlimit="10"/>
<path d="M120.728 51.9605L118.484 41.8623H106.375L108.619 51.9605H120.728Z" fill="#E63328" stroke="black" stroke-width="4.6751" stroke-miterlimit="10"/>
<path d="M120.775 51.9146L118.53 41.8164H106.422L108.666 51.9146H120.775Z" fill="#E63328" stroke="black" stroke-width="4.6751" stroke-miterlimit="10"/>
<path d="M120.821 51.8677L118.624 41.7695H106.469L108.713 51.8677H120.821Z" fill="#E63328" stroke="black" stroke-width="4.6751" stroke-miterlimit="10"/>
<path d="M120.915 51.7741L118.671 41.7227H106.516L108.76 51.7741H120.915Z" fill="#E63328" stroke="black" stroke-width="4.6751" stroke-miterlimit="10"/>
<path d="M120.961 51.7271L118.717 41.6289H106.609L108.853 51.7271H120.961Z" fill="#E63328" stroke="black" stroke-width="4.6751" stroke-miterlimit="10"/>
<path d="M121.008 51.6802L118.764 41.582H106.656L108.9 51.6802H121.008Z" fill="#E63328" stroke="black" stroke-width="4.6751" stroke-miterlimit="10"/>
<path d="M121.055 51.6334L118.811 41.5352H106.703L108.947 51.6334H121.055Z" fill="#E63328" stroke="black" stroke-width="4.6751" stroke-miterlimit="10"/>
<path d="M121.102 51.5865L118.858 41.4883H106.749L108.993 51.5865H121.102Z" fill="#E63328" stroke="black" stroke-width="4.6751" stroke-miterlimit="10"/>
<path d="M121.149 51.5406L118.951 41.4424H106.796L109.04 51.5406H121.149Z" fill="#E63328" stroke="black" stroke-width="4.6751" stroke-miterlimit="10"/>
<path d="M121.242 51.447L118.998 41.3955H106.843L109.087 51.447H121.242Z" fill="#E63328" stroke="black" stroke-width="4.6751" stroke-miterlimit="10"/>
<path d="M121.289 51.4L119.045 41.3018H106.936L109.18 51.4H121.289Z" fill="#E63328" stroke="black" stroke-width="4.6751" stroke-miterlimit="10"/>
<path d="M121.335 51.3531L119.091 41.2549H106.983L109.227 51.3531H121.335Z" fill="#E63328" stroke="black" stroke-width="4.6751" stroke-miterlimit="10"/>
<path d="M121.382 51.3062L119.138 41.208H107.03L109.274 51.3062H121.382Z" fill="#E63328" stroke="black" stroke-width="4.6751" stroke-miterlimit="10"/>
<path d="M121.429 51.2593L119.185 41.1611H107.077L109.321 51.2593H121.429Z" fill="#E63328" stroke="black" stroke-width="4.6751" stroke-miterlimit="10"/>
<path d="M121.476 51.2125L119.279 41.1143H107.123L109.367 51.2125H121.476Z" fill="#E63328" stroke="black" stroke-width="4.6751" stroke-miterlimit="10"/>
<path d="M121.569 51.1198L119.325 41.0684H107.17L109.414 51.1198H121.569Z" fill="#E63328" stroke="black" stroke-width="4.6751" stroke-miterlimit="10"/>
<path d="M121.616 51.0728L119.372 40.9746H107.263L109.507 51.0728H121.616Z" fill="#E63328" stroke="black" stroke-width="4.6751" stroke-miterlimit="10"/>
<path d="M121.663 51.0259L119.419 40.9277H107.31L109.554 51.0259H121.663Z" fill="#E63328" stroke="black" stroke-width="4.6751" stroke-miterlimit="10"/>
</svg>
