<svg version="1.2" xmlns="http://www.w3.org/2000/svg" viewBox="0 0 271 271" width="271" height="271"><defs><clipPath clipPathUnits="userSpaceOnUse" id="cp1"><path d="m0 57h270.46v156.86h-270.46z"/></clipPath></defs><style>.a{fill:#d73316;stroke:#000;stroke-miterlimit:10;stroke-width:5.6}.b{fill:#d83416;stroke:#000;stroke-miterlimit:10;stroke-width:5.6}.c{fill:#d83516;stroke:#000;stroke-miterlimit:10;stroke-width:5.6}.d{fill:#d83716;stroke:#000;stroke-miterlimit:10;stroke-width:5.6}.e{fill:#d83816;stroke:#000;stroke-miterlimit:10;stroke-width:5.6}.f{fill:#d93916;stroke:#000;stroke-miterlimit:10;stroke-width:5.6}.g{fill:#d93b16;stroke:#000;stroke-miterlimit:10;stroke-width:5.6}.h{fill:#d93c16;stroke:#000;stroke-miterlimit:10;stroke-width:5.6}.i{fill:#d93d16;stroke:#000;stroke-miterlimit:10;stroke-width:5.6}.j{fill:#da3f16;stroke:#000;stroke-miterlimit:10;stroke-width:5.6}.k{fill:#da4016;stroke:#000;stroke-miterlimit:10;stroke-width:5.6}.l{fill:#da4216;stroke:#000;stroke-miterlimit:10;stroke-width:5.6}.m{fill:#db4316;stroke:#000;stroke-miterlimit:10;stroke-width:5.6}.n{fill:#db4416;stroke:#000;stroke-miterlimit:10;stroke-width:5.6}.o{fill:#db4616;stroke:#000;stroke-miterlimit:10;stroke-width:5.6}.p{fill:#dc4716;stroke:#000;stroke-miterlimit:10;stroke-width:5.6}.q{fill:#dc4816;stroke:#000;stroke-miterlimit:10;stroke-width:5.6}.r{fill:#dc4a16;stroke:#000;stroke-miterlimit:10;stroke-width:5.6}.s{fill:#dc4b16;stroke:#000;stroke-miterlimit:10;stroke-width:5.6}.t{fill:#dd4d17;stroke:#000;stroke-miterlimit:10;stroke-width:5.6}.u{fill:#dd4e17;stroke:#000;stroke-miterlimit:10;stroke-width:5.6}.v{fill:#dd4f17;stroke:#000;stroke-miterlimit:10;stroke-width:5.6}.w{fill:#de5117;stroke:#000;stroke-miterlimit:10;stroke-width:5.6}.x{fill:#de5217;stroke:#000;stroke-miterlimit:10;stroke-width:5.6}.y{fill:#de5317;stroke:#000;stroke-miterlimit:10;stroke-width:5.6}.z{fill:#df5517;stroke:#000;stroke-miterlimit:10;stroke-width:5.6}.A{fill:#df5617;stroke:#000;stroke-miterlimit:10;stroke-width:5.6}.B{fill:#df5717;stroke:#000;stroke-miterlimit:10;stroke-width:5.6}.C{fill:#e05917;stroke:#000;stroke-miterlimit:10;stroke-width:5.6}.D{fill:#e05a17;stroke:#000;stroke-miterlimit:10;stroke-width:5.6}.E{fill:#e05b17;stroke:#000;stroke-miterlimit:10;stroke-width:5.6}.F{fill:#e15d17;stroke:#000;stroke-miterlimit:10;stroke-width:5.6}.G{fill:#e15e17;stroke:#000;stroke-miterlimit:10;stroke-width:5.6}.H{fill:#e15f17;stroke:#000;stroke-miterlimit:10;stroke-width:5.6}.I{fill:#e26017;stroke:#000;stroke-miterlimit:10;stroke-width:5.6}.J{fill:#e26217;stroke:#000;stroke-miterlimit:10;stroke-width:5.6}.K{fill:#e26317;stroke:#000;stroke-miterlimit:10;stroke-width:5.6}.L{fill:#e36417;stroke:#000;stroke-miterlimit:10;stroke-width:5.6}.M{fill:#e36517;stroke:#000;stroke-miterlimit:10;stroke-width:5.6}.N{fill:#e36717;stroke:#000;stroke-miterlimit:10;stroke-width:5.6}.O{fill:#e46817;stroke:#000;stroke-miterlimit:10;stroke-width:5.6}.P{fill:#e46917;stroke:#000;stroke-miterlimit:10;stroke-width:5.6}.Q{fill:#e46a17;stroke:#000;stroke-miterlimit:10;stroke-width:5.6}.R{fill:#e56c17;stroke:#000;stroke-miterlimit:10;stroke-width:5.6}.S{fill:#e56d17;stroke:#000;stroke-miterlimit:10;stroke-width:5.6}.T{fill:#e56e17;stroke:#000;stroke-miterlimit:10;stroke-width:5.6}.U{fill:#e66f17;stroke:#000;stroke-miterlimit:10;stroke-width:5.6}.V{fill:#e67117;stroke:#000;stroke-miterlimit:10;stroke-width:5.6}.W{fill:#e67217;stroke:#000;stroke-miterlimit:10;stroke-width:5.6}.X{fill:#e77317;stroke:#000;stroke-miterlimit:10;stroke-width:5.6}.Y{fill:#e77417;stroke:#000;stroke-miterlimit:10;stroke-width:5.6}.Z{fill:#e77617;stroke:#000;stroke-miterlimit:10;stroke-width:5.6}.a0{fill:#e77717;stroke:#000;stroke-miterlimit:10;stroke-width:5.6}.a1{fill:#e87817;stroke:#000;stroke-miterlimit:10;stroke-width:5.6}.a2{fill:#e87917;stroke:#000;stroke-miterlimit:10;stroke-width:5.6}.a3{fill:#e87a17;stroke:#000;stroke-miterlimit:10;stroke-width:5.6}.a4{fill:#e97c17;stroke:#000;stroke-miterlimit:10;stroke-width:5.6}.a5{fill:#e97d17;stroke:#000;stroke-miterlimit:10;stroke-width:5.6}.a6{fill:#ea7e17;stroke:#000;stroke-miterlimit:10;stroke-width:5.6}.a7{fill:#ea7f17;stroke:#000;stroke-miterlimit:10;stroke-width:5.6}.a8{fill:#ea8017;stroke:#000;stroke-miterlimit:10;stroke-width:5.6}.a9{fill:#eb8217;stroke:#000;stroke-miterlimit:10;stroke-width:5.6}.aa{fill:#eb8317;stroke:#000;stroke-miterlimit:10;stroke-width:5.6}.ab{fill:#eb8417;stroke:#000;stroke-miterlimit:10;stroke-width:5.6}.ac{fill:#ec8517;stroke:#000;stroke-miterlimit:10;stroke-width:5.6}.ad{fill:#ec8617;stroke:#000;stroke-miterlimit:10;stroke-width:5.6}.ae{fill:#ec8717;stroke:#000;stroke-miterlimit:10;stroke-width:5.6}.af{fill:#ed8917;stroke:#000;stroke-miterlimit:10;stroke-width:5.6}.ag{fill:#ed8a17;stroke:#000;stroke-miterlimit:10;stroke-width:5.6}.ah{fill:#ed8b17;stroke:#000;stroke-miterlimit:10;stroke-width:5.6}.ai{fill:#ee8c17;stroke:#000;stroke-miterlimit:10;stroke-width:5.6}.aj{fill:#ee8d17;stroke:#000;stroke-miterlimit:10;stroke-width:5.6}.ak{fill:#ee8f17;stroke:#000;stroke-miterlimit:10;stroke-width:5.6}.al{fill:#ef9017;stroke:#000;stroke-miterlimit:10;stroke-width:5.6}.am{fill:#ef9117;stroke:#000;stroke-miterlimit:10;stroke-width:5.6}.an{fill:#ef9217;stroke:#000;stroke-miterlimit:10;stroke-width:5.6}.ao{fill:#f09317;stroke:#000;stroke-miterlimit:10;stroke-width:5.6}.ap{fill:#f09517;stroke:#000;stroke-miterlimit:10;stroke-width:5.6}.aq{fill:#f19617;stroke:#000;stroke-miterlimit:10;stroke-width:5.6}.ar{fill:#f19717;stroke:#000;stroke-miterlimit:10;stroke-width:5.6}.as{fill:#f19817;stroke:#000;stroke-miterlimit:10;stroke-width:5.6}.at{fill:#f29917;stroke:#000;stroke-miterlimit:10;stroke-width:5.6}.au{fill:#f29a17;stroke:#000;stroke-miterlimit:10;stroke-width:5.6}.av{fill:#f29b17;stroke:#000;stroke-miterlimit:10;stroke-width:5.6}.aw{fill:#f39d17;stroke:#000;stroke-miterlimit:10;stroke-width:5.6}.ax{fill:#f39e17;stroke:#000;stroke-miterlimit:10;stroke-width:5.6}.ay{fill:#f39f17;stroke:#000;stroke-miterlimit:10;stroke-width:5.6}.az{fill:#f4a017;stroke:#000;stroke-miterlimit:10;stroke-width:5.6}.aA{fill:#f4a117;stroke:#000;stroke-miterlimit:10;stroke-width:5.6}.aB{fill:#f5a217;stroke:#000;stroke-miterlimit:10;stroke-width:5.6}.aC{fill:#f5a317;stroke:#000;stroke-miterlimit:10;stroke-width:5.6}.aD{fill:#f5a517;stroke:#000;stroke-miterlimit:10;stroke-width:5.6}.aE{fill:#f6a617;stroke:#000;stroke-miterlimit:10;stroke-width:5.6}.aF{fill:#f6a717;stroke:#000;stroke-miterlimit:10;stroke-width:5.6}.aG{fill:#f6a817;stroke:#000;stroke-miterlimit:10;stroke-width:5.6}.aH{fill:#f7a917;stroke:#000;stroke-miterlimit:10;stroke-width:5.6}.aI{fill:#f7aa17;stroke:#000;stroke-miterlimit:10;stroke-width:5.6}.aJ{fill:#f8ac17;stroke:#000;stroke-miterlimit:10;stroke-width:5.6}.aK{fill:#f8ad17;stroke:#000;stroke-miterlimit:10;stroke-width:5.6}.aL{fill:#f8ae17;stroke:#000;stroke-miterlimit:10;stroke-width:5.6}.aM{fill:#f9af17;stroke:#000;stroke-miterlimit:10;stroke-width:5.6}.aN{fill:#f9b017;stroke:#000;stroke-miterlimit:10;stroke-width:5.6}.aO{fill:#e63328;stroke:#000;stroke-miterlimit:10;stroke-width:5.6}</style><g clip-path="url(#cp1)"><path class="a" d="m3 93.1l165.8 1.3 72.4 114.2-52.2-0.5-37-39.2-71.9-0.6-15 42.8-52.3-0.5z"/><path class="b" d="m3.3 92.7l165.7 1.4 72.5 114.1-52.3-0.4-36.9-39.2-72-0.6-14.9 42.7-52.4-0.4z"/><path class="c" d="m3.5 92.5l165.8 1.2 72.4 114.2-52.2-0.4-37-39.3-72-0.5-14.9 42.7-52.3-0.4z"/><path class="d" d="m3.8 92.1l165.7 1.3 72.5 114.2-52.3-0.4-37-39.3-72-0.5-14.8 42.6-52.4-0.3z"/><path class="e" d="m4 91.8l165.8 1.3 72.4 114.1-52.2-0.4-37.1-39.2-71.9-0.6-14.9 42.7-52.4-0.4z"/><path class="f" d="m4.3 91.4l165.7 1.3 72.4 114.2-52.2-0.4-37-39.3-72-0.5-14.9 42.7-52.3-0.4z"/><path class="g" d="m4.5 91.1l165.8 1.3 72.4 114.2-52.3-0.4-37-39.3-71.9-0.6-15 42.8-52.3-0.5z"/><path class="h" d="m4.7 90.8l165.8 1.3 72.4 114.2-52.2-0.5-37-39.2-72-0.6-14.9 42.8-52.3-0.5z"/><path class="i" d="m4.9 90.4l165.8 1.4 72.4 114.1-52.2-0.4-37-39.3-71.9-0.5-15 42.7-52.3-0.4z"/><path class="j" d="m5.2 90.1l165.7 1.3 72.5 114.2-52.3-0.4-36.9-39.3-72-0.6-14.9 42.8-52.4-0.4z"/><path class="k" d="m5.4 89.8l165.8 1.3 72.4 114.2-52.2-0.4-37-39.3-72-0.5-14.9 42.6-52.3-0.3z"/><path class="l" d="m5.7 89.5l165.7 1.3 72.5 114.1-52.3-0.4-37-39.2-72-0.6-14.8 42.7-52.4-0.4z"/><path class="m" d="m5.9 89.1l165.8 1.3 72.4 114.2-52.2-0.4-37.1-39.3-71.9-0.5-14.9 42.7-52.3-0.4z"/><path class="n" d="m6.2 88.8l165.7 1.3 72.4 114.2-52.2-0.4-37-39.3-72-0.6-14.9 42.7-52.3-0.4z"/><path class="o" d="m6.4 88.5l165.8 1.3 72.4 114.2-52.3-0.5-37-39.2-71.9-0.6-15 42.8-52.2-0.5z"/><path class="p" d="m6.6 88.1l165.8 1.4 72.4 114.1-52.2-0.4-37-39.3-72-0.5-14.9 42.7-52.3-0.4z"/><path class="q" d="m6.8 87.8l165.8 1.3 72.4 114.2-52.2-0.4-37-39.3-71.9-0.6-15 42.8-52.3-0.5z"/><path class="r" d="m7.1 87.5l165.7 1.3 72.5 114.2-52.3-0.4-36.9-39.3-72-0.6-14.9 42.7-52.4-0.3z"/><path class="s" d="m7.3 87.2l165.8 1.3 72.5 114.1-52.3-0.4-37-39.2-72-0.6-14.9 42.7-52.3-0.4z"/><path class="t" d="m7.6 86.8l165.8 1.3 72.4 114.2-52.3-0.4-37-39.3-72-0.5-14.8 42.7-52.4-0.4z"/><path class="u" d="m7.8 86.5l165.8 1.3 72.4 114.2-52.2-0.4-37.1-39.3-71.9-0.6-14.9 42.7-52.3-0.4z"/><path class="v" d="m8.1 86.2l165.7 1.3 72.4 114.1-52.2-0.4-37-39.2-72-0.6-14.9 42.7-52.3-0.4z"/><path class="w" d="m8.3 85.8l165.8 1.4 72.4 114.1-52.3-0.4-36.9-39.3-72-0.5-14.9 42.7-52.3-0.4z"/><path class="x" d="m8.5 85.5l165.8 1.3 72.4 114.2-52.2-0.4-37-39.3-72-0.6-14.9 42.8-52.3-0.5z"/><path class="y" d="m8.8 85.2l165.7 1.3 72.5 114.2-52.3-0.5-37-39.2-71.9-0.6-14.9 42.7-52.4-0.4z"/><path class="z" d="m9 84.9l165.8 1.3 72.4 114.1-52.3-0.4-36.9-39.2-72-0.6-14.9 42.7-52.4-0.4z"/><path class="A" d="m9.3 84.5l165.7 1.3 72.5 114.2-52.3-0.4-37-39.3-72-0.5-14.9 42.7-52.3-0.4z"/><path class="B" d="m9.5 84.2l165.8 1.3 72.4 114.2-52.2-0.4-37.1-39.3-71.9-0.6-14.9 42.7-52.4-0.4z"/><path class="C" d="m9.7 83.9l165.8 1.3 72.4 114.1-52.2-0.4-37-39.2-72-0.6-14.9 42.7-52.3-0.4z"/><path class="D" d="m10 83.5l165.7 1.3 72.4 114.2-52.2-0.4-37-39.3-71.9-0.5-15 42.7-52.3-0.4z"/><path class="E" d="m10.2 83.2l165.8 1.3 72.4 114.2-52.3-0.4-36.9-39.3-72-0.6-14.9 42.8-52.3-0.5z"/><path class="F" d="m10.4 82.9l165.8 1.3 72.4 114.2-52.2-0.5-37-39.2-72-0.6-14.9 42.7-52.3-0.4z"/><path class="G" d="m10.7 82.5l165.7 1.4 72.5 114.1-52.3-0.4-37-39.2-71.9-0.6-14.9 42.7-52.4-0.4z"/><path class="H" d="m10.9 82.2l165.8 1.3 72.4 114.2-52.2-0.4-37-39.3-72-0.5-14.9 42.7-52.4-0.4z"/><path class="I" d="m11.2 81.9l165.7 1.3 72.5 114.2-52.3-0.4-37-39.3-72-0.6-14.9 42.7-52.3-0.4z"/><path class="J" d="m11.4 81.6l165.8 1.3 72.4 114.1-52.2-0.4-37.1-39.2-71.9-0.6-14.9 42.7-52.3-0.4z"/><path class="K" d="m11.6 81.2l165.8 1.3 72.4 114.2-52.2-0.4-37-39.3-72-0.5-14.9 42.7-52.3-0.4z"/><path class="L" d="m11.9 80.9l165.7 1.3 72.4 114.2-52.2-0.4-37-39.3-71.9-0.6-15 42.8-52.3-0.5z"/><path class="M" d="m12.1 80.6l165.8 1.3 72.4 114.2-52.3-0.5-36.9-39.2-72-0.6-14.9 42.7-52.3-0.4z"/><path class="N" d="m12.3 80.2l165.8 1.4 72.4 114.1-52.2-0.4-37-39.2-72-0.6-14.9 42.7-52.3-0.4z"/><path class="O" d="m12.6 79.9l165.7 1.3 72.5 114.2-52.3-0.4-37-39.3-71.9-0.6-14.9 42.8-52.4-0.4z"/><path class="P" d="m12.8 79.6l165.8 1.3 72.4 114.2-52.2-0.4-37-39.3-72-0.6-14.9 42.7-52.3-0.4z"/><path class="Q" d="m13.1 79.3l165.7 1.3 72.5 114.1-52.3-0.4-37-39.2-72-0.6-14.9 42.7-52.3-0.4z"/><path class="R" d="m13.3 78.9l165.8 1.3 72.4 114.2-52.2-0.4-37.1-39.3-71.9-0.5-14.9 42.7-52.3-0.4z"/><path class="S" d="m13.5 78.6l165.8 1.3 72.4 114.2-52.2-0.4-37-39.3-72-0.6-14.9 42.7-52.3-0.4z"/><path class="T" d="m13.8 78.3l165.7 1.3 72.4 114.2-52.2-0.5-37-39.2-71.9-0.6-15 42.7-52.3-0.4z"/><path class="U" d="m14 77.9l165.8 1.4 72.4 114.1-52.3-0.4-36.9-39.3-72-0.5-14.9 42.7-52.3-0.4z"/><path class="V" d="m14.3 77.6l165.7 1.3 72.5 114.2-52.3-0.4-37-39.3-72-0.6-14.8 42.8-52.4-0.5z"/><path class="W" d="m14.5 77.3l165.8 1.3 72.4 114.2-52.3-0.4-37-39.3-71.9-0.6-14.9 42.7-52.4-0.4z"/><path class="X" d="m14.8 77l165.7 1.3 72.4 114.1-52.2-0.4-37-39.2-72-0.6-14.9 42.7-52.3-0.4z"/><path class="Y" d="m15 76.6l165.8 1.3 72.4 114.2-52.3-0.4-37-39.3-72-0.5-14.9 42.7-52.3-0.4z"/><path class="Z" d="m15.2 76.3l165.8 1.3 72.4 114.2-52.2-0.4-37-39.3-72-0.6-14.9 42.7-52.3-0.4z"/><path class="a0" d="m15.4 76l165.8 1.3 72.4 114.2-52.2-0.5-37-39.2-71.9-0.6-15 42.7-52.3-0.4z"/><path class="a1" d="m15.7 75.6l165.7 1.4 72.5 114.1-52.3-0.4-36.9-39.3-72-0.5-14.9 42.7-52.4-0.4z"/><path class="a2" d="m15.9 75.3l165.8 1.3 72.4 114.2-52.2-0.4-37-39.3-72-0.6-14.9 42.8-52.3-0.5z"/><path class="a3" d="m16.2 75l165.7 1.3 72.5 114.2-52.3-0.4-37-39.3-72-0.6-14.8 42.7-52.4-0.4z"/><path class="a4" d="m16.4 74.7l165.8 1.3 72.4 114.1-52.2-0.4-37.1-39.2-71.9-0.6-14.9 42.7-52.4-0.4z"/><path class="a5" d="m16.7 74.3l165.7 1.3 72.4 114.2-52.2-0.4-37-39.3-72-0.5-14.9 42.7-52.3-0.4z"/><path class="a6" d="m16.9 74l165.8 1.3 72.4 114.2-52.3-0.4-37-39.3-71.9-0.6-15 42.7-52.3-0.4z"/><path class="a7" d="m17.1 73.7l165.8 1.3 72.4 114.1-52.2-0.4-37-39.2-72-0.6-14.9 42.7-52.3-0.4z"/><path class="a8" d="m17.3 73.3l165.8 1.4 72.4 114.1-52.2-0.4-37-39.3-71.9-0.5-15 42.7-52.3-0.4z"/><path class="a9" d="m17.6 73l165.7 1.3 72.5 114.2-52.3-0.4-36.9-39.3-72-0.6-14.9 42.8-52.4-0.5z"/><path class="aa" d="m17.8 72.7l165.8 1.3 72.4 114.2-52.2-0.5-37-39.3-72-0.5-14.9 42.7-52.3-0.4z"/><path class="ab" d="m18.1 72.3l165.7 1.4 72.5 114.1-52.3-0.4-37-39.2-72-0.7-14.8 42.8-52.4-0.4z"/><path class="ac" d="m18.3 72l165.8 1.3 72.4 114.2-52.2-0.4-37.1-39.3-71.9-0.5-14.9 42.7-52.3-0.4z"/><path class="ad" d="m18.6 71.7l165.7 1.3 72.4 114.2-52.2-0.4-37-39.3-72-0.6-14.9 42.7-52.3-0.4z"/><path class="ae" d="m18.8 71.4l165.8 1.3 72.4 114.1-52.3-0.4-37-39.2-71.9-0.6-15 42.7-52.2-0.4z"/><path class="af" d="m19 71l165.8 1.3 72.4 114.2-52.2-0.4-37-39.3-72-0.5-14.9 42.6-52.3-0.3z"/><path class="ag" d="m19.2 70.7l165.8 1.3 72.4 114.2-52.2-0.4-37-39.3-71.9-0.6-15 42.8-52.3-0.5z"/><path class="ah" d="m19.5 70.4l165.7 1.3 72.5 114.2-52.3-0.5-36.9-39.3-72-0.5-14.9 42.7-52.4-0.4z"/><path class="ai" d="m19.7 70l165.8 1.4 72.5 114.1-52.3-0.4-37-39.2-72-0.7-14.9 42.8-52.3-0.5z"/><path class="aj" d="m20 69.7l165.8 1.3 72.4 114.2-52.3-0.4-37-39.3-72-0.5-14.8 42.7-52.4-0.4z"/><path class="ak" d="m20.2 69.4l165.8 1.3 72.4 114.2-52.2-0.4-37.1-39.3-71.9-0.6-14.9 42.7-52.3-0.4z"/><path class="al" d="m20.5 69.1l165.7 1.3 72.4 114.1-52.2-0.4-37-39.2-72-0.6-14.9 42.7-52.3-0.4z"/><path class="am" d="m20.7 68.7l165.8 1.3 72.4 114.2-52.3-0.4-37-39.3-71.9-0.5-15 42.6-52.2-0.3z"/><path class="an" d="m20.9 68.4l165.8 1.3 72.4 114.1-52.2-0.3-37-39.3-72-0.6-14.9 42.7-52.3-0.4z"/><path class="ao" d="m21.2 68.1l165.7 1.3 72.5 114.2-52.3-0.5-37-39.3-71.9-0.5-14.9 42.7-52.4-0.4z"/><path class="ap" d="m21.4 67.7l165.8 1.4 72.4 114.1-52.3-0.4-36.9-39.3-72-0.6-14.9 42.8-52.4-0.5z"/><path class="aq" d="m21.7 67.4l165.7 1.3 72.5 114.2-52.3-0.4-37-39.3-72-0.6-14.9 42.8-52.3-0.5z"/><path class="ar" d="m21.9 67.1l165.8 1.3 72.4 114.2-52.2-0.4-37.1-39.3-72-0.6-14.8 42.7-52.4-0.4z"/><path class="as" d="m22.1 66.8l165.8 1.3 72.4 114.1-52.2-0.4-37-39.2-72-0.6-14.9 42.7-52.3-0.4z"/><path class="at" d="m22.4 66.4l165.7 1.3 72.5 114.2-52.3-0.4-37-39.3-71.9-0.5-15 42.6-52.3-0.3z"/><path class="au" d="m22.6 66.1l165.8 1.3 72.4 114.1-52.3-0.3-36.9-39.3-72-0.6-14.9 42.7-52.3-0.4z"/><path class="av" d="m22.8 65.8l165.8 1.2 72.4 114.3-52.2-0.5-37-39.3-72-0.5-14.9 42.7-52.3-0.4z"/><path class="aw" d="m23.1 65.4l165.7 1.4 72.5 114.1-52.3-0.4-37-39.3-71.9-0.6-14.9 42.8-52.4-0.5z"/><path class="ax" d="m23.3 65.1l165.8 1.3 72.4 114.2-52.2-0.5-37-39.2-72-0.6-14.9 42.8-52.4-0.5z"/><path class="ay" d="m23.6 64.7l165.7 1.4 72.5 114.2-52.3-0.4-37-39.3-72-0.6-14.9 42.7-52.3-0.4z"/><path class="az" d="m23.8 64.5l165.8 1.3 72.4 114.1-52.2-0.4-37.1-39.2-71.9-0.6-14.9 42.7-52.4-0.4z"/><path class="aA" d="m24 64.1l165.8 1.3 72.4 114.2-52.2-0.4-37-39.3-72-0.5-14.9 42.7-52.3-0.4z"/><path class="aB" d="m24.3 63.8l165.8 1.3 72.4 114.1-52.3-0.3-37-39.3-71.9-0.6-15 42.7-52.3-0.4z"/><path class="aC" d="m24.5 63.5l165.8 1.2 72.4 114.2-52.3-0.4-36.9-39.3-72-0.5-14.9 42.7-52.3-0.4z"/><path class="aD" d="m24.7 63.1l165.8 1.4 72.4 114.1-52.2-0.4-37-39.3-72-0.6-14.9 42.8-52.3-0.5z"/><path class="aE" d="m25 62.8l165.7 1.3 72.5 114.2-52.3-0.5-37-39.2-71.9-0.6-14.9 42.8-52.4-0.5z"/><path class="aF" d="m25.2 62.4l165.8 1.4 72.5 114.2-52.3-0.5-37-39.2-72-0.6-14.9 42.7-52.3-0.4z"/><path class="aG" d="m25.5 62.2l165.8 1.3 72.4 114.1-52.3-0.4-37-39.2-72-0.7-14.9 42.8-52.3-0.4z"/><path class="aH" d="m25.7 61.8l165.8 1.3 72.4 114.2-52.2-0.4-37.1-39.3-71.9-0.5-14.9 42.6-52.3-0.3z"/><path class="aI" d="m25.9 61.5l165.8 1.3 72.4 114.1-52.2-0.3-37-39.3-72-0.6-14.9 42.7-52.3-0.4z"/><path class="aJ" d="m26.2 61.2l165.8 1.2 72.4 114.2-52.3-0.4-37-39.3-71.9-0.5-15 42.7-52.3-0.4z"/><path class="aK" d="m26.4 60.8l165.8 1.3 72.4 114.2-52.3-0.4-36.9-39.3-72-0.6-14.9 42.7-52.3-0.4z"/><path class="aL" d="m26.6 60.5l165.8 1.3 72.5 114.2-52.3-0.5-37-39.2-71.9-0.6-14.9 42.8-52.4-0.5z"/><path class="aM" d="m26.9 60.1l165.8 1.4 72.4 114.2-52.3-0.5-37-39.3-71.9-0.5-14.9 42.7-52.4-0.4z"/><path class="aN" d="m27.2 59.8l165.7 1.4 72.5 114.1-52.3-0.4-37-39.2-72-0.7-14.9 42.8-52.3-0.5z"/><path class="aO" d="m90.5 92.3l2.7 12.2-13.6-0.1 2.8 14.4h-12.4l-2.6-14.5h-13.8l-1.9-12.2 13.5 0.1-2.3-13.2 11.7 0.2 2.5 13z"/><path class="aO" d="m90.5 92.3l2.7 12.1-13.5-0.1 2.8 14.4h-12.5l-2.5-14.4-13.9-0.1-1.8-12.2 13.5 0.1-2.4-13.2 11.7 0.2 2.7 13.1z"/><path class="aO" d="m90.6 92.2l2.7 12.1h-13.6l2.8 14.3h-12.4l-2.6-14.4h-13.8l-1.9-12.3 13.6 0.1-2.3-13.1 11.6 0.1 2.6 13.1z"/><path class="aO" d="m90.7 92.2l2.7 12.1-13.6-0.1 2.8 14.3h-12.5l-2.5-14.3-13.9-0.1-1.8-12.3 13.5 0.2-2.3-13.2 11.7 0.1 2.6 13.2z"/><path class="aO" d="m90.8 92.1l2.6 12.1-13.6-0.1 2.9 14.4h-12.5l-2.5-14.4-13.8-0.1-2-12.2 13.6 0.1-2.3-13.1 11.6 0.1 2.6 13.1z"/><path class="aO" d="m90.8 92.1l2.7 12h-13.6l2.8 14.3h-12.4l-2.6-14.4h-13.8l-1.9-12.3 13.6 0.1-2.4-13.1 11.7 0.1 2.6 13.2z"/><path class="aO" d="m90.9 92l2.7 12.1-13.7-0.1 2.9 14.4h-12.5l-2.5-14.4-13.8-0.1-1.9-12.2 13.5 0.1-2.3-13.2 11.6 0.2 2.6 13z"/><path class="aO" d="m90.9 91.9l2.7 12.1h-13.5l2.8 14.3h-12.5l-2.5-14.4-13.9-0.1-1.8-12.2 13.5 0.1-2.4-13.2 11.7 0.2 2.6 13.1z"/><path class="aO" d="m91 91.8l2.7 12.2-13.6-0.1 2.8 14.3h-12.4l-2.6-14.4h-13.8l-1.9-12.3 13.5 0.1-2.3-13.1 11.7 0.2 2.6 13z"/><path class="aO" d="m91.1 91.8l2.6 12.1-13.5-0.1 2.8 14.4h-12.5l-2.5-14.4-13.9-0.1-1.8-12.3 13.5 0.2-2.3-13.2 11.6 0.2 2.7 13.1z"/><path class="aO" d="m91.2 91.7l2.6 12.1-13.6-0.1 2.9 14.4h-12.5l-2.5-14.4-13.9-0.1-1.9-12.2 13.6 0.1-2.3-13.1 11.6 0.1 2.6 13.1z"/><path class="aO" d="m91.2 91.7l2.7 12h-13.6l2.8 14.3h-12.4l-2.6-14.4h-13.8l-1.9-12.3 13.6 0.1-2.4-13.1 11.7 0.1 2.6 13.2z"/><path class="aO" d="m91.3 91.6l2.7 12.1-13.7-0.1 2.9 14.4h-12.5l-2.5-14.4-13.8-0.1-1.9-12.2 13.5 0.1-2.3-13.2 11.6 0.2 2.6 13z"/><path class="aO" d="m91.3 91.5l2.7 12.1h-13.6l2.9 14.3h-12.5l-2.5-14.4h-13.9l-1.8-12.3 13.5 0.1-2.4-13.1 11.7 0.1 2.6 13.1z"/><path class="aO" d="m91.4 91.4l2.7 12.2-13.6-0.1 2.8 14.3h-12.4l-2.6-14.3-13.8-0.1-1.9-12.3 13.5 0.1-2.3-13.1 11.7 0.2 2.6 13z"/><path class="aO" d="m91.4 91.4l2.7 12.1h-13.5l2.8 14.3h-12.5l-2.5-14.4-13.9-0.1-1.8-12.2 13.5 0.1-2.3-13.2 11.6 0.2 2.6 13.1z"/><path class="aO" d="m91.6 91.3l2.6 12.2-13.6-0.1 2.9 14.3h-12.5l-2.6-14.4-13.8-0.1-1.9-12.2 13.6 0.1-2.3-13.1 11.6 0.1 2.6 13.1z"/><path class="aO" d="m91.6 91.3l2.7 12h-13.6l2.8 14.3h-12.4l-2.6-14.4h-13.8l-1.9-12.3 13.6 0.2-2.4-13.2 11.7 0.1 2.6 13.2z"/><path class="aO" d="m91.7 91.2l2.7 12.1-13.7-0.1 2.9 14.4h-12.5l-2.5-14.4-13.8-0.1-2-12.2 13.6 0.1-2.3-13.2 11.6 0.2 2.6 13.1z"/><path class="aO" d="m91.7 91.1l2.7 12.1h-13.6l2.8 14.3h-12.4l-2.6-14.4h-13.8l-1.8-12.3 13.5 0.1-2.4-13.1 11.7 0.1 2.6 13.1z"/><path class="aO" d="m91.8 91.1l2.7 12.1-13.6-0.1 2.8 14.3h-12.5l-2.5-14.3-13.8-0.1-1.9-12.3 13.5 0.1-2.3-13.1 11.6 0.2 2.7 13z"/><path class="aO" d="m91.8 91l2.7 12.1h-13.5l2.8 14.3h-12.5l-2.5-14.4-13.9-0.1-1.8-12.2 13.5 0.1-2.3-13.2 11.6 0.2 2.6 13.1z"/><path class="aO" d="m91.9 90.9l2.7 12.2-13.6-0.1 2.9 14.3h-12.5l-2.6-14.4-13.8-0.1-1.9-12.2 13.5 0.1-2.3-13.1 11.7 0.1 2.6 13.1z"/><path class="aO" d="m92 90.9l2.7 12h-13.6l2.8 14.4h-12.4l-2.6-14.5h-13.8l-1.9-12.3 13.6 0.2-2.4-13.2 11.7 0.1 2.6 13.2z"/><path class="aO" d="m92.1 90.8l2.7 12.1-13.7-0.1 2.9 14.4h-12.5l-2.6-14.4-13.8-0.1-1.9-12.2 13.6 0.1-2.3-13.2 11.6 0.2 2.6 13.1z"/><path class="aO" d="m92.1 90.7l2.7 12.1h-13.6l2.8 14.3h-12.4l-2.6-14.4h-13.8l-1.9-12.3 13.6 0.1-2.4-13.1 11.7 0.1 2.6 13.1z"/><path class="aO" d="m92.2 90.7l2.7 12.1-13.6-0.1 2.8 14.3h-12.5l-2.5-14.3-13.8-0.1-1.9-12.3 13.5 0.1-2.3-13.1 11.6 0.2 2.7 13z"/><path class="aO" d="m92.2 90.6l2.7 12.1h-13.6l2.9 14.3h-12.5l-2.5-14.4h-13.9l-1.8-12.3 13.5 0.1-2.3-13.1 11.6 0.1 2.6 13.1z"/><path class="aO" d="m92.3 90.5l2.7 12.2-13.6-0.1 2.9 14.3h-12.5l-2.6-14.3-13.8-0.2-1.9-12.2 13.5 0.1-2.3-13.1 11.7 0.1 2.6 13.1z"/><path class="aO" d="m92.4 90.5l2.7 12.1-13.6-0.1 2.8 14.4h-12.4l-2.6-14.5h-13.8l-1.9-12.2 13.6 0.1-2.4-13.2 11.7 0.2 2.5 13.1z"/><path class="aO" d="m92.5 90.4l2.6 12.1-13.6-0.1 2.9 14.4h-12.5l-2.6-14.4-13.8-0.1-1.9-12.2 13.6 0.1-2.3-13.2 11.6 0.2 2.6 13.1z"/><path class="aO" d="m92.5 90.3l2.7 12.1h-13.6l2.8 14.3h-12.4l-2.6-14.4h-13.8l-1.9-12.3 13.6 0.2-2.4-13.2 11.7 0.1 2.6 13.1z"/><path class="aO" d="m92.6 90.3l2.7 12.1-13.6-0.1 2.8 14.3h-12.5l-2.5-14.3-13.8-0.1-1.9-12.3 13.5 0.1-2.3-13.1 11.6 0.2 2.7 13.1z"/><path class="aO" d="m92.6 90.2l2.7 12.1h-13.6l2.8 14.3h-12.4l-2.5-14.4h-13.9l-1.8-12.3 13.5 0.1-2.3-13.1 11.6 0.1 2.6 13.1z"/><path class="aO" d="m92.7 90.2l2.7 12.1-13.6-0.1 2.9 14.3h-12.6l-2.5-14.3-13.8-0.2-1.9-12.2 13.5 0.1-2.3-13.1 11.7 0.1 2.6 13.1z"/><path class="aO" d="m92.8 90.1l2.7 12.1-13.6-0.1 2.8 14.4h-12.4l-2.6-14.5h-13.8l-1.9-12.2 13.5 0.1-2.3-13.2 11.7 0.2 2.5 13.1z"/><path class="aO" d="m92.8 90l2.7 12.1-13.6-0.1 2.9 14.4h-12.5l-2.6-14.4-13.8-0.1-1.9-12.2 13.6 0.1-2.4-13.1 11.7 0.1 2.6 13.1z"/><path class="aO" d="m92.9 89.9l2.7 12.1h-13.6l2.8 14.4h-12.4l-2.6-14.5h-13.8l-1.9-12.2 13.6 0.1-2.4-13.2 11.7 0.1 2.5 13.1z"/><path class="aO" d="m93 89.9l2.7 12.1-13.6-0.1 2.8 14.3h-12.5l-2.5-14.3-13.9-0.1-1.8-12.3 13.5 0.2-2.3-13.2 11.6 0.2 2.7 13.1z"/><path class="aO" d="m93 89.8l2.7 12.1h-13.6l2.8 14.3h-12.4l-2.5-14.4h-13.9l-1.9-12.3 13.6 0.1-2.3-13.1 11.6 0.1 2.6 13.1z"/><path class="aO" d="m93.1 89.8l2.7 12.1-13.6-0.1 2.8 14.3h-12.5l-2.5-14.3-13.8-0.1-1.9-12.3 13.5 0.1-2.3-13.1 11.7 0.1 2.6 13.2z"/><path class="aO" d="m93.2 89.7l2.7 12.1-13.7-0.1 2.9 14.4h-12.4l-2.6-14.4-13.8-0.1-1.9-12.2 13.5 0.1-2.3-13.1 11.7 0.1 2.5 13.1z"/><path class="aO" d="m93.2 89.7l2.7 12h-13.6l2.9 14.3h-12.5l-2.6-14.4-13.8-0.1-1.9-12.2 13.6 0.1-2.4-13.1 11.7 0.1 2.6 13.1z"/><path class="aO" d="m93.3 89.5l2.7 12.2-13.6-0.1 2.8 14.4h-12.4l-2.6-14.5h-13.8l-1.9-12.2 13.5 0.1-2.3-13.2 11.7 0.2 2.5 13z"/><path class="aO" d="m93.4 89.5l2.6 12.1-13.5-0.1 2.8 14.3h-12.5l-2.5-14.3-13.9-0.1-1.8-12.3 13.5 0.2-2.3-13.2 11.6 0.2 2.7 13.1z"/><path class="aO" d="m93.4 89.4l2.7 12.1h-13.6l2.8 14.3h-12.4l-2.6-14.4h-13.8l-1.9-12.3 13.6 0.1-2.3-13.1 11.6 0.1 2.6 13.1z"/><path class="aO" d="m93.5 89.4l2.7 12.1-13.6-0.1 2.8 14.3h-12.5l-2.5-14.3-13.9-0.1-1.8-12.3 13.5 0.1-2.3-13.1 11.7 0.1 2.6 13.2z"/><path class="aO" d="m93.6 89.3l2.7 12.1-13.7-0.1 2.9 14.4h-12.5l-2.5-14.4-13.8-0.1-1.9-12.2 13.5 0.1-2.3-13.1 11.6 0.1 2.6 13.1z"/><path class="aO" d="m93.6 89.3l2.7 12h-13.6l2.9 14.3h-12.5l-2.6-14.4h-13.8l-1.9-12.3 13.6 0.1-2.4-13.1 11.7 0.1 2.6 13.1z"/><path class="aO" d="m93.7 89.1l2.7 12.2-13.7-0.1 2.9 14.4h-12.4l-2.6-14.4-13.8-0.1-1.9-12.2 13.5 0.1-2.3-13.2 11.7 0.2 2.5 13z"/><path class="aO" d="m93.7 89.1l2.7 12.1h-13.5l2.8 14.3h-12.5l-2.5-14.4-13.9-0.1-1.8-12.2 13.5 0.1-2.4-13.2 11.7 0.2 2.6 13.1z"/><path class="aO" d="m93.8 89l2.7 12.2-13.6-0.1 2.8 14.3h-12.4l-2.6-14.4h-13.8l-1.9-12.3 13.6 0.1-2.3-13.1 11.6 0.2 2.6 13z"/><path class="aO" d="m93.9 89l2.6 12.1-13.5-0.1 2.8 14.3h-12.5l-2.5-14.3-13.9-0.1-1.8-12.3 13.5 0.2-2.3-13.2 11.7 0.1 2.6 13.2z"/><path class="aO" d="m94 88.9l2.7 12.1-13.7-0.1 2.9 14.4h-12.5l-2.5-14.4-13.8-0.1-2-12.2 13.6 0.1-2.3-13.1 11.6 0.1 2.6 13.1z"/><path class="aO" d="m94 88.9l2.7 12h-13.6l2.8 14.3h-12.4l-2.6-14.4h-13.8l-1.9-12.3 13.6 0.1-2.4-13.1 11.7 0.1 2.6 13.2z"/><path class="aO" d="m94.1 88.8l2.7 12.1-13.7-0.1 2.9 14.4h-12.5l-2.5-14.4-13.8-0.1-1.9-12.2 13.5 0.1-2.3-13.2 11.6 0.2 2.6 13z"/><path class="aO" d="m94.1 88.7l2.7 12.1h-13.5l2.8 14.3h-12.5l-2.5-14.4-13.9-0.1-1.8-12.2 13.5 0.1-2.4-13.2 11.7 0.2 2.6 13.1z"/><path class="aO" d="m94.2 88.6l2.7 12.2-13.6-0.1 2.8 14.3h-12.4l-2.6-14.4h-13.8l-1.9-12.3 13.5 0.1-2.3-13.1 11.7 0.2 2.6 13z"/><path class="aO" d="m94.2 88.6l2.7 12.1-13.5-0.1 2.8 14.4h-12.5l-2.5-14.4-13.9-0.1-1.8-12.3 13.5 0.2-2.3-13.2 11.6 0.2 2.7 13.1z"/><path class="aO" d="m94.4 88.5l2.6 12.1-13.6-0.1 2.9 14.4h-12.5l-2.6-14.4-13.8-0.1-1.9-12.2 13.6 0.1-2.3-13.1 11.6 0.1 2.6 13.1z"/><path class="aO" d="m94.4 88.5l2.7 12h-13.6l2.8 14.3h-12.4l-2.6-14.4h-13.8l-1.9-12.3 13.6 0.1-2.4-13.1 11.7 0.1 2.6 13.2z"/><path class="aO" d="m94.5 88.4l2.7 12.1-13.7-0.1 2.9 14.4h-12.5l-2.5-14.4-13.8-0.1-1.9-12.2 13.5 0.1-2.3-13.2 11.6 0.2 2.6 13z"/><path class="aO" d="m94.5 88.3l2.7 12.1h-13.6l2.9 14.3h-12.5l-2.5-14.4h-13.9l-1.8-12.3 13.5 0.1-2.4-13.1 11.7 0.1 2.6 13.1z"/><path class="aO" d="m94.6 88.2l2.7 12.2-13.6-0.1 2.8 14.3h-12.4l-2.6-14.3-13.8-0.1-1.9-12.3 13.5 0.1-2.3-13.1 11.7 0.2 2.6 13z"/><path class="aO" d="m94.6 88.2l2.7 12.1h-13.5l2.8 14.3h-12.5l-2.5-14.4-13.9-0.1-1.8-12.2 13.5 0.1-2.3-13.2 11.6 0.2 2.6 13.1z"/><path class="aO" d="m94.8 88.1l2.6 12.2-13.6-0.2 2.9 14.4h-12.5l-2.6-14.4-13.8-0.1-1.9-12.2 13.6 0.1-2.3-13.1 11.6 0.1 2.6 13.1z"/><path class="aO" d="m94.8 88.1l2.7 12h-13.6l2.8 14.3h-12.4l-2.6-14.4h-13.8l-1.9-12.3 13.6 0.2-2.4-13.2 11.7 0.1 2.6 13.2z"/><path class="aO" d="m94.9 88l2.7 12.1-13.7-0.1 2.9 14.4h-12.5l-2.5-14.4-13.8-0.1-2-12.2 13.6 0.1-2.3-13.2 11.6 0.2 2.6 13.1z"/><path class="aO" d="m94.9 87.9l2.7 12.1h-13.6l2.8 14.3h-12.4l-2.6-14.4h-13.8l-1.8-12.3 13.5 0.1-2.4-13.1 11.7 0.1 2.6 13.1z"/><path class="aO" d="m95 87.9l2.7 12.1-13.6-0.1 2.8 14.3h-12.5l-2.5-14.3-13.8-0.1-1.9-12.3 13.5 0.1-2.3-13.1 11.6 0.2 2.7 13z"/><path class="aO" d="m95 87.8l2.7 12.1h-13.6l2.9 14.3h-12.5l-2.5-14.4-13.9-0.1-1.8-12.2 13.5 0.1-2.3-13.2 11.6 0.2 2.6 13.1z"/><path class="aO" d="m95.1 87.7l2.7 12.2-13.6-0.1 2.9 14.3h-12.5l-2.6-14.4-13.8-0.1-1.9-12.2 13.5 0.1-2.3-13.1 11.7 0.1 2.6 13.1z"/><path class="aO" d="m95.2 87.7l2.7 12h-13.6l2.8 14.4h-12.4l-2.6-14.5h-13.8l-1.9-12.2 13.6 0.1-2.4-13.2 11.7 0.1 2.6 13.2z"/><path class="aO" d="m95.3 87.6l2.7 12.1-13.7-0.1 2.9 14.4h-12.5l-2.6-14.4-13.8-0.1-1.9-12.2 13.6 0.1-2.3-13.2 11.6 0.2 2.6 13.1z"/><path class="aO" d="m95.3 87.5l2.7 12.1h-13.6l2.8 14.3h-12.4l-2.6-14.4h-13.8l-1.9-12.3 13.6 0.2-2.4-13.2 11.7 0.1 2.6 13.1z"/><path class="aO" d="m95.4 87.5l2.7 12.1-13.6-0.1 2.8 14.3h-12.5l-2.5-14.3-13.8-0.1-1.9-12.3 13.5 0.1-2.3-13.1 11.6 0.2 2.7 13.1z"/><path class="aO" d="m95.4 87.4l2.7 12.1h-13.6l2.9 14.3h-12.5l-2.5-14.4h-13.9l-1.8-12.3 13.5 0.1-2.3-13.1 11.6 0.1 2.6 13.1z"/><path class="aO" d="m95.5 87.4l2.7 12.1-13.6-0.1 2.9 14.3h-12.6l-2.5-14.3-13.8-0.2-1.9-12.2 13.5 0.1-2.3-13.1 11.7 0.1 2.6 13.1z"/><path class="aO" d="m95.6 87.3l2.7 12.1-13.6-0.1 2.8 14.4h-12.4l-2.6-14.5h-13.8l-1.9-12.2 13.5 0.1-2.3-13.2 11.7 0.2 2.5 13.1z"/><path class="aO" d="m95.7 87.2l2.6 12.1-13.6-0.1 2.9 14.4h-12.5l-2.6-14.4-13.8-0.1-1.9-12.2 13.6 0.1-2.3-13.2 11.6 0.2 2.6 13.1z"/><path class="aO" d="m95.7 87.1l2.7 12.1h-13.6l2.8 14.3h-12.4l-2.6-14.4h-13.8l-1.9-12.3 13.6 0.2-2.4-13.2 11.7 0.1 2.6 13.1z"/><path class="aO" d="m95.8 87.1l2.7 12.1-13.6-0.1 2.8 14.3h-12.5l-2.5-14.3-13.9-0.1-1.8-12.3 13.5 0.1-2.3-13.1 11.6 0.2 2.7 13.1z"/><path class="aO" d="m95.8 87l2.7 12.1h-13.6l2.8 14.3h-12.4l-2.5-14.4h-13.9l-1.8-12.3 13.5 0.1-2.3-13.1 11.6 0.1 2.6 13.1z"/><path class="aO" d="m95.9 87l2.7 12.1-13.6-0.1 2.9 14.3h-12.6l-2.5-14.3-13.8-0.1-1.9-12.3 13.5 0.1-2.3-13.1 11.7 0.1 2.6 13.1z"/><path class="aO" d="m96 86.9l2.7 12.1-13.7-0.1 2.9 14.4h-12.4l-2.6-14.4-13.8-0.1-1.9-12.2 13.5 0.1-2.3-13.2 11.7 0.2 2.5 13.1z"/><path class="aO" d="m96 86.8l2.7 12.1h-13.6l2.9 14.3h-12.5l-2.6-14.4-13.8-0.1-1.9-12.2 13.6 0.1-2.4-13.1 11.7 0.1 2.6 13.1z"/><path class="aO" d="m96.1 86.7l2.7 12.2-13.6-0.1 2.8 14.4h-12.4l-2.6-14.5h-13.8l-1.9-12.2 13.6 0.1-2.4-13.2 11.7 0.1 2.5 13.1z"/><path class="aO" d="m96.2 86.7l2.6 12.1-13.5-0.1 2.8 14.3h-12.5l-2.5-14.3-13.9-0.1-1.8-12.3 13.5 0.2-2.3-13.2 11.6 0.2 2.7 13.1z"/><path class="aO" d="m96.2 86.6l2.7 12.1h-13.6l2.8 14.3h-12.4l-2.5-14.4h-13.9l-1.9-12.3 13.6 0.1-2.3-13.1 11.6 0.1 2.6 13.1z"/><path class="aO" d="m96.3 86.6l2.7 12.1-13.6-0.1 2.8 14.3h-12.5l-2.5-14.3-13.8-0.1-1.9-12.3 13.5 0.1-2.3-13.1 11.7 0.1 2.6 13.2z"/><path class="aO" d="m96.4 86.5l2.7 12.1-13.7-0.1 2.9 14.4h-12.5l-2.5-14.4-13.8-0.1-1.9-12.2 13.5 0.1-2.3-13.1 11.6 0.1 2.6 13.1z"/><path class="aO" d="m96.4 86.5l2.7 12h-13.6l2.9 14.3h-12.5l-2.6-14.4-13.8-0.1-1.9-12.2 13.6 0.1-2.4-13.1 11.7 0.1 2.6 13.1z"/><path class="aO" d="m96.5 86.3l2.7 12.2-13.6-0.1 2.8 14.4h-12.4l-2.6-14.5h-13.8l-1.9-12.2 13.5 0.1-2.3-13.2 11.7 0.2 2.5 13z"/><path class="aO" d="m96.5 86.3l2.7 12.1-13.5-0.1 2.8 14.4h-12.5l-2.5-14.4-13.9-0.1-1.8-12.3 13.5 0.2-2.4-13.2 11.7 0.2 2.7 13.1z"/><path class="aO" d="m96.6 86.2l2.7 12.1h-13.6l2.8 14.3h-12.4l-2.6-14.4h-13.8l-1.9-12.3 13.6 0.1-2.3-13.1 11.6 0.1 2.6 13.1z"/><path class="aO" d="m96.7 86.2l2.7 12.1-13.6-0.1 2.8 14.3h-12.5l-2.5-14.3-13.9-0.1-1.8-12.3 13.5 0.1-2.3-13.1 11.7 0.1 2.6 13.2z"/><path class="aO" d="m96.8 86.1l2.7 12.1-13.7-0.1 2.9 14.4h-12.5l-2.5-14.4-13.8-0.1-1.9-12.2 13.5 0.1-2.3-13.1 11.6 0.1 2.6 13.1z"/><path class="aO" d="m96.8 86.1l2.7 12h-13.6l2.9 14.3h-12.5l-2.6-14.4h-13.8l-1.9-12.3 13.6 0.1-2.4-13.1 11.7 0.1 2.6 13.1z"/><path class="aO" d="m96.9 85.9l2.7 12.2-13.7-0.1 2.9 14.4h-12.4l-2.6-14.4-13.8-0.1-1.9-12.2 13.5 0.1-2.3-13.2 11.7 0.2 2.5 13z"/><path class="aO" d="m96.9 85.9l2.7 12.1h-13.5l2.8 14.3h-12.5l-2.5-14.4-13.9-0.1-1.8-12.2 13.5 0.1-2.4-13.2 11.7 0.2 2.6 13.1z"/><path class="aO" d="m97 85.8l2.7 12.2-13.6-0.1 2.8 14.3h-12.4l-2.6-14.4h-13.8l-1.9-12.3 13.6 0.1-2.3-13.1 11.6 0.2 2.6 13z"/><path class="aO" d="m97.1 85.8l2.6 12.1-13.5-0.1 2.8 14.3h-12.5l-2.5-14.3-13.9-0.1-1.8-12.3 13.5 0.2-2.3-13.2 11.7 0.1 2.6 13.2z"/><path class="aO" d="m197.7 98.9c2.3 10.7-6.3 19.4-19.4 19.4-13 0-25.4-8.7-27.7-19.4-2.3-10.7 6.3-19.3 19.3-19.3 13 0 25.5 8.6 27.8 19.3z"/><path class="aO" d="m201 95.6c2.3 10.7-6.4 19.4-19.4 19.4-13 0-25.5-8.7-27.8-19.4-2.3-10.7 6.4-19.4 19.4-19.4 13 0 25.5 8.7 27.8 19.4z"/><path class="aO" d="m204.3 92.3c2.3 10.7-6.4 19.3-19.4 19.3-13 0-25.5-8.7-27.8-19.3-2.3-10.7 6.4-19.4 19.4-19.4 13 0 25.5 8.7 27.8 19.4z"/><path class="aO" d="m139.4 124.8l-2.7-12.1h-14.6l2.7 12.1z"/><path class="aO" d="m139.5 124.7l-2.7-12h-14.6l2.7 12z"/><path class="aO" d="m139.5 124.7l-2.7-12.2h-14.5l2.7 12.2z"/><path class="aO" d="m139.6 124.6l-2.7-12.1h-14.5l2.7 12.1z"/><path class="aO" d="m139.6 124.5l-2.7-12.1h-14.5l2.7 12.1z"/><path class="aO" d="m139.7 124.5l-2.7-12.1h-14.5l2.7 12.1z"/><path class="aO" d="m139.7 124.4l-2.6-12.1h-14.6l2.7 12.1z"/><path class="aO" d="m139.9 124.3l-2.7-12h-14.6l2.7 12z"/><path class="aO" d="m139.9 124.3l-2.7-12.2h-14.5l2.6 12.2z"/><path class="aO" d="m140 124.2l-2.7-12.1h-14.6l2.7 12.1z"/><path class="aO" d="m140 124.2l-2.7-12.2h-14.5l2.7 12.2z"/><path class="aO" d="m140.1 124.1l-2.7-12.1h-14.5l2.7 12.1z"/><path class="aO" d="m140.1 124l-2.7-12.1h-14.5l2.7 12.1z"/><path class="aO" d="m140.3 123.9l-2.7-12h-14.6l2.7 12z"/><path class="aO" d="m140.3 123.9l-2.7-12.1h-14.5l2.6 12.1z"/><path class="aO" d="m140.4 123.8l-2.7-12.1h-14.6l2.7 12.1z"/><path class="aO" d="m140.4 123.8l-2.7-12.2h-14.5l2.7 12.2z"/><path class="aO" d="m140.5 123.7l-2.7-12.1h-14.5l2.6 12.1z"/><path class="aO" d="m140.5 123.6l-2.7-12.1h-14.5l2.7 12.1z"/><path class="aO" d="m140.6 123.5l-2.6-12h-14.6l2.7 12z"/><path class="aO" d="m140.7 123.5l-2.7-12.1h-14.5l2.6 12.1z"/><path class="aO" d="m140.8 123.4l-2.7-12.1h-14.6l2.7 12.1z"/><path class="aO" d="m140.8 123.4l-2.7-12.2h-14.5l2.7 12.2z"/><path class="aO" d="m140.9 123.3l-2.7-12.1h-14.6l2.7 12.1z"/><path class="aO" d="m140.9 123.3l-2.7-12.2h-14.5l2.7 12.2z"/><path class="aO" d="m141 123.1l-2.7-12h-14.5l2.7 12z"/><path class="aO" d="m141.1 123.1l-2.7-12.1h-14.5l2.6 12.1z"/><path class="aO" d="m141.2 123l-2.7-12.1h-14.6l2.7 12.1z"/><path class="aO" d="m141.2 123l-2.7-12.1h-14.5l2.7 12.1z"/><path class="aO" d="m141.3 122.9l-2.7-12.1h-14.6l2.7 12.1z"/><path class="aO" d="m141.3 122.9l-2.7-12.2h-14.5l2.7 12.2z"/><path class="aO" d="m141.4 122.8l-2.7-12.1h-14.5l2.6 12.1z"/><path class="aO" d="m141.5 122.7l-2.7-12.1h-14.5l2.6 12.1z"/><path class="aO" d="m141.5 122.6l-2.6-12.1h-14.6l2.7 12.1z"/><path class="aO" d="m141.6 122.6l-2.7-12.1h-14.5l2.7 12.1z"/><path class="aO" d="m141.7 122.5l-2.7-12.1h-14.6l2.7 12.1z"/><path class="aO" d="m141.7 122.5l-2.7-12.1h-14.5l2.7 12.1z"/><path class="aO" d="m141.8 122.4l-2.7-12.1h-14.6l2.7 12.1z"/><path class="aO" d="m141.9 122.3l-2.7-12.1h-14.6l2.7 12.1z"/><path class="aO" d="m141.9 122.2l-2.7-12.1h-14.5l2.7 12.1z"/><path class="aO" d="m142 122.2l-2.7-12.1h-14.5l2.7 12.1z"/><path class="aO" d="m142 122.1l-2.6-12.1h-14.6l2.7 12.1z"/><path class="aO" d="m142.1 122.1l-2.7-12.1h-14.5l2.7 12.1z"/><path class="aO" d="m142.2 122l-2.7-12.1h-14.6l2.7 12.1z"/><path class="aO" d="m142.3 121.9l-2.7-12.1h-14.6l2.7 12.1z"/><path class="aO" d="m142.3 121.9l-2.7-12.2h-14.5l2.7 12.2z"/><path class="aO" d="m142.4 121.8l-2.7-12.1h-14.5l2.7 12.1z"/><path class="aO" d="m142.4 121.7l-2.7-12.1h-14.5l2.7 12.1z"/><path class="aO" d="m142.5 121.7l-2.7-12.1h-14.5l2.7 12.1z"/><path class="aO" d="m142.6 121.6l-2.7-12.1h-14.6l2.7 12.1z"/><path class="aO" d="m142.7 121.5l-2.7-12h-14.6l2.7 12z"/><path class="aO" d="m142.7 121.5l-2.7-12.2h-14.5l2.7 12.2z"/><path class="aO" d="m142.8 121.4l-2.7-12.1h-14.5l2.6 12.1z"/><path class="aO" d="m142.8 121.3l-2.7-12.1h-14.5l2.7 12.1z"/><path class="aO" d="m142.9 121.3l-2.7-12.1h-14.5l2.7 12.1z"/><path class="aO" d="m142.9 121.2l-2.6-12.1h-14.6l2.7 12.1z"/><path class="aO" d="m143.1 121.1l-2.7-12h-14.6l2.7 12z"/><path class="aO" d="m143.1 121.1l-2.7-12.2h-14.5l2.7 12.2z"/><path class="aO" d="m143.2 121l-2.7-12.1h-14.6l2.7 12.1z"/><path class="aO" d="m143.2 121l-2.7-12.2h-14.5l2.7 12.2z"/><path class="aO" d="m143.3 120.9l-2.7-12.1h-14.5l2.7 12.1z"/><path class="aO" d="m143.3 120.8l-2.7-12.1h-14.5l2.7 12.1z"/><path class="aO" d="m143.5 120.7l-2.7-12h-14.6l2.7 12z"/><path class="aO" d="m143.5 120.7l-2.7-12.1h-14.5l2.6 12.1z"/><path class="aO" d="m143.6 120.6l-2.7-12.1h-14.6l2.7 12.1z"/><path class="aO" d="m143.6 120.6l-2.7-12.2h-14.5l2.7 12.2z"/><path class="aO" d="m143.7 120.5l-2.7-12.1h-14.5l2.6 12.1z"/><path class="aO" d="m143.7 120.5l-2.7-12.2h-14.5l2.7 12.2z"/><path class="aO" d="m143.8 120.3l-2.6-12h-14.6l2.7 12z"/><path class="aO" d="m143.9 120.3l-2.7-12.1h-14.5l2.6 12.1z"/><path class="aO" d="m144 120.2l-2.7-12.1h-14.6l2.7 12.1z"/><path class="aO" d="m144 120.2l-2.7-12.1h-14.5l2.7 12.1z"/><path class="aO" d="m144.1 120.1l-2.7-12.1h-14.6l2.7 12.1z"/><path class="aO" d="m144.1 120.1l-2.7-12.2h-14.5l2.7 12.2z"/><path class="aO" d="m144.2 119.9l-2.7-12h-14.5l2.7 12z"/><path class="aO" d="m144.3 119.9l-2.7-12.1h-14.5l2.6 12.1z"/><path class="aO" d="m144.3 119.8l-2.6-12.1h-14.6l2.7 12.1z"/><path class="aO" d="m144.4 119.8l-2.7-12.1h-14.5l2.7 12.1z"/><path class="aO" d="m144.5 119.7l-2.7-12.1h-14.6l2.7 12.1z"/><path class="aO" d="m144.5 119.7l-2.7-12.2h-14.5l2.7 12.2z"/><path class="aO" d="m144.6 119.6l-2.7-12.1h-14.6l2.7 12.1z"/><path class="aO" d="m144.7 119.5l-2.7-12.1h-14.5l2.6 12.1z"/><path class="aO" d="m144.7 119.4l-2.6-12.1h-14.6l2.7 12.1z"/><path class="aO" d="m144.8 119.4l-2.7-12.1h-14.5l2.7 12.1z"/><path class="aO" d="m144.9 119.3l-2.7-12.1h-14.6l2.7 12.1z"/><path class="aO" d="m144.9 119.3l-2.7-12.1h-14.5l2.7 12.1z"/><path class="aO" d="m145 119.2l-2.7-12.1h-14.6l2.7 12.1z"/><path class="aO" d="m145.1 119.1l-2.7-12.1h-14.6l2.7 12.1z"/><path class="aO" d="m145.1 119l-2.7-12.1h-14.5l2.7 12.1z"/><path class="aO" d="m145.2 119l-2.7-12.1h-14.5l2.7 12.1z"/><path class="aO" d="m145.2 118.9l-2.6-12.1h-14.6l2.7 12.1z"/><path class="aO" d="m145.3 118.9l-2.7-12.1h-14.5l2.7 12.1z"/><path class="aO" d="m145.4 118.8l-2.7-12.1h-14.6l2.7 12.1z"/><path class="aO" d="m145.5 118.7l-2.7-12.1h-14.6l2.7 12.1z"/><path class="aO" d="m145.5 118.7l-2.7-12.2h-14.5l2.7 12.2z"/><path class="aO" d="m145.6 118.6l-2.7-12.1h-14.5l2.7 12.1z"/><path class="aO" d="m145.6 118.5l-2.7-12.1h-14.5l2.7 12.1z"/><path class="aO" d="m145.7 118.5l-2.7-12.1h-14.5l2.7 12.1z"/><path class="aO" d="m145.8 118.4l-2.7-12.1h-14.6l2.7 12.1z"/><path class="aO" d="m145.9 118.3l-2.7-12h-14.6l2.7 12z"/><path class="aO" d="m145.9 118.3l-2.7-12.2h-14.5l2.7 12.2z"/><path class="aO" d="m146 118.2l-2.7-12.1h-14.5l2.6 12.1z"/></g></svg>