<svg width="785" height="484" viewBox="0 0 785 484" fill="none" xmlns="http://www.w3.org/2000/svg">
<path d="M784.755 233.772V367.837C784.755 375.507 781.95 382.992 776.895 388.893L760.063 408.571C753.467 416.282 743.723 420.703 733.357 420.703H667.205L582.506 483.088L585.846 420.703H219.939L218.225 471.389L160.682 420.908L139.973 458.003L77.4604 418.009L45.1014 377.892L60.1994 355.706L42.2102 345.363L0 297.494L63.5831 265.993V103.51C63.5831 90.0008 75.019 79.0206 89.0891 79.0206H122.433C127.873 79.0206 133.205 80.7272 137.574 83.8115C141.9 80.7272 147.168 79.0206 152.736 79.0206H187.837C189.828 79.0206 191.734 79.2262 193.597 79.6374C194.989 79.329 196.403 79.1439 197.838 79.0822L228.248 77.2111C229.105 77.1288 229.79 77.1288 230.197 77.1288C236.707 77.1288 242.918 79.4729 247.693 83.7499L247.843 83.8732C252.576 79.8842 258.508 77.7457 264.74 77.7457C265.126 77.7457 265.19 77.7457 295.986 79.0822C301.982 79.2879 307.4 81.4675 311.598 84.9836C316.266 80.1515 322.948 77.1288 330.336 77.1288H397.646C396.682 73.9006 396.168 70.5284 396.168 67.0945V66.601L397.539 35.6137C397.624 26.2785 401.565 17.4162 408.653 10.5895C415.806 3.76288 425.315 0 435.423 0H464.762C470.909 0 476.884 1.43935 482.259 4.133C487.613 1.43935 493.631 0 499.841 0H529.181C549.975 0 566.915 16.1619 567.065 36.1072L568.393 66.3337V66.5804C568.393 76.6353 564.452 85.9295 557.299 92.7767C556.914 93.1468 556.507 93.5169 556.1 93.887C557.428 96.8685 558.156 100.138 558.156 103.51V211.03H761.069C774.133 211.03 784.755 221.229 784.755 233.772Z" fill="white"/>
<path d="M539.539 291.157H218.305V354.9H539.539V291.157Z" fill="#D73004"/>
<path d="M539.539 229.471H218.305V293.214H539.539V229.471Z" fill="#FF3F25"/>
<path d="M539.539 159.56H87.6693V229.471H539.539V159.56Z" fill="#FFA600"/>
<path d="M539.539 161.616H87.6693V97.873H123.417L126.308 107.434H148.943L153.68 97.873H235.346L238.536 137.176H262.202L261.803 97.873H297.334L304.464 107.434H324.739L331.852 97.873H539.539V161.616Z" fill="#FFBF00"/>
<path d="M380.706 117.472L361.882 117.842V178.829L380.706 178.439V117.472Z" fill="black"/>
<path d="M389.701 257.336H367.685V321.099H389.701V257.336Z" fill="black"/>
<path d="M641.956 315.814H620.005C622.189 314.642 639 305.431 641.591 287.562C644.59 266.835 627.2 242.963 606.898 244.237C590.344 245.286 574.496 262.928 575.503 285.526H594.713C594.841 275.327 602.679 268.891 608.119 269.632C613.537 270.331 619.362 278.371 617.135 288.158C615.207 292.168 610.239 301.195 599.81 308.165C589.316 315.156 579.036 316.226 574.625 316.411C574.518 322.353 574.432 328.296 574.325 334.259H641.956V315.814Z" fill="black"/>
<path d="M661.165 334.279C666.476 334.279 670.781 330.146 670.781 325.047C670.781 319.947 666.476 315.814 661.165 315.814C655.854 315.814 651.55 319.947 651.55 325.047C651.55 330.146 655.876 334.279 661.165 334.279Z" fill="black"/>
<path d="M706.138 334.279C729.032 334.279 738.09 309.337 737.962 289.227C737.833 268.953 729.032 244.278 705.046 244.278C678.855 244.278 670.781 268.295 670.781 289.227C670.781 310.16 679.347 334.279 706.138 334.279ZM704.596 270.762C712.756 270.762 715.754 280.9 715.797 289.268C715.84 297.514 712.756 307.795 704.982 307.795C695.88 307.795 692.968 298.09 692.968 289.268C692.968 280.447 695.73 270.762 704.618 270.762H704.596Z" fill="black"/>
<path d="M761.219 223.367H546.163V104.188C546.163 98.3075 542.073 93.3726 536.526 91.851C541.195 90.8434 545.457 88.5199 548.883 85.1888C553.766 80.5212 556.4 74.2291 556.4 67.2586L555.072 37.0527C555.072 23.4405 543.529 12.3369 529.331 12.3369H499.991C493.395 12.3369 487.206 14.6604 482.409 18.9579C477.805 14.8661 471.637 12.3369 464.912 12.3369H435.573C428.72 12.3369 422.252 14.8661 417.391 19.5131C412.508 24.2013 409.831 30.3083 409.831 36.5592L408.461 67.7726C408.461 77.0873 413.879 85.271 421.824 89.4657H330.486C323.355 89.4657 317.508 94.8119 317.166 101.597C317.166 102.276 316.588 102.831 315.902 102.831H308.343V104.188C308.343 97.2999 302.753 91.6453 295.6 91.3986C295.6 91.3986 265.062 90.0826 264.89 90.0826C261.464 90.0826 258.123 91.3575 255.617 93.6399C252.983 96.0868 251.527 99.5001 251.527 102.996L251.784 133.88H243.175L243.71 102.44C243.753 98.9038 242.254 95.4493 239.577 92.9613C237.071 90.72 233.773 89.4657 230.347 89.4657C230.047 89.4657 229.769 89.4657 229.469 89.5069L198.587 91.3986C196.874 91.4808 195.204 91.8921 193.747 92.6118C191.991 91.7687 190.064 91.3575 187.987 91.3575H152.886C148.325 91.3575 144.063 93.5987 141.6 97.2999L135.797 106.162L135.882 104.887C136.075 101.392 134.747 97.9374 132.285 95.3671C129.736 92.7968 126.224 91.3575 122.583 91.3575H89.239C81.8935 91.3575 75.8757 97.1149 75.8757 104.188V273.765L19.2741 301.812L50.3268 337.035L77.4176 352.6L60.1352 377.995L85.9839 410.051L135.732 441.861L157.512 402.875L207.089 446.384L208.331 409.722H598.782L596.126 459.154L663.243 409.722H733.508C740.232 409.722 746.571 406.823 750.833 401.847L767.665 382.169C770.963 378.324 772.762 373.491 772.762 368.515V234.45C772.762 228.322 767.601 223.367 761.219 223.367ZM187.687 402.875L143.656 357.288C143.228 357.885 116.694 398.927 115.666 399.647L81.6151 373.635L109.477 330.64L53.9246 302.326L187.687 239.837V402.875ZM188.051 215.759H151.901V160.919L117.015 215.759L89.2176 217.692V104.147H122.583L119.542 155.141L152.908 104.147H188.051V215.759ZM486.114 59.0954L487.056 37.0732C487.056 36.333 487.12 35.6545 487.249 34.9553C488.277 29.1157 493.588 24.6331 499.991 24.6331H529.331C535.67 24.6331 540.917 29.0334 542.052 34.7703C542.18 35.5311 542.266 36.2713 542.266 37.0732L543.208 59.0748L543.594 67.7932C543.594 68.4717 543.551 69.0886 543.422 69.726C543.358 70.2401 543.251 70.713 543.101 71.1448C541.602 76.4087 536.591 80.2333 530.658 80.2333H498.663C492.731 80.2333 487.72 76.4087 486.2 71.1448C486.071 70.713 485.964 70.2401 485.9 69.726C485.771 69.0886 485.728 68.4717 485.728 67.7932L486.114 59.0954ZM421.781 71.1448C421.631 70.713 421.524 70.2401 421.46 69.7466C421.353 69.1297 421.289 68.4717 421.289 67.7932L421.674 59.0954L422.638 37.0732C422.638 36.333 422.702 35.6545 422.831 34.9553C423.859 29.1157 429.17 24.6331 435.552 24.6331H464.891C471.316 24.6331 476.627 29.1157 477.633 35.017C477.762 35.675 477.826 36.3536 477.826 37.0732L478.79 59.0748L479.175 67.7932C479.175 68.4717 479.111 69.1297 479.004 69.7466C478.94 70.199 478.833 70.6719 478.704 71.1037C477.205 76.3676 472.194 80.2333 466.24 80.2333H434.224C428.292 80.2333 423.28 76.4087 421.781 71.1448ZM305.087 183.99H315.881C323.955 183.99 330.508 177.698 330.508 169.946V102.235H412.551V182.962H424.437V217.692H392.934V197.787L347.683 196.759L346.612 215.471H305.087V183.99ZM199.508 215.471V104.147L230.368 102.235L229.64 146.67H265.276L264.912 102.852L295.022 104.147V215.471H264.526V169.617L231.096 169.967V215.471H199.508ZM314.168 347.131H275.084L249.792 325.006L249.471 347.131H221.459V233.586H250.242V279.07L283.458 233.586H320.271L266.261 294.163L314.168 347.131ZM427.264 347.131H329.587L331.728 233.586H427.264V347.131ZM532.843 346.966H502.347V301.113L468.917 301.462V346.966H437.308V235.642L468.168 233.73L467.439 278.186H503.075L502.711 234.368L532.843 235.642V346.966ZM532.843 215.759H496.693V150.721L461.807 215.759L434.01 217.692V104.147H467.375L464.334 155.141L497.7 104.147H532.843V215.759ZM758.435 347.11H550.211V236.218H758.435V347.11Z" fill="black"/>
<path d="M465.769 52.9188C465.769 53.9264 464.912 54.7489 463.863 54.7489H434.502C433.453 54.7489 432.596 53.9264 432.596 52.9188C432.596 51.9113 433.453 51.1094 434.502 51.1094H463.842C464.891 51.1094 465.748 51.9319 465.748 52.9188H465.769Z" fill="black"/>
<path d="M530.98 66.2431C530.594 66.5927 530.123 66.7572 529.652 66.7572C529.181 66.7572 528.667 66.5721 528.303 66.202L517.509 55.5302L514.875 52.9394L503.974 42.1853C503.225 41.4451 503.246 40.3142 503.996 39.615C504.767 38.8954 505.945 38.9159 506.673 39.6562L517.509 50.328L520.122 52.9394L531.022 63.6728C531.772 64.4131 531.751 65.544 531.001 66.2431H530.98Z" fill="black"/>
<path d="M531.001 42.1648L520.101 52.9188L517.488 55.5097L506.651 66.1815C506.287 66.5516 505.795 66.7366 505.302 66.7366C504.81 66.7366 504.36 66.5721 503.975 66.2226C503.225 65.5235 503.204 64.3926 503.953 63.6523L514.854 52.9188L517.488 50.3074L528.303 39.6357C529.031 38.8954 530.209 38.8749 530.98 39.5945C531.729 40.2936 531.751 41.4246 531.001 42.1648Z" fill="black"/>
</svg>
