<svg version="1.2" xmlns="http://www.w3.org/2000/svg" viewBox="0 0 507 241" width="507" height="241">
	<defs>
		<clipPath clipPathUnits="userSpaceOnUse" id="cp1">
			<path d="m477.95-116.26l84.14 344.12-533.05 130.33-84.14-344.11zm-462.46 131.74l0.01 153.73 146.33-0.01 0.01 41.42 2.37-1.82 51.71-39.61 252.81-0.02 22.72-27.63-0.01-126.09z"/>
		</clipPath>
	</defs>
	<style>
		.s0 { fill: #000000 } 
		.s1 { fill: #ffffff } 
	</style>
	<path class="s0" d="m491.44 15.45l0.01 126.1-22.73 27.62-252.81 0.03-51.7 39.6-2.38 1.82v-41.42l-146.33 0.01-0.01-153.72z"/>
	<g id="Clip-Path" clip-path="url(#cp1)">
		<path class="s1" d="m491.44 15.45h14.78v-14.78h-14.78zm0.01 126.09l11.41 9.39 3.37-4.09v-5.3zm-22.72 27.63v14.78h6.98l4.43-5.39zm-252.81 0.02v-14.78h-5.01l-3.98 3.05zm0 0l-8.99-11.73-51.7 39.6 8.99 11.74 8.99 11.73 51.7-39.61zm-54.08 41.43h-14.78v29.94l23.77-18.2zm-0.01-41.43h14.79v-14.78h-14.79zm-146.33 0.01h-14.78v14.78h14.78zm-0.01-153.72v-14.78h-14.78v14.78zm475.95-0.04h-14.78l0.01 126.1h14.78 14.78l-0.01-126.1zm0.01 126.1l-11.41-9.39-22.73 27.63 11.42 9.38 11.42 9.39 22.72-27.62zm-22.72 27.62l-0.01-14.78-252.81 0.02v14.79l0.01 14.78 252.81-0.02zm-304.52 39.63l8.99 11.73zm0 0l-8.99-11.74-2.37 1.83 8.99 11.73 8.98 11.73 2.38-1.82zm-2.38 1.82h14.78v-41.42h-14.78-14.78v41.42zm0-41.42v-14.78l-146.34 0.01 0.01 14.78v14.78l146.33-0.01zm-146.33 0.01h14.78l-0.01-153.72h-14.79-14.78l0.02 153.72zm-0.02-153.72v14.78l475.96-0.04v-14.78-14.78l-475.96 0.04z"/>
	</g>
	<path class="s1" d="m475.51 28.57l-444.46 0.03 0.01 100.07 444.46-0.03z"/>
</svg>