<svg width="182" height="178" viewBox="0 0 182 178" fill="none" xmlns="http://www.w3.org/2000/svg">
<path d="M13.9722 174.101H136.787L176.993 92.0996H54.2248L13.9722 174.101Z" fill="#F9B017" stroke="black" stroke-width="6.17113" stroke-miterlimit="10"/>
<path d="M13.8787 173.821H136.693L176.899 91.8193H54.1312L13.8787 173.821Z" fill="#F9AF17" stroke="black" stroke-width="6.17113" stroke-miterlimit="10"/>
<path d="M13.8322 173.539H136.6L176.806 91.5381H54.038L13.8322 173.539Z" fill="#F9AE18" stroke="black" stroke-width="6.17113" stroke-miterlimit="10"/>
<path d="M13.7386 173.306H136.507L176.712 91.2578H53.9444L13.7386 173.306Z" fill="#F8AD18" stroke="black" stroke-width="6.17113" stroke-miterlimit="10"/>
<path d="M13.645 173.025H136.413L176.619 90.9775H53.8508L13.645 173.025Z" fill="#F8AC19" stroke="black" stroke-width="6.17113" stroke-miterlimit="10"/>
<path d="M13.5516 172.745H136.32L176.525 90.6973H53.7575L13.5516 172.745Z" fill="#F8AB19" stroke="black" stroke-width="6.17113" stroke-miterlimit="10"/>
<path d="M13.458 172.464H136.226L176.432 90.416H53.6639L13.458 172.464Z" fill="#F8AA1A" stroke="black" stroke-width="6.17113" stroke-miterlimit="10"/>
<path d="M13.3645 172.184H136.133L176.338 90.1357H53.5703L13.3645 172.184Z" fill="#F8A91A" stroke="black" stroke-width="6.17113" stroke-miterlimit="10"/>
<path d="M13.2711 171.903H136.039L176.245 89.8555H53.477L13.2711 171.903Z" fill="#F7A81B" stroke="black" stroke-width="6.17113" stroke-miterlimit="10"/>
<path d="M13.1776 171.623H135.946L176.151 89.5752H53.3834L13.1776 171.623Z" fill="#F7A61B" stroke="black" stroke-width="6.17113" stroke-miterlimit="10"/>
<path d="M13.084 171.343H135.852L176.105 89.2949H53.2898L13.084 171.343Z" fill="#F7A51C" stroke="black" stroke-width="6.17113" stroke-miterlimit="10"/>
<path d="M12.9904 171.062H135.758L176.011 89.0605H53.1962L12.9904 171.062Z" fill="#F7A41C" stroke="black" stroke-width="6.17113" stroke-miterlimit="10"/>
<path d="M12.8971 170.781H135.712L175.918 88.7803H53.1496L12.8971 170.781Z" fill="#F6A31D" stroke="black" stroke-width="6.17113" stroke-miterlimit="10"/>
<path d="M12.8035 170.5H135.618L175.824 88.499H53.056L12.8035 170.5Z" fill="#F6A21D" stroke="black" stroke-width="6.17113" stroke-miterlimit="10"/>
<path d="M12.7567 170.22H135.525L175.731 88.2188H52.9625L12.7567 170.22Z" fill="#F6A11E" stroke="black" stroke-width="6.17113" stroke-miterlimit="10"/>
<path d="M12.6634 169.94H135.431L175.637 87.9385H52.8692L12.6634 169.94Z" fill="#F6A01E" stroke="black" stroke-width="6.17113" stroke-miterlimit="10"/>
<path d="M12.5698 169.659H135.338L175.544 87.6582H52.7756L12.5698 169.659Z" fill="#F69F1E" stroke="black" stroke-width="6.17113" stroke-miterlimit="10"/>
<path d="M12.4762 169.379H135.244L175.45 87.3779H52.682L12.4762 169.379Z" fill="#F59E1F" stroke="black" stroke-width="6.17113" stroke-miterlimit="10"/>
<path d="M12.3829 169.098H135.151L175.357 87.0967H52.5887L12.3829 169.098Z" fill="#F59D1F" stroke="black" stroke-width="6.17113" stroke-miterlimit="10"/>
<path d="M12.2893 168.818H135.057L175.263 86.8164H52.4951L12.2893 168.818Z" fill="#F59C1F" stroke="black" stroke-width="6.17113" stroke-miterlimit="10"/>
<path d="M12.1957 168.537H134.964L175.17 86.5361H52.4015L12.1957 168.537Z" fill="#F59B20" stroke="black" stroke-width="6.17113" stroke-miterlimit="10"/>
<path d="M12.1024 168.304H134.87L175.076 86.2559H52.3082L12.1024 168.304Z" fill="#F59920" stroke="black" stroke-width="6.17113" stroke-miterlimit="10"/>
<path d="M12.0088 168.023H134.777L175.029 85.9746H52.2146L12.0088 168.023Z" fill="#F49820" stroke="black" stroke-width="6.17113" stroke-miterlimit="10"/>
<path d="M11.9152 167.742H134.683L174.936 85.6943H52.121L11.9152 167.742Z" fill="#F49721" stroke="black" stroke-width="6.17113" stroke-miterlimit="10"/>
<path d="M11.8216 167.462H134.636L174.842 85.4141H52.0742L11.8216 167.462Z" fill="#F49621" stroke="black" stroke-width="6.17113" stroke-miterlimit="10"/>
<path d="M11.7283 167.182H134.543L174.749 85.1338H51.9809L11.7283 167.182Z" fill="#F49521" stroke="black" stroke-width="6.17113" stroke-miterlimit="10"/>
<path d="M11.6815 166.901H134.45L174.655 84.8535H51.8873L11.6815 166.901Z" fill="#F39422" stroke="black" stroke-width="6.17113" stroke-miterlimit="10"/>
<path d="M11.5879 166.62H134.356L174.562 84.5723H51.7937L11.5879 166.62Z" fill="#F39322" stroke="black" stroke-width="6.17113" stroke-miterlimit="10"/>
<path d="M11.4946 166.34H134.263L174.468 84.3389H51.7004L11.4946 166.34Z" fill="#F39222" stroke="black" stroke-width="6.17113" stroke-miterlimit="10"/>
<path d="M11.401 166.06H134.169L174.375 84.0586H51.6068L11.401 166.06Z" fill="#F39022" stroke="black" stroke-width="6.17113" stroke-miterlimit="10"/>
<path d="M11.3074 165.779H134.075L174.281 83.7773H51.5132L11.3074 165.779Z" fill="#F38F23" stroke="black" stroke-width="6.17113" stroke-miterlimit="10"/>
<path d="M11.2141 165.498H133.982L174.188 83.4971H51.4199L11.2141 165.498Z" fill="#F28E23" stroke="black" stroke-width="6.17113" stroke-miterlimit="10"/>
<path d="M11.1205 165.218H133.889L174.094 83.2168H51.3263L11.1205 165.218Z" fill="#F28D23" stroke="black" stroke-width="6.17113" stroke-miterlimit="10"/>
<path d="M11.0269 164.938H133.795L174.048 82.9365H51.2327L11.0269 164.938Z" fill="#F28C23" stroke="black" stroke-width="6.17113" stroke-miterlimit="10"/>
<path d="M10.9336 164.656H133.702L173.954 82.6553H51.1394L10.9336 164.656Z" fill="#F28B24" stroke="black" stroke-width="6.17113" stroke-miterlimit="10"/>
<path d="M10.84 164.376H133.655L173.861 82.375H51.0458L10.84 164.376Z" fill="#F28924" stroke="black" stroke-width="6.17113" stroke-miterlimit="10"/>
<path d="M10.7464 164.096H133.561L173.767 82.0947H50.999L10.7464 164.096Z" fill="#F18824" stroke="black" stroke-width="6.17113" stroke-miterlimit="10"/>
<path d="M10.6528 163.816H133.468L173.673 81.8145H50.9054L10.6528 163.816Z" fill="#F18724" stroke="black" stroke-width="6.17113" stroke-miterlimit="10"/>
<path d="M10.6063 163.581H133.374L173.58 81.5332H50.8122L10.6063 163.581Z" fill="#F18625" stroke="black" stroke-width="6.17113" stroke-miterlimit="10"/>
<path d="M10.5127 163.301H133.281L173.487 81.2529H50.7186L10.5127 163.301Z" fill="#F18525" stroke="black" stroke-width="6.17113" stroke-miterlimit="10"/>
<path d="M10.4191 163.021H133.187L173.393 80.9727H50.625L10.4191 163.021Z" fill="#F18425" stroke="black" stroke-width="6.17113" stroke-miterlimit="10"/>
<path d="M10.3258 162.74H133.094L173.3 80.6924H50.5316L10.3258 162.74Z" fill="#F08325" stroke="black" stroke-width="6.17113" stroke-miterlimit="10"/>
<path d="M10.2322 162.46H133L173.206 80.4121H50.4381L10.2322 162.46Z" fill="#F08225" stroke="black" stroke-width="6.17113" stroke-miterlimit="10"/>
<path d="M10.1386 162.179H132.907L173.113 80.1309H50.3445L10.1386 162.179Z" fill="#F08025" stroke="black" stroke-width="6.17113" stroke-miterlimit="10"/>
<path d="M10.0453 161.899H132.813L173.019 79.8506H50.2512L10.0453 161.899Z" fill="#F07F26" stroke="black" stroke-width="6.17113" stroke-miterlimit="10"/>
<path d="M9.95172 161.618H132.72L172.972 79.5703H50.1575L9.95172 161.618Z" fill="#F07E26" stroke="black" stroke-width="6.17113" stroke-miterlimit="10"/>
<path d="M9.85812 161.338H132.626L172.879 79.3369H50.064L9.85812 161.338Z" fill="#EF7D26" stroke="black" stroke-width="6.17113" stroke-miterlimit="10"/>
<path d="M9.76483 161.057H132.58L172.785 79.0557H49.9707L9.76483 161.057Z" fill="#EF7C26" stroke="black" stroke-width="6.17113" stroke-miterlimit="10"/>
<path d="M9.67123 160.777H132.486L172.692 78.7754H49.9238L9.67123 160.777Z" fill="#EF7A26" stroke="black" stroke-width="6.17113" stroke-miterlimit="10"/>
<path d="M9.57764 160.496H132.392L172.598 78.4951H49.8302L9.57764 160.496Z" fill="#EF7926" stroke="black" stroke-width="6.17113" stroke-miterlimit="10"/>
<path d="M9.53085 160.216H132.299L172.505 78.2148H49.7367L9.53085 160.216Z" fill="#EF7826" stroke="black" stroke-width="6.17113" stroke-miterlimit="10"/>
<path d="M9.43753 159.935H132.206L172.411 77.9336H49.6434L9.43753 159.935Z" fill="#EE7727" stroke="black" stroke-width="6.17113" stroke-miterlimit="10"/>
<path d="M9.34393 159.655H132.112L172.318 77.6533H49.5498L9.34393 159.655Z" fill="#EE7627" stroke="black" stroke-width="6.17113" stroke-miterlimit="10"/>
<path d="M9.25037 159.374H132.018L172.224 77.373H49.4562L9.25037 159.374Z" fill="#EE7427" stroke="black" stroke-width="6.17113" stroke-miterlimit="10"/>
<path d="M9.15704 159.093H131.925L172.131 77.0918H49.3629L9.15704 159.093Z" fill="#EE7327" stroke="black" stroke-width="6.17113" stroke-miterlimit="10"/>
<path d="M9.06345 158.813H131.831L172.037 76.8115H49.2693L9.06345 158.813Z" fill="#EE7227" stroke="black" stroke-width="6.17113" stroke-miterlimit="10"/>
<path d="M8.96985 158.579H131.738L171.944 76.5312H49.1757L8.96985 158.579Z" fill="#EE7127" stroke="black" stroke-width="6.17113" stroke-miterlimit="10"/>
<path d="M8.87656 158.299H131.645L171.897 76.251H49.0824L8.87656 158.299Z" fill="#ED7027" stroke="black" stroke-width="6.17113" stroke-miterlimit="10"/>
<path d="M8.78296 158.019H131.551L171.804 75.9707H48.9888L8.78296 158.019Z" fill="#ED6E27" stroke="black" stroke-width="6.17113" stroke-miterlimit="10"/>
<path d="M8.68936 157.737H131.504L171.71 75.6895H48.9419L8.68936 157.737Z" fill="#ED6D27" stroke="black" stroke-width="6.17113" stroke-miterlimit="10"/>
<path d="M8.59607 157.457H131.411L171.617 75.4092H48.8486L8.59607 157.457Z" fill="#ED6C28" stroke="black" stroke-width="6.17113" stroke-miterlimit="10"/>
<path d="M8.54926 157.177H131.317L171.523 75.1289H48.7551L8.54926 157.177Z" fill="#ED6A28" stroke="black" stroke-width="6.17113" stroke-miterlimit="10"/>
<path d="M8.45566 156.897H131.224L171.43 74.8486H48.6615L8.45566 156.897Z" fill="#ED6928" stroke="black" stroke-width="6.17113" stroke-miterlimit="10"/>
<path d="M8.36206 156.615H131.13L171.336 74.6143H48.5679L8.36206 156.615Z" fill="#EC6828" stroke="black" stroke-width="6.17113" stroke-miterlimit="10"/>
<path d="M8.26877 156.335H131.037L171.243 74.334H48.4746L8.26877 156.335Z" fill="#EC6728" stroke="black" stroke-width="6.17113" stroke-miterlimit="10"/>
<path d="M8.17517 156.055H130.943L171.149 74.0537H48.381L8.17517 156.055Z" fill="#EC6528" stroke="black" stroke-width="6.17113" stroke-miterlimit="10"/>
<path d="M8.08157 155.775H130.85L171.055 73.7734H48.2874L8.08157 155.775Z" fill="#EC6428" stroke="black" stroke-width="6.17113" stroke-miterlimit="10"/>
<path d="M7.98828 155.493H130.756L170.962 73.4922H48.1941L7.98828 155.493Z" fill="#EC6328" stroke="black" stroke-width="6.17113" stroke-miterlimit="10"/>
<path d="M7.89468 155.213H130.663L170.869 73.2119H48.1005L7.89468 155.213Z" fill="#EC6228" stroke="black" stroke-width="6.17113" stroke-miterlimit="10"/>
<path d="M7.80109 154.933H130.569L170.822 72.9316H48.0069L7.80109 154.933Z" fill="#EB6028" stroke="black" stroke-width="6.17113" stroke-miterlimit="10"/>
<path d="M7.70776 154.653H130.476L170.728 72.6514H47.9136L7.70776 154.653Z" fill="#EB5F28" stroke="black" stroke-width="6.17113" stroke-miterlimit="10"/>
<path d="M7.6142 154.372H130.429L170.635 72.3711H47.8668L7.6142 154.372Z" fill="#EB5E28" stroke="black" stroke-width="6.17113" stroke-miterlimit="10"/>
<path d="M7.5206 154.091H130.335L170.541 72.0898H47.7732L7.5206 154.091Z" fill="#EB5D28" stroke="black" stroke-width="6.17113" stroke-miterlimit="10"/>
<path d="M7.47379 153.858H130.242L170.448 71.8096H47.6796L7.47379 153.858Z" fill="#EB5B28" stroke="black" stroke-width="6.17113" stroke-miterlimit="10"/>
<path d="M7.38049 153.577H130.149L170.354 71.5293H47.5863L7.38049 153.577Z" fill="#EA5A28" stroke="black" stroke-width="6.17113" stroke-miterlimit="10"/>
<path d="M7.2869 153.296H130.055L170.261 71.248H47.4927L7.2869 153.296Z" fill="#EA5928" stroke="black" stroke-width="6.17113" stroke-miterlimit="10"/>
<path d="M7.1933 153.016H129.961L170.167 70.9678H47.3991L7.1933 153.016Z" fill="#EA5728" stroke="black" stroke-width="6.17113" stroke-miterlimit="10"/>
<path d="M7.09998 152.735H129.868L170.074 70.6875H47.3058L7.09998 152.735Z" fill="#EA5628" stroke="black" stroke-width="6.17113" stroke-miterlimit="10"/>
<path d="M7.00641 152.455H129.774L169.98 70.4072H47.2122L7.00641 152.455Z" fill="#EA5428" stroke="black" stroke-width="6.17113" stroke-miterlimit="10"/>
<path d="M6.91281 152.174H129.681L169.887 70.126H47.1186L6.91281 152.174Z" fill="#EA5328" stroke="black" stroke-width="6.17113" stroke-miterlimit="10"/>
<path d="M6.81949 151.894H129.588L169.793 69.8457H47.0253L6.81949 151.894Z" fill="#E95128" stroke="black" stroke-width="6.17113" stroke-miterlimit="10"/>
<path d="M6.72589 151.614H129.494L169.747 69.6123H46.9317L6.72589 151.614Z" fill="#E95028" stroke="black" stroke-width="6.17113" stroke-miterlimit="10"/>
<path d="M6.63229 151.333H129.4L169.653 69.332H46.8381L6.63229 151.333Z" fill="#E94F28" stroke="black" stroke-width="6.17113" stroke-miterlimit="10"/>
<path d="M6.539 151.052H129.354L169.56 69.0508H46.7916L6.539 151.052Z" fill="#E94D28" stroke="black" stroke-width="6.17113" stroke-miterlimit="10"/>
<path d="M6.4454 150.772H129.26L169.466 68.7705H46.698L6.4454 150.772Z" fill="#E94C28" stroke="black" stroke-width="6.17113" stroke-miterlimit="10"/>
<path d="M6.39862 150.491H129.167L169.372 68.4902H46.6045L6.39862 150.491Z" fill="#E94A28" stroke="black" stroke-width="6.17113" stroke-miterlimit="10"/>
<path d="M6.30502 150.211H129.073L169.279 68.21H46.5109L6.30502 150.211Z" fill="#E84928" stroke="black" stroke-width="6.17113" stroke-miterlimit="10"/>
<path d="M6.2117 149.931H128.98L169.186 67.9297H46.4175L6.2117 149.931Z" fill="#E84728" stroke="black" stroke-width="6.17113" stroke-miterlimit="10"/>
<path d="M6.1181 149.65H128.886L169.092 67.6484H46.3239L6.1181 149.65Z" fill="#E84628" stroke="black" stroke-width="6.17113" stroke-miterlimit="10"/>
<path d="M6.02454 149.369H128.793L168.998 67.3682H46.2304L6.02454 149.369Z" fill="#E84428" stroke="black" stroke-width="6.17113" stroke-miterlimit="10"/>
<path d="M5.93121 149.089H128.699L168.905 67.0879H46.1371L5.93121 149.089Z" fill="#E84328" stroke="black" stroke-width="6.17113" stroke-miterlimit="10"/>
<path d="M5.83762 148.856H128.606L168.811 66.8076H46.0435L5.83762 148.856Z" fill="#E84128" stroke="black" stroke-width="6.17113" stroke-miterlimit="10"/>
<path d="M5.74402 148.574H128.512L168.718 66.5264H45.9499L5.74402 148.574Z" fill="#E84028" stroke="black" stroke-width="6.17113" stroke-miterlimit="10"/>
<path d="M5.65073 148.294H128.419L168.671 66.2461H45.8566L5.65073 148.294Z" fill="#E73E28" stroke="black" stroke-width="6.17113" stroke-miterlimit="10"/>
<path d="M5.55713 148.014H128.325L168.578 65.9658H45.763L5.55713 148.014Z" fill="#E73D28" stroke="black" stroke-width="6.17113" stroke-miterlimit="10"/>
<path d="M5.46353 147.733H128.278L168.484 65.6846H45.7161L5.46353 147.733Z" fill="#E73B28" stroke="black" stroke-width="6.17113" stroke-miterlimit="10"/>
<path d="M5.37024 147.452H128.185L168.391 65.4043H45.6228L5.37024 147.452Z" fill="#E73A28" stroke="black" stroke-width="6.17113" stroke-miterlimit="10"/>
<path d="M5.32343 147.172H128.091L168.297 65.124H45.5293L5.32343 147.172Z" fill="#E73928" stroke="black" stroke-width="6.17113" stroke-miterlimit="10"/>
<path d="M5.22983 146.892H127.998L168.204 64.8906H45.4357L5.22983 146.892Z" fill="#E73728" stroke="black" stroke-width="6.17113" stroke-miterlimit="10"/>
<path d="M5.13623 146.611H127.904L168.11 64.6094H45.3421L5.13623 146.611Z" fill="#E73628" stroke="black" stroke-width="6.17113" stroke-miterlimit="10"/>
<path d="M5.04294 146.33H127.811L168.017 64.3291H45.2488L5.04294 146.33Z" fill="#E63428" stroke="black" stroke-width="6.17113" stroke-miterlimit="10"/>
<path d="M4.94937 146.05H127.717L167.923 64.0488H45.1552L4.94937 146.05Z" fill="#E63328" stroke="black" stroke-width="6.17113" stroke-miterlimit="10"/>
<path d="M74.8889 19.028C74.8889 27.8639 81.9951 35.0168 90.831 35.0168C91.0647 35.0168 91.2518 35.0168 91.4855 34.9701L115.235 108.603L122.061 92.4738L102.051 30.3885C104.997 27.4899 106.773 23.4694 106.773 19.028C106.773 10.2388 99.6669 3.08594 90.831 3.08594C81.9951 3.08594 74.8889 10.2388 74.8889 19.028Z" fill="#F9B017" stroke="black" stroke-width="6.17113" stroke-miterlimit="10"/>
<path d="M43.5189 101.73C41.4151 111.407 49.2692 119.215 61.0037 119.215C72.7382 119.215 84.0052 111.407 86.109 101.73C88.2128 92.0525 80.3586 84.2451 68.6241 84.2451C56.8896 84.2451 45.6227 92.0525 43.5189 101.73Z" fill="#3F2612" stroke="black" stroke-width="4.6751" stroke-miterlimit="10"/>
<path d="M43.472 101.637C41.3683 111.315 49.2224 119.122 60.9569 119.122C72.6914 119.122 83.9584 111.315 86.0622 101.637C88.166 91.9598 80.3118 84.1523 68.5773 84.1523C56.8428 84.1523 45.5758 91.9598 43.472 101.637Z" fill="#412713" stroke="black" stroke-width="4.6751" stroke-miterlimit="10"/>
<path d="M43.4255 101.543C41.3217 111.221 49.1759 119.028 60.9104 119.028C72.6449 119.028 83.9119 111.221 86.0157 101.543C88.1195 91.866 80.2653 84.0586 68.5308 84.0586C56.7963 84.0586 45.5293 91.866 43.4255 101.543Z" fill="#432814" stroke="black" stroke-width="4.6751" stroke-miterlimit="10"/>
<path d="M43.3788 101.45C41.275 111.127 49.1291 118.935 60.8636 118.935C72.5981 118.935 83.8651 111.127 85.9689 101.45C88.0727 91.7723 80.2185 83.9648 68.484 83.9648C56.7495 83.9648 45.4825 91.7723 43.3788 101.45Z" fill="#452A14" stroke="black" stroke-width="4.6751" stroke-miterlimit="10"/>
<path d="M43.3319 101.356C41.2281 111.033 49.0823 118.841 60.8168 118.841C72.5513 118.841 83.8183 111.033 85.9221 101.356C88.0259 91.6785 80.1717 83.8711 68.4372 83.8711C56.7027 83.8711 45.4357 91.6785 43.3319 101.356Z" fill="#472B15" stroke="black" stroke-width="4.6751" stroke-miterlimit="10"/>
<path d="M43.2852 101.263C41.1814 110.941 49.0355 118.748 60.77 118.748C72.5045 118.748 83.7715 110.941 85.8753 101.263C87.9791 91.5857 80.1249 83.7783 68.3904 83.7783C56.6559 83.7783 45.389 91.5857 43.2852 101.263Z" fill="#482C16" stroke="black" stroke-width="4.6751" stroke-miterlimit="10"/>
<path d="M43.2384 101.169C41.1346 110.847 48.9887 118.654 60.7232 118.654C72.4577 118.654 83.7247 110.847 85.8285 101.169C87.9323 91.492 80.0781 83.6846 68.3436 83.6846C56.6092 83.6846 45.3422 91.492 43.2384 101.169Z" fill="#4A2E16" stroke="black" stroke-width="4.6751" stroke-miterlimit="10"/>
<path d="M43.1916 101.076C41.0878 110.753 48.9419 118.561 60.6764 118.561C72.4109 118.561 83.6779 110.753 85.7817 101.076C87.8855 91.3982 80.0313 83.5908 68.2968 83.5908C56.5623 83.5908 45.2954 91.3982 43.1916 101.076Z" fill="#4C2F17" stroke="black" stroke-width="4.6751" stroke-miterlimit="10"/>
<path d="M43.0983 100.982C40.9945 110.659 48.8486 118.467 60.5831 118.467C72.3176 118.467 83.5846 110.659 85.6884 100.982C87.7922 91.3045 79.938 83.4971 68.2035 83.4971C56.469 83.4971 45.2021 91.3045 43.0983 100.982Z" fill="#4E3018" stroke="black" stroke-width="4.6751" stroke-miterlimit="10"/>
<path d="M43.0515 100.889C40.9477 110.567 48.8018 118.374 60.5363 118.374C72.2708 118.374 83.5378 110.567 85.6416 100.889C87.7454 91.2117 79.8912 83.4043 68.1567 83.4043C56.4222 83.4043 45.1552 91.2117 43.0515 100.889Z" fill="#503218" stroke="black" stroke-width="4.6751" stroke-miterlimit="10"/>
<path d="M43.0047 100.795C40.9009 110.473 48.755 118.28 60.4895 118.28C72.224 118.28 83.491 110.473 85.5948 100.795C87.6986 91.118 79.8444 83.3105 68.1099 83.3105C56.3754 83.3105 45.1085 91.118 43.0047 100.795Z" fill="#523319" stroke="black" stroke-width="4.6751" stroke-miterlimit="10"/>
<path d="M42.9579 100.702C40.8541 110.379 48.7082 118.187 60.4427 118.187C72.1772 118.187 83.4442 110.379 85.548 100.702C87.6518 91.0242 79.7976 83.2168 68.0631 83.2168C56.3286 83.2168 45.0616 91.0242 42.9579 100.702Z" fill="#543419" stroke="black" stroke-width="4.6751" stroke-miterlimit="10"/>
<path d="M42.9111 100.609C40.8073 110.286 48.6614 118.094 60.3959 118.094C72.1304 118.094 83.3974 110.286 85.5012 100.609C87.605 90.9314 79.7508 83.124 68.0163 83.124C56.2818 83.124 45.0149 90.9314 42.9111 100.609Z" fill="#56361A" stroke="black" stroke-width="4.6751" stroke-miterlimit="10"/>
<path d="M42.8643 100.515C40.7605 110.193 48.6146 118 60.3491 118C72.0836 118 83.3506 110.193 85.4544 100.515C87.5582 90.8377 79.704 83.0303 67.9695 83.0303C56.235 83.0303 44.9681 90.8377 42.8643 100.515Z" fill="#57371A" stroke="black" stroke-width="4.6751" stroke-miterlimit="10"/>
<path d="M42.8177 100.421C40.714 110.099 48.5681 117.906 60.3026 117.906C72.0371 117.906 83.3041 110.099 85.4079 100.421C87.5117 90.7439 79.6575 82.9365 67.923 82.9365C56.1885 82.9365 44.9215 90.7439 42.8177 100.421Z" fill="#59391B" stroke="black" stroke-width="4.6751" stroke-miterlimit="10"/>
<path d="M42.771 100.328C40.6672 110.005 48.5213 117.813 60.2558 117.813C71.9903 117.813 83.2573 110.005 85.3611 100.328C87.4649 90.6502 79.6107 82.8428 67.8762 82.8428C56.1417 82.8428 44.8748 90.6502 42.771 100.328Z" fill="#5B3A1B" stroke="black" stroke-width="4.6751" stroke-miterlimit="10"/>
<path d="M42.7242 100.188C40.6204 109.865 48.4746 117.673 60.209 117.673C71.9435 117.673 83.2105 109.865 85.3143 100.188C87.4181 90.5105 79.5639 82.7031 67.8295 82.7031C56.095 82.7031 44.828 90.5105 42.7242 100.188Z" fill="#5D3B1C" stroke="black" stroke-width="4.6751" stroke-miterlimit="10"/>
<path d="M42.6774 100.094C40.5736 109.772 48.4277 117.579 60.1622 117.579C71.8967 117.579 83.1637 109.772 85.2675 100.094C87.3713 90.4168 79.5171 82.6094 67.7826 82.6094C56.0481 82.6094 44.7812 90.4168 42.6774 100.094Z" fill="#5F3D1C" stroke="black" stroke-width="4.6751" stroke-miterlimit="10"/>
<path d="M42.6306 100C40.5268 109.678 48.381 117.485 60.1154 117.485C71.8499 117.485 83.1169 109.678 85.2207 100C87.3245 90.323 79.4703 82.5156 67.7359 82.5156C56.0014 82.5156 44.7344 90.323 42.6306 100Z" fill="#613E1D" stroke="black" stroke-width="4.6751" stroke-miterlimit="10"/>
<path d="M42.5838 99.9067C40.48 109.584 48.3341 117.392 60.0686 117.392C71.8031 117.392 83.0701 109.584 85.1739 99.9067C87.2777 90.2293 79.4235 82.4219 67.689 82.4219C55.9545 82.4219 44.6876 90.2293 42.5838 99.9067Z" fill="#633F1D" stroke="black" stroke-width="4.6751" stroke-miterlimit="10"/>
<path d="M42.5373 99.814C40.4335 109.491 48.2876 117.299 60.0221 117.299C71.7566 117.299 83.0236 109.491 85.1274 99.814C87.2312 90.1365 79.377 82.3291 67.6425 82.3291C55.908 82.3291 44.6411 90.1365 42.5373 99.814Z" fill="#65411E" stroke="black" stroke-width="4.6751" stroke-miterlimit="10"/>
<path d="M42.4905 99.7202C40.3867 109.398 48.2408 117.205 59.9753 117.205C71.7098 117.205 82.9768 109.398 85.0806 99.7202C87.1844 90.0428 79.3302 82.2354 67.5958 82.2354C55.8613 82.2354 44.5943 90.0428 42.4905 99.7202Z" fill="#67421E" stroke="black" stroke-width="4.6751" stroke-miterlimit="10"/>
<path d="M42.4437 99.6265C40.3399 109.304 48.194 117.111 59.9285 117.111C71.663 117.111 82.93 109.304 85.0338 99.6265C87.1376 89.949 79.2834 82.1416 67.5489 82.1416C55.8144 82.1416 44.5475 89.949 42.4437 99.6265Z" fill="#69431E" stroke="black" stroke-width="4.6751" stroke-miterlimit="10"/>
<path d="M42.3969 99.5327C40.2931 109.21 48.1473 117.018 59.8817 117.018C71.6162 117.018 82.8832 109.21 84.987 99.5327C87.0908 89.8553 79.2366 82.0479 67.5022 82.0479C55.7677 82.0479 44.5007 89.8553 42.3969 99.5327Z" fill="#6A451F" stroke="black" stroke-width="4.6751" stroke-miterlimit="10"/>
<path d="M42.3501 99.4399C40.2463 109.117 48.1004 116.925 59.8349 116.925C71.5694 116.925 82.8364 109.117 84.9402 99.4399C87.044 89.7625 79.1898 81.9551 67.4553 81.9551C55.7208 81.9551 44.4539 89.7625 42.3501 99.4399Z" fill="#6C461F" stroke="black" stroke-width="4.6751" stroke-miterlimit="10"/>
<path d="M42.3033 99.3462C40.1995 109.024 48.0537 116.831 59.7881 116.831C71.5226 116.831 82.7896 109.024 84.8934 99.3462C86.9972 89.6687 79.143 81.8613 67.4086 81.8613C55.6741 81.8613 44.4071 89.6687 42.3033 99.3462Z" fill="#6E481F" stroke="black" stroke-width="4.6751" stroke-miterlimit="10"/>
<path d="M42.2568 99.2524C40.153 108.93 48.0071 116.737 59.7416 116.737C71.4761 116.737 82.7431 108.93 84.8469 99.2524C86.9507 89.575 79.0965 81.7676 67.362 81.7676C55.6276 81.7676 44.3606 89.575 42.2568 99.2524Z" fill="#704920" stroke="black" stroke-width="4.6751" stroke-miterlimit="10"/>
<path d="M42.21 99.1597C40.1062 108.837 47.9603 116.645 59.6948 116.645C71.4293 116.645 82.6963 108.837 84.8001 99.1597C86.9039 89.4822 79.0497 81.6748 67.3152 81.6748C55.5807 81.6748 44.3138 89.4822 42.21 99.1597Z" fill="#724B20" stroke="black" stroke-width="4.6751" stroke-miterlimit="10"/>
<path d="M42.1632 99.0659C40.0594 108.743 47.9135 116.551 59.648 116.551C71.3825 116.551 82.6495 108.743 84.7533 99.0659C86.8571 89.3885 79.0029 81.5811 67.2684 81.5811C55.534 81.5811 44.267 89.3885 42.1632 99.0659Z" fill="#754C20" stroke="black" stroke-width="4.6751" stroke-miterlimit="10"/>
<path d="M42.1164 98.9722C40.0126 108.65 47.8668 116.457 59.6013 116.457C71.3357 116.457 82.6027 108.65 84.7065 98.9722C86.8103 89.2947 78.9562 81.4873 67.2217 81.4873C55.4872 81.4873 44.2202 89.2947 42.1164 98.9722Z" fill="#774E21" stroke="black" stroke-width="4.6751" stroke-miterlimit="10"/>
<path d="M42.0696 98.8784C39.9658 108.556 47.8199 116.363 59.5544 116.363C71.2889 116.363 82.5559 108.556 84.6597 98.8784C86.7635 89.201 78.9093 81.3936 67.1749 81.3936C55.4404 81.3936 44.1734 89.201 42.0696 98.8784Z" fill="#794F21" stroke="black" stroke-width="4.6751" stroke-miterlimit="10"/>
<path d="M42.0228 98.7847C39.919 108.462 47.7732 116.27 59.5077 116.27C71.2422 116.27 82.5091 108.462 84.6129 98.7847C86.7167 89.1072 78.8626 81.2998 67.1281 81.2998C55.3936 81.2998 44.1266 89.1072 42.0228 98.7847Z" fill="#7B5121" stroke="black" stroke-width="4.6751" stroke-miterlimit="10"/>
<path d="M41.9763 98.6919C39.8725 108.369 47.7267 116.177 59.4612 116.177C71.1956 116.177 82.4626 108.369 84.5664 98.6919C86.6702 89.0144 78.8161 81.207 67.0816 81.207C55.3471 81.207 44.0801 89.0144 41.9763 98.6919Z" fill="#7D5222" stroke="black" stroke-width="4.6751" stroke-miterlimit="10"/>
<path d="M41.9295 98.5981C39.8257 108.276 47.6798 116.083 59.4143 116.083C71.1488 116.083 82.4158 108.276 84.5196 98.5981C86.6234 88.9207 78.7692 81.1133 67.0347 81.1133C55.3003 81.1133 44.0333 88.9207 41.9295 98.5981Z" fill="#7F5422" stroke="black" stroke-width="4.6751" stroke-miterlimit="10"/>
<path d="M41.8827 98.5044C39.7789 108.182 47.6331 115.989 59.3675 115.989C71.102 115.989 82.369 108.182 84.4728 98.5044C86.5766 88.8269 78.7225 81.0195 66.988 81.0195C55.2535 81.0195 43.9865 88.8269 41.8827 98.5044Z" fill="#815522" stroke="black" stroke-width="4.6751" stroke-miterlimit="10"/>
<path d="M41.8359 98.4106C39.7321 108.088 47.5862 115.896 59.3207 115.896C71.0552 115.896 82.3222 108.088 84.426 98.4106C86.5298 88.7332 78.6756 80.9258 66.9411 80.9258C55.2067 80.9258 43.9397 88.7332 41.8359 98.4106Z" fill="#835723" stroke="black" stroke-width="4.6751" stroke-miterlimit="10"/>
<path d="M41.7891 98.271C39.6853 107.948 47.5395 115.756 59.274 115.756C71.0084 115.756 82.2754 107.948 84.3792 98.271C86.483 88.5935 78.6289 80.7861 66.8944 80.7861C55.1599 80.7861 43.8929 88.5935 41.7891 98.271Z" fill="#855823" stroke="black" stroke-width="4.6751" stroke-miterlimit="10"/>
<path d="M41.7423 98.1772C39.6385 107.855 47.4927 115.662 59.2272 115.662C70.9617 115.662 82.2287 107.855 84.3324 98.1772C86.4362 88.4998 78.5821 80.6924 66.8476 80.6924C55.1131 80.6924 43.8461 88.4998 41.7423 98.1772Z" fill="#885A23" stroke="black" stroke-width="4.6751" stroke-miterlimit="10"/>
<path d="M41.6955 98.0835C39.5917 107.761 47.4459 115.568 59.1804 115.568C70.9149 115.568 82.1818 107.761 84.2856 98.0835C86.3894 88.406 78.5353 80.5986 66.8008 80.5986C55.0663 80.5986 43.7993 88.406 41.6955 98.0835Z" fill="#8A5C23" stroke="black" stroke-width="4.6751" stroke-miterlimit="10"/>
<path d="M41.649 97.9907C39.5452 107.668 47.3994 115.476 59.1338 115.476C70.8683 115.476 82.1353 107.668 84.2391 97.9907C86.3429 88.3133 78.4888 80.5059 66.7543 80.5059C55.0198 80.5059 43.7528 88.3133 41.649 97.9907Z" fill="#8C5D23" stroke="black" stroke-width="4.6751" stroke-miterlimit="10"/>
<path d="M41.6022 97.897C39.4984 107.574 47.3526 115.382 59.0871 115.382C70.8216 115.382 82.0885 107.574 84.1923 97.897C86.2961 88.2195 78.442 80.4121 66.7075 80.4121C54.973 80.4121 43.706 88.2195 41.6022 97.897Z" fill="#8E5F24" stroke="black" stroke-width="4.6751" stroke-miterlimit="10"/>
<path d="M41.5086 97.8032C39.4048 107.481 47.259 115.288 58.9935 115.288C70.728 115.288 81.9949 107.481 84.0987 97.8032C86.2025 88.1258 78.3484 80.3184 66.6139 80.3184C54.8794 80.3184 43.6124 88.1258 41.5086 97.8032Z" fill="#906024" stroke="black" stroke-width="4.6751" stroke-miterlimit="10"/>
<path d="M41.4618 97.7095C39.358 107.387 47.2122 115.194 58.9467 115.194C70.6811 115.194 81.9481 107.387 84.0519 97.7095C86.1557 88.032 78.3016 80.2246 66.5671 80.2246C54.8326 80.2246 43.5656 88.032 41.4618 97.7095Z" fill="#926224" stroke="black" stroke-width="4.6751" stroke-miterlimit="10"/>
<path d="M41.415 97.6167C39.3112 107.294 47.1654 115.102 58.8999 115.102C70.6344 115.102 81.9013 107.294 84.0051 97.6167C86.1089 87.9392 78.2548 80.1318 66.5203 80.1318C54.7858 80.1318 43.5188 87.9392 41.415 97.6167Z" fill="#946424" stroke="black" stroke-width="4.6751" stroke-miterlimit="10"/>
<path d="M41.3685 97.5229C39.2647 107.2 47.1189 115.008 58.8534 115.008C70.5879 115.008 81.8548 107.2 83.9586 97.5229C86.0624 87.8455 78.2083 80.0381 66.4738 80.0381C54.6925 80.0381 43.4723 87.8455 41.3685 97.5229Z" fill="#976524" stroke="black" stroke-width="4.6751" stroke-miterlimit="10"/>
<path d="M41.3217 97.4292C39.2179 107.107 47.0721 114.914 58.8065 114.914C70.541 114.914 81.808 107.107 83.9118 97.4292C86.0156 87.7517 78.1614 79.9443 66.427 79.9443C54.6925 79.9443 43.4255 87.7517 41.3217 97.4292Z" fill="#996724" stroke="black" stroke-width="4.6751" stroke-miterlimit="10"/>
<path d="M41.2749 97.3354C39.1711 107.013 47.0253 114.82 58.7598 114.82C70.4943 114.82 81.7612 107.013 83.865 97.3354C85.9688 87.658 78.1147 79.8506 66.3802 79.8506C54.6457 79.8506 43.3787 87.658 41.2749 97.3354Z" fill="#9B6924" stroke="black" stroke-width="4.6751" stroke-miterlimit="10"/>
<path d="M41.2281 97.2427C39.1243 106.92 46.9785 114.728 58.713 114.728C70.4474 114.728 81.7144 106.92 83.8182 97.2427C85.922 87.5652 78.0679 79.7578 66.3334 79.7578C54.5989 79.7578 43.3319 87.5652 41.2281 97.2427Z" fill="#9D6A24" stroke="black" stroke-width="4.6751" stroke-miterlimit="10"/>
<path d="M41.1813 97.1489C39.0775 106.826 46.9317 114.634 58.6662 114.634C70.4007 114.634 81.6676 106.826 83.7714 97.1489C85.8752 87.4715 78.0211 79.6641 66.2866 79.6641C54.5521 79.6641 43.2851 87.4715 41.1813 97.1489Z" fill="#9F6C25" stroke="black" stroke-width="4.6751" stroke-miterlimit="10"/>
<path d="M41.1345 97.0552C39.0307 106.733 46.8849 114.54 58.6194 114.54C70.3539 114.54 81.6209 106.733 83.7246 97.0552C85.8284 87.3777 77.9743 79.5703 66.2398 79.5703C54.5053 79.5703 43.2383 87.3777 41.1345 97.0552Z" fill="#A26E25" stroke="black" stroke-width="4.6751" stroke-miterlimit="10"/>
<path d="M41.088 96.9614C38.9842 106.639 46.8384 114.446 58.5729 114.446C70.3074 114.446 81.5743 106.639 83.6781 96.9614C85.7819 87.284 77.9278 79.4766 66.1933 79.4766C54.4588 79.4766 43.1918 87.284 41.088 96.9614Z" fill="#A46F25" stroke="black" stroke-width="4.6751" stroke-miterlimit="10"/>
<path d="M41.0412 96.8677C38.9374 106.545 46.7916 114.353 58.5261 114.353C70.2606 114.353 81.5275 106.545 83.6313 96.8677C85.7351 87.1902 77.881 79.3828 66.1465 79.3828C54.412 79.3828 43.145 87.1902 41.0412 96.8677Z" fill="#A67125" stroke="black" stroke-width="4.6751" stroke-miterlimit="10"/>
<path d="M40.9944 96.7749C38.8906 106.452 46.7448 114.26 58.4793 114.26C70.2138 114.26 81.4807 106.452 83.5845 96.7749C85.6883 87.0975 77.8342 79.29 66.0997 79.29C54.3652 79.29 43.0982 87.0975 40.9944 96.7749Z" fill="#A97325" stroke="black" stroke-width="4.6751" stroke-miterlimit="10"/>
<path d="M40.9476 96.6811C38.8438 106.359 46.698 114.166 58.4325 114.166C70.167 114.166 81.4339 106.359 83.5377 96.6811C85.6415 87.0037 77.7874 79.1963 66.0529 79.1963C54.3184 79.1963 43.0514 87.0037 40.9476 96.6811Z" fill="#AB7525" stroke="black" stroke-width="4.6751" stroke-miterlimit="10"/>
<path d="M40.9008 96.5874C38.797 106.265 46.6512 114.072 58.3857 114.072C70.1202 114.072 81.3872 106.265 83.491 96.5874C85.5947 86.9099 77.7406 79.1025 66.0061 79.1025C54.2716 79.1025 43.0046 86.9099 40.9008 96.5874Z" fill="#AD7625" stroke="black" stroke-width="4.6751" stroke-miterlimit="10"/>
<path d="M40.854 96.4946C38.7502 106.172 46.6044 113.979 58.3389 113.979C70.0734 113.979 81.3403 106.172 83.4441 96.4946C85.5479 86.8172 77.6938 79.0098 65.9593 79.0098C54.2248 79.0098 42.9578 86.8172 40.854 96.4946Z" fill="#B07825" stroke="black" stroke-width="4.6751" stroke-miterlimit="10"/>
<path d="M40.8075 96.354C38.7037 106.031 46.5579 113.839 58.2924 113.839C70.0269 113.839 81.2938 106.031 83.3976 96.354C85.5014 86.6766 77.6473 78.8691 65.9128 78.8691C54.1783 78.8691 42.9113 86.6766 40.8075 96.354Z" fill="#B27A25" stroke="black" stroke-width="4.6751" stroke-miterlimit="10"/>
<path d="M40.7607 96.2603C38.6569 105.938 46.5111 113.745 58.2456 113.745C69.9801 113.745 81.247 105.938 83.3508 96.2603C85.4546 86.5828 77.6005 78.7754 65.866 78.7754C54.1315 78.7754 42.8645 86.5828 40.7607 96.2603Z" fill="#B57C24" stroke="black" stroke-width="4.6751" stroke-miterlimit="10"/>
<path d="M40.7139 96.1675C38.6101 105.845 46.4643 113.652 58.1988 113.652C69.9333 113.652 81.2002 105.845 83.304 96.1675C85.4078 86.49 77.5537 78.6826 65.8192 78.6826C54.0379 78.6826 42.8177 86.49 40.7139 96.1675Z" fill="#B77E24" stroke="black" stroke-width="4.6751" stroke-miterlimit="10"/>
<path d="M40.6671 96.0737C38.5633 105.751 46.4175 113.559 58.152 113.559C69.8865 113.559 81.1534 105.751 83.2572 96.0737C85.361 86.3963 77.5069 78.5889 65.7724 78.5889C54.0379 78.5889 42.7709 86.3963 40.6671 96.0737Z" fill="#BA8024" stroke="black" stroke-width="4.6751" stroke-miterlimit="10"/>
<path d="M40.6203 95.98C38.5165 105.657 46.3707 113.465 58.1052 113.465C69.8397 113.465 81.1067 105.657 83.2105 95.98C85.3143 86.3025 77.4601 78.4951 65.7256 78.4951C53.9911 78.4951 42.7241 86.3025 40.6203 95.98Z" fill="#BC8124" stroke="black" stroke-width="4.6751" stroke-miterlimit="10"/>
<path d="M40.5735 95.8862C38.4697 105.564 46.3239 113.371 58.0584 113.371C69.7929 113.371 81.0599 105.564 83.1637 95.8862C85.2674 86.2088 77.4133 78.4014 65.6788 78.4014C53.9443 78.4014 42.6773 86.2088 40.5735 95.8862Z" fill="#BF8324" stroke="black" stroke-width="4.6751" stroke-miterlimit="10"/>
<path d="M40.5267 95.7935C38.4229 105.471 46.2771 113.278 58.0116 113.278C69.7461 113.278 81.0131 105.471 83.1169 95.7935C85.2207 86.116 77.3665 78.3086 65.632 78.3086C53.8975 78.3086 42.6305 86.116 40.5267 95.7935Z" fill="#C18524" stroke="black" stroke-width="4.6751" stroke-miterlimit="10"/>
<path d="M40.4802 95.6997C38.3764 105.377 46.2306 113.185 57.9651 113.185C69.6996 113.185 80.9666 105.377 83.0704 95.6997C85.1742 86.0223 77.32 78.2148 65.5855 78.2148C53.851 78.2148 42.584 86.0223 40.4802 95.6997Z" fill="#C38724" stroke="black" stroke-width="4.6751" stroke-miterlimit="10"/>
<path d="M40.4334 95.606C38.3296 105.283 46.1838 113.091 57.9183 113.091C69.6528 113.091 80.9198 105.283 83.0235 95.606C85.1273 85.9285 77.2732 78.1211 65.5387 78.1211C53.8042 78.1211 42.5372 85.9285 40.4334 95.606Z" fill="#C68923" stroke="black" stroke-width="4.6751" stroke-miterlimit="10"/>
<path d="M40.3866 95.5122C38.2828 105.19 46.137 112.997 57.8715 112.997C69.606 112.997 80.873 105.19 82.9768 95.5122C85.0805 85.8348 77.2264 78.0273 65.4919 78.0273C53.7574 78.0273 42.4904 85.8348 40.3866 95.5122Z" fill="#C88B23" stroke="black" stroke-width="4.6751" stroke-miterlimit="10"/>
<path d="M40.3398 95.4185C38.236 105.096 46.0902 112.903 57.8247 112.903C69.5592 112.903 80.8261 105.096 82.9299 95.4185C85.0337 85.741 77.1796 77.9336 65.4451 77.9336C53.7106 77.9336 42.4436 85.741 40.3398 95.4185Z" fill="#CB8D23" stroke="black" stroke-width="4.6751" stroke-miterlimit="10"/>
<path d="M40.293 95.3257C38.1892 105.003 46.0434 112.811 57.7779 112.811C69.5124 112.811 80.7794 105.003 82.8832 95.3257C84.9869 85.6482 77.1328 77.8408 65.3983 77.8408C53.6638 77.8408 42.3968 85.6482 40.293 95.3257Z" fill="#CD8F22" stroke="black" stroke-width="4.6751" stroke-miterlimit="10"/>
<path d="M40.2462 95.2319C38.1424 104.909 45.9966 112.717 57.7311 112.717C69.4656 112.717 80.7325 104.909 82.8363 95.2319C84.9401 85.5545 77.086 77.7471 65.3515 77.7471C53.617 77.7471 42.35 85.5545 40.2462 95.2319Z" fill="#D09122" stroke="black" stroke-width="4.6751" stroke-miterlimit="10"/>
<path d="M40.1997 95.1382C38.0959 104.816 45.9501 112.623 57.6846 112.623C69.4191 112.623 80.686 104.816 82.7898 95.1382C84.8936 85.4607 77.0395 77.6533 65.305 77.6533C53.5705 77.6533 42.3035 85.4607 40.1997 95.1382Z" fill="#D39322" stroke="black" stroke-width="4.6751" stroke-miterlimit="10"/>
<path d="M40.1529 95.0454C38.0491 104.723 45.9033 112.53 57.6378 112.53C69.3723 112.53 80.6393 104.723 82.7431 95.0454C84.8469 85.368 76.9927 77.5605 65.2582 77.5605C53.5237 77.5605 42.2567 85.368 40.1529 95.0454Z" fill="#D59521" stroke="black" stroke-width="4.6751" stroke-miterlimit="10"/>
<path d="M40.1061 94.9517C38.0023 104.629 45.8565 112.437 57.591 112.437C69.3255 112.437 80.5925 104.629 82.6963 94.9517C84.8001 85.2742 76.9459 77.4668 65.2114 77.4668C53.4769 77.4668 42.2099 85.2742 40.1061 94.9517Z" fill="#D89721" stroke="black" stroke-width="4.6751" stroke-miterlimit="10"/>
<path d="M40.0593 94.8579C37.9555 104.535 45.8097 112.343 57.5442 112.343C69.2787 112.343 80.5457 104.535 82.6495 94.8579C84.7533 85.1805 76.8991 77.373 65.1646 77.373C53.4301 77.373 42.1631 85.1805 40.0593 94.8579Z" fill="#DB9920" stroke="black" stroke-width="4.6751" stroke-miterlimit="10"/>
<path d="M39.9657 94.7642C37.8619 104.442 45.7161 112.249 57.4506 112.249C69.1851 112.249 80.4521 104.442 82.5559 94.7642C84.6596 85.0867 76.8055 77.2793 65.071 77.2793C53.3365 77.2793 42.0695 85.0867 39.9657 94.7642Z" fill="#DD9B20" stroke="black" stroke-width="4.6751" stroke-miterlimit="10"/>
<path d="M39.9192 94.6714C37.8154 104.349 45.6696 112.156 57.4041 112.156C69.1386 112.156 80.4056 104.349 82.5093 94.6714C84.6131 84.9939 76.759 77.1865 65.0245 77.1865C53.29 77.1865 42.023 84.9939 39.9192 94.6714Z" fill="#E09D1F" stroke="black" stroke-width="4.6751" stroke-miterlimit="10"/>
<path d="M39.8724 94.5776C37.7686 104.255 45.6228 112.062 57.3573 112.062C69.0918 112.062 80.3588 104.255 82.4626 94.5776C84.5664 84.9002 76.7122 77.0928 64.9777 77.0928C53.2432 77.0928 41.9762 84.9002 39.8724 94.5776Z" fill="#E39F1E" stroke="black" stroke-width="4.6751" stroke-miterlimit="10"/>
<path d="M39.8256 94.437C37.7218 104.114 45.576 111.922 57.3105 111.922C69.045 111.922 80.312 104.114 82.4157 94.437C84.5195 84.7596 76.6654 76.9521 64.9309 76.9521C53.1964 76.9521 41.9294 84.7596 39.8256 94.437Z" fill="#E6A11E" stroke="black" stroke-width="4.6751" stroke-miterlimit="10"/>
<path d="M39.7788 94.3433C37.675 104.021 45.5292 111.828 57.2637 111.828C68.9982 111.828 80.2652 104.021 82.369 94.3433C84.4728 84.6658 76.6186 76.8584 64.8841 76.8584C53.1496 76.8584 41.8826 84.6658 39.7788 94.3433Z" fill="#E8A31D" stroke="black" stroke-width="4.6751" stroke-miterlimit="10"/>
<path d="M39.732 94.2505C37.6282 103.928 45.4824 111.735 57.2169 111.735C68.9514 111.735 80.2184 103.928 82.3222 94.2505C84.426 84.573 76.5718 76.7656 64.8373 76.7656C53.1028 76.7656 41.8358 84.573 39.732 94.2505Z" fill="#EBA51C" stroke="black" stroke-width="4.6751" stroke-miterlimit="10"/>
<path d="M39.6852 94.1567C37.5814 103.834 45.4356 111.642 57.1701 111.642C68.9046 111.642 80.1716 103.834 82.2754 94.1567C84.3792 84.4793 76.525 76.6719 64.7905 76.6719C53.056 76.6719 41.789 84.4793 39.6852 94.1567Z" fill="#EEA71B" stroke="black" stroke-width="4.6751" stroke-miterlimit="10"/>
<path d="M39.6387 94.063C37.5349 103.74 45.3891 111.548 57.1236 111.548C68.8581 111.548 80.1251 103.74 82.2289 94.063C84.3327 84.3855 76.4785 76.5781 64.744 76.5781C53.0095 76.5781 41.7425 84.3855 39.6387 94.063Z" fill="#F1AA1A" stroke="black" stroke-width="4.6751" stroke-miterlimit="10"/>
<path d="M39.5919 93.9692C37.4881 103.647 45.3423 111.454 57.0768 111.454C68.8113 111.454 80.0783 103.647 82.182 93.9692C84.2858 84.2918 76.4317 76.4844 64.6972 76.4844C52.9627 76.4844 41.6957 84.2918 39.5919 93.9692Z" fill="#F4AC19" stroke="black" stroke-width="4.6751" stroke-miterlimit="10"/>
<path d="M39.5451 93.8765C37.4413 103.554 45.2955 111.361 57.03 111.361C68.7645 111.361 80.0315 103.554 82.1353 93.8765C84.2391 84.199 76.3849 76.3916 64.6504 76.3916C52.9159 76.3916 41.6489 84.199 39.5451 93.8765Z" fill="#F6AE18" stroke="black" stroke-width="4.6751" stroke-miterlimit="10"/>
<path d="M39.4983 93.7827C37.3945 103.46 45.2487 111.268 56.9832 111.268C68.7176 111.268 79.9846 103.46 82.0884 93.7827C84.1922 84.1053 76.3381 76.2979 64.6036 76.2979C52.8691 76.2979 41.6021 84.1053 39.4983 93.7827Z" fill="#F9B017" stroke="black" stroke-width="4.6751" stroke-miterlimit="10"/>
</svg>
