<svg width="535" height="321" viewBox="0 0 535 321" fill="none" xmlns="http://www.w3.org/2000/svg">
<mask id="path-1-outside-1_386_15177" maskUnits="userSpaceOnUse" x="-13.8638" y="-0.264435" width="548.752" height="354.251" fill="black">
<rect fill="white" x="-13.8638" y="-0.264435" width="548.752" height="354.251"/>
<path d="M516.711 130.877L486.771 253.369L458.134 274.809L212.553 214.783L152.922 240.978L150.181 242.182L160.016 201.942L17.8681 167.197L54.368 17.8682L516.711 130.877Z"/>
</mask>
<path d="M516.711 130.877L486.771 253.369L458.134 274.809L212.553 214.783L152.922 240.978L150.181 242.182L160.016 201.942L17.8681 167.197L54.368 17.8682L516.711 130.877Z" fill="black"/>
<path d="M516.711 130.877L531.07 134.387L534.579 120.028L520.221 116.519L516.711 130.877ZM486.771 253.369L495.63 265.201L499.871 262.026L501.13 256.878L486.771 253.369ZM458.134 274.809L454.624 289.168L461.405 290.825L466.993 286.642L458.134 274.809ZM212.553 214.783L216.062 200.424L211.195 199.235L206.608 201.25L212.553 214.783ZM152.922 240.978L158.866 254.511L158.867 254.511L152.922 240.978ZM150.181 242.182L135.822 238.672L128.714 267.753L156.124 255.715L150.181 242.182ZM160.016 201.942L174.375 205.451L177.885 191.093L163.526 187.583L160.016 201.942ZM17.8681 167.197L3.50965 163.687L4.61678e-05 178.046L14.3585 181.555L17.8681 167.197ZM54.368 17.8682L57.8776 3.50967L43.5192 7.29505e-05L40.0096 14.3586L54.368 17.8682ZM516.711 130.877L502.353 127.368L472.413 249.859L486.771 253.369L501.13 256.878L531.07 134.387L516.711 130.877ZM486.771 253.369L477.912 241.537L449.275 262.977L458.134 274.809L466.993 286.642L495.63 265.201L486.771 253.369ZM458.134 274.809L461.643 260.451L216.062 200.424L212.553 214.783L209.043 229.141L454.624 289.168L458.134 274.809ZM212.553 214.783L206.608 201.25L146.977 227.445L152.922 240.978L158.867 254.511L218.498 228.316L212.553 214.783ZM152.922 240.978L146.978 227.444L144.237 228.648L150.181 242.182L156.124 255.715L158.866 254.511L152.922 240.978ZM150.181 242.182L164.539 245.691L174.375 205.451L160.016 201.942L145.658 198.432L135.822 238.672L150.181 242.182ZM160.016 201.942L163.526 187.583L21.3777 152.838L17.8681 167.197L14.3585 181.555L156.507 216.3L160.016 201.942ZM17.8681 167.197L32.2266 170.706L68.7265 21.3778L54.368 17.8682L40.0096 14.3586L3.50965 163.687L17.8681 167.197ZM54.368 17.8682L50.8584 32.2267L513.202 145.236L516.711 130.877L520.221 116.519L57.8776 3.50967L54.368 17.8682Z" fill="white" mask="url(#path-1-outside-1_386_15177)"/>
<path d="M498.121 139.838L66.3712 34.3066L42.6112 131.514L474.361 237.045L498.121 139.838Z" fill="white"/>
<path d="M159.124 138.986L134.359 110.375L127.412 131.235L117.265 128.755L129.085 72.8339L137.013 74.7717L136.539 101.457L156.832 79.6161L176.652 84.4605C176.81 84.4992 176.867 84.6111 176.822 84.7961C176.37 86.6459 167.123 95.4896 149.081 111.327L165.025 132.027L159.124 138.986ZM180.774 87.3585L210.851 90.9713L221.543 110.472L207.606 121.432L216.591 136.23L209.333 148.738L169.113 141.428L180.774 87.3585ZM189.636 110.738L208.798 108.995L191.797 96.2277C189.801 105.766 189.081 110.603 189.636 110.738ZM186.922 121.501L181.808 137.096L202.579 136.67L186.922 121.501ZM216.679 153.054L230.244 97.5598L266.888 102.316L263.981 114.208L237.326 111.893L234.754 119.666L261.074 126.099L258.575 136.326L234.384 132.178L231.749 142.959L255.687 148.139L252.878 159.634L216.679 153.054ZM292.866 171.676L269.439 165.95L261.673 149.602C261.316 149.458 261.412 148.264 261.961 146.017C263.053 141.551 265.94 132.889 270.623 120.032L284.311 110.775L302.783 115.29L316.78 127.113L306.223 137.135L292.69 127.022L274.326 139.252L283.551 158.226L306.51 154.008L311.786 163.699L292.866 171.676ZM349.827 185.599L326.44 179.883L338.24 138.996L323.033 134.186L326.249 121.026L373.024 132.459L369.749 145.857L353.689 144.536L349.827 185.599ZM379.537 183.493L384.338 191.346L376.824 194.592L372.19 186.739L379.537 183.493ZM379.041 177.617L377.781 156.306L381.046 142.947L391.522 134.46L397.124 145.911L393.074 162.48L383.084 178.606L379.041 177.617ZM414.102 191.942L418.904 199.795L411.389 203.041L406.755 195.187L414.102 191.942ZM413.606 186.066L412.346 164.754L415.611 151.396L426.087 142.909L431.689 154.36L427.639 170.929L417.649 187.054L413.606 186.066Z" fill="black"/>
</svg>
