<svg width="942" height="229" viewBox="0 0 942 229" fill="none" xmlns="http://www.w3.org/2000/svg">
<g clip-path="url(#clip0_386_15183)">
<path d="M525.277 229L524.073 186.375L510.983 172.861L514.873 168.663H506.352L506.414 229H247.358L255.014 185.026L244.733 171.574L259.707 158.397L263.442 137.1H54.4933V137.069H0.00228882L65.3606 95.0872L70.5164 79.9799L59.2786 63.463L81.6308 47.4057L97.7774 0H940.119L907.208 34.8725L942.002 137.1H734.72L751.639 204.822L756.023 229H525.277Z" fill="white"/>
<path d="M168.631 9.31543L168.817 8.67188H414.69L420.896 14.249L421.729 8.67188H610.58V8.88574L618.174 8.67188H759.511L759.667 9.31543L760.284 8.67188H805.204L806.161 9.31543L806.006 8.67188H919.928L897.237 32.7266L929.808 128.427H838.115L837.899 127.63L837.251 128.427H787.637L786.587 127.63L786.803 128.427H723.544L743.087 206.63L745.557 220.327H533.768L532.749 182.789L523.024 172.737L532.193 162.901L532.131 159.99H516.262L524.814 128.427H504.098L513.484 159.99H497.615L497.646 220.327H257.731L264.307 182.789L256.589 172.737L267.827 162.901L273.816 128.427H63.231V128.365H29.6412L72.647 100.726L80.2105 78.6621L71.2574 65.5771L89.0406 52.8291L104.076 8.67188H168.044L168.631 9.31543ZM277.49 166.67L270.698 172.737L275.453 178.836L270.296 209.694H308.857L310.74 196.241L311.574 190.112L299.224 186.527L297.774 196.241H287.801L290.549 178.958H295.119L304.38 166.088H292.525L294.995 150.092H304.689L303.299 159.255L316.359 155.792L317.131 150.092V150.03L318.829 137.773H282.368L277.49 166.67ZM323.891 140.225L324.323 166.823L317.871 172.737L324.477 178.836V176.477L325.033 209.694H349.794L367.267 140.225L367.514 137.773H352.912L339.358 196.027V196.241H338.586L338.618 196.027L338.834 137.773H324.23L323.891 140.225ZM370.324 166.67L363.995 172.737L369.151 178.836L366.156 209.694H404.716L405.612 196.241L406.044 190.112L393.448 186.527L392.708 196.241H382.735L384.217 178.958H388.787L397.184 166.088H385.329L386.656 150.092H396.319L395.579 159.255L408.39 155.792L408.792 150.092V150.03L409.626 137.773H373.103L370.324 166.67ZM414.751 166.67L408.576 172.737L414.009 178.836L412.064 209.694H427.253L428.983 175.833H429.631L438.461 209.694H453.897L456.182 137.773H441.795L440.684 163.085H440.036L433.244 137.773H416.541L414.751 166.67ZM459.948 150.276H472.606L472.297 166.67L466.401 172.737L472.05 178.836L471.495 209.694H486.901L487.333 150.276H499.991L496.378 137.773H463.9L459.948 150.276ZM529.506 150.276H542.102L542.719 166.67L537.163 172.737L543.121 178.836L544.202 209.694H559.638L556.86 150.276H569.517L565.226 137.773H532.748L529.506 150.276ZM576.156 166.67L570.753 172.737L576.897 178.836L578.781 209.694H617.341L616.106 196.241L615.55 190.112L602.461 186.527L603.201 196.241H593.229L591.994 178.958H596.594L602.892 166.088H591.037L589.895 150.092H599.527L600.268 159.255L612.525 155.792L611.969 150.092V150.03L610.888 137.773H574.427L576.156 166.67ZM672.727 166.67L666.954 172.737L673.468 178.744L675.29 206.967L675.66 209.694H689.985L688.04 178.958H688.503L698.228 209.694H710.331L710.67 178.958H711.072L718.604 209.694H732.899L732.466 206.967L715.703 137.773H697.425L697.888 165.598H697.24L689.089 137.773H670.843L672.727 166.67ZM626.88 138.08L625.429 166.731L618.483 172.737L624.842 178.836L623.454 206.967L623.7 209.663H639.136L639.292 192.533H650.066L653.987 209.663H669.423L669.084 206.967L650.313 137.773H626.88V138.08ZM647.041 179.448H639.507L639.754 151.562H640.587L647.041 179.448ZM359.148 57.7627L350.072 65.6074L357.358 73.5752L352.696 114.208H374.77L378.228 78.4473H385.113L392.892 114.208H413.392L413.639 110.623L405.149 77.0684L415.677 68.3037L418.27 30V29.9688L407.959 20.623H363.409L359.148 57.7627ZM619.501 21.0215L617.215 57.7627L607.305 65.6074L616.29 73.5752L614.004 110.623L614.344 114.208H636.419L636.666 91.501H652.009L657.721 114.208H679.795L679.301 110.623L679.271 110.593L652.288 20.623H619.438L619.501 21.0215ZM102.007 57.7324L91.233 65.5771L96.7896 73.5439L85.9839 106.455L74.1285 114.178H131.584L146.434 103.452L167.087 29.9688L158.814 20.623L158.753 20.5918H114.202L102.007 57.7324ZM169.526 57.7324L159.183 65.5771L165.204 73.5439L154.151 114.178H209.352L213.427 96.4043L215.28 88.3145L198.115 83.5957L195.027 96.4043H180.794L186.537 73.6357H193.083L207.592 56.9658H190.797L196.077 36.251H209.599L206.728 48.0791L225.499 43.667L227.166 36.251L230.748 20.5918H179.652L169.526 57.7324ZM235.254 36.5264H253.038L248.654 57.7324L248.623 57.793L238.836 65.5771L245.381 73.5439L236.953 114.178H259.088L273.722 36.5264H291.537L289.252 20.5918H243.806L235.254 36.5264ZM295.953 57.7324L286.474 65.5771L293.329 73.5439L286.537 114.178H341.737L343.929 96.4043L344.918 88.3145L327.257 83.5957L325.529 96.4043H311.296L314.662 73.6357H321.207L333.926 56.9658H317.131L320.281 36.251H333.803L332.167 48.0791L350.444 43.667L351.338 36.251L353.253 20.5918H302.158L295.953 57.7324ZM429.292 57.7324L419.598 65.5771L427.193 73.4521L422.284 110.593L422.098 114.178H442.567L447.846 73.6357H448.495L454.454 114.178H471.804L479.955 73.6357H480.542L483.628 114.178H504.159L504.097 110.593L497.028 20.5918H471.464L465.105 56.3223H464.21L459.794 20.5918H434.201L429.292 57.7324ZM512.155 57.7324L504.066 65.5771L512.339 73.5439L512.834 114.178H534.908L532.098 20.5918H511.661L512.155 57.7324ZM543.46 57.7324L535.556 65.5771L544.046 73.5439L545.652 114.178H567.418L563.651 46.9453L581.526 85.1279L583.503 114.178H605.638L597.488 20.5918H577.359L579.582 53.0742L565.379 20.5918H542.008L543.46 57.7324ZM666.304 36.5264H684.086L687.452 57.7324L680.505 65.5771L689.922 73.5439L696.375 114.178H718.48L704.834 36.5264H722.586L714.497 20.5918H669.051L666.304 36.5264ZM734.905 57.7324L728.298 65.5771L738.054 73.5439L746.112 114.178H768.186L747.995 20.5918H727.557L734.905 57.7324ZM760.067 29.9688L766.272 57.7324L759.881 65.5771L769.854 73.5439L776.553 103.452L790.786 114.178H827.061L835.984 103.452L815.978 29.9688L802.487 20.623H768.896L760.067 29.9688ZM833.793 57.7324L827.834 65.5771L838.208 73.5439L849.599 114.178H871.396L858.151 69.6221H859.046L887.511 114.178H909.617L881.059 27.3027L887.511 20.5918H858.738L868.834 53.0742H867.938L846.728 20.5918H823.357L833.793 57.7324ZM144.026 38.2119L127.261 94.3203L127.231 94.29L124.267 96.4043H111.053L129.762 36.2812H142.328L144.026 38.2119ZM797.454 38.1816L811.749 94.29L809.927 96.4043H799.059L796.219 94.29L782.635 38.1816L784.425 36.251H794.737L797.454 38.1816ZM647.718 74.3408H637.005L637.437 38.1816H638.641L647.718 74.3408ZM396.937 38.1816L395.146 59.6016L392.708 61.5625H379.864L382.303 36.251H394.899L396.937 38.1816Z" fill="#1D1D1B"/>
</g>
<defs>
<clipPath id="clip0_386_15183">
<rect width="942" height="229" fill="white"/>
</clipPath>
</defs>
</svg>
