<svg width="1918" height="708" viewBox="0 0 1918 708" fill="none" xmlns="http://www.w3.org/2000/svg">
<mask id="mask0_386_15133" style="mask-type:alpha" maskUnits="userSpaceOnUse" x="0" y="0" width="1918" height="708">
<rect width="1918" height="708" fill="#002FF7"/>
</mask>
<g mask="url(#mask0_386_15133)">
<rect width="33.6956" height="96.1252" transform="matrix(0.93014 0.367204 -0.4152 0.90973 1081.51 -28.873)" fill="#2AB9FF"/>
<rect width="33.3219" height="97.2906" transform="matrix(0.847111 -0.531416 0.587094 0.809519 954 206.707)" fill="#FF3D2E"/>
<rect width="33.3219" height="97.2906" transform="matrix(0.847111 -0.531416 0.587094 0.809519 1396.42 614.668)" fill="#FF3D2E"/>
<rect width="33.3219" height="97.2906" transform="matrix(0.847111 -0.531416 0.587094 0.809519 162.617 614.666)" fill="#2AB9FF"/>
<rect width="33.3219" height="97.2906" transform="matrix(0.847111 -0.531416 0.587094 0.809519 1631.17 -9.49805)" fill="#2AB9FF"/>
<rect width="33.3219" height="97.2906" transform="matrix(-0.847111 -0.531416 -0.587094 0.809519 1350.95 572.168)" fill="#2AB9FF"/>
<rect width="33.3219" height="97.2906" transform="matrix(0.847111 -0.531416 0.587094 0.809519 646.46 -40.332)" fill="white"/>
<rect width="32.5731" height="99.5465" transform="matrix(0.637582 0.770383 -0.813118 0.582099 979.959 598.672)" fill="#FFD134"/>
<rect width="33.4331" height="96.9466" transform="matrix(0.872941 0.487827 -0.542654 0.839956 136.376 400.291)" fill="#FF3D2E"/>
<rect width="33.4331" height="96.9466" transform="matrix(0.872941 0.487827 -0.542654 0.839956 1867.61 61)" fill="#FF3D2E"/>
<rect width="33.4331" height="96.9466" transform="matrix(0.872941 0.487827 -0.542654 0.839956 1653.61 149)" fill="#FF3D2E"/>
<rect width="34.042" height="95.0203" transform="matrix(0.998814 0.0486842 -0.0562601 0.998416 250.395 -38.8711)" fill="#FFD134"/>
<rect width="34.042" height="95.0203" transform="matrix(0.998814 0.0486842 -0.0562601 0.998416 1627.35 563)" fill="#FFD134"/>
<rect width="34.042" height="95.0203" transform="matrix(-0.998814 0.0486842 0.0562601 0.998416 1232.4 44.4609)" fill="#FFD134"/>
<rect width="33.9318" height="95.3744" transform="matrix(0.977715 -0.209934 0.24092 0.970545 162.617 256.582)" fill="white"/>
<rect width="33.9318" height="95.3744" transform="matrix(0.977715 -0.209934 0.24092 0.970545 1819 417.123)" fill="white"/>
<rect width="33.9318" height="95.3744" transform="matrix(-0.977715 -0.209934 -0.24092 0.970545 1334.3 124.916)" fill="white"/>
<ellipse cx="1121.4" cy="514.833" rx="22.4002" ry="20.8333" fill="white"/>
<ellipse cx="1530.82" cy="491.126" rx="22.4002" ry="20.8333" fill="white"/>
<ellipse cx="1729.4" cy="337.833" rx="22.4002" ry="20.8333" fill="white"/>
<ellipse cx="1389.25" cy="69.4603" rx="22.4002" ry="20.8333" fill="white"/>
<ellipse cx="597.18" cy="9.46224" rx="22.4002" ry="20.8333" fill="white"/>
<ellipse cx="228.025" cy="551.124" rx="22.4002" ry="20.8333" fill="white"/>
<ellipse cx="574.78" cy="645.292" rx="22.4002" ry="20.8333" fill="white"/>
<rect width="33.3233" height="97.2958" transform="matrix(0.846858 -0.531819 0.586688 0.809813 67.6397 38.832)" fill="white"/>
</g>
</svg>
