<svg version="1.2" xmlns="http://www.w3.org/2000/svg" viewBox="0 0 258 68" width="258" height="68"><style>.a{fill:#fff}.b{fill:#d73004}.c{fill:#ff3f25}.d{fill:#ffa600}.e{fill:#ffbf00}.f{fill:#020202}</style><path class="a" d="m17.6 67c-2.8 0-5.5-1.3-7.2-3.5l-8.1-10.1c-1.5-1.8-2.3-4.2-2.3-6.6v-36.1c0-5.6 4.4-10.1 9.8-10.1h8.8c1.7 0 3.3 0.4 4.8 1.2 1.4-0.8 3.1-1.2 4.8-1.2h11q0.9 0 1.8 0.1 0.6-0.1 1.2-0.1l9.7-0.7q0.3 0 0.6 0c2 0 3.9 0.7 5.6 1.8 1.5-1 3.3-1.6 5.2-1.6q0.3 0 0.5 0l9.4 0.5c1.7 0 3.3 0.6 4.7 1.5 1.7-1.4 3.8-2.2 6-2.2h25.8c1.5 0 2.9 0.4 4.2 1q1.3-0.3 2.5-0.3h10.5c1.7 0 3.3 0.4 4.8 1.2 1.4-0.8 3-1.2 4.7-1.2h11.1q0.5 0 1 0c1.1-0.5 2.4-0.7 3.6-0.7h9.1c1.9 0 3.7 0.5 5.2 1.5 1.5-1 3.3-1.5 5.2-1.5h11.6q0.9 0 1.8 0.1 0.9-0.1 1.8-0.1h30c1.2 0 2.3 0.2 3.5 0.6l8.7-0.6q0.3 0 0.6 0c2 0 4 0.6 5.6 1.8 1.6-1 3.4-1.6 5.3-1.6q0.2 0 0.4 0l7.6 0.5c5.2 0.2 9.3 4.7 9.3 10.1v35.4c0 1.8-0.5 3.6-1.4 5.2v0.1l-0.1 0.1-0.4 0.6-0.1 0.1-6.8 10.5c-1.8 2.7-4.7 4.3-7.8 4.3h-223.6z"/><path class="b" d="m250.7 29.2h-99.2v22.1h99.2z"/><path class="c" d="m162.6 7.9h8.7v-0.8h61.9v4.1h6.4v-4.1h11.1v22.1h-99.2v-22.1h11.1z"/><path class="d" d="m149.9 28.4h-143.5l1.1 24.5h142.4z"/><path class="e" d="m149.9 29.2h-143.5v-22.1h13l-0.8 3.3h7.2l1.5-3.3h26l1 13.6h7.5l-0.1-13.6h11.3l2.2 3.3h6.5l2.2-3.3h66z"/><path class="f" d="m205 15.7h-6.9v21.6h6.9z"/><path class="f" d="m93.8 33.7l5.9-0.1v-20.7l-5.9 0.1z"/><path class="f" d="m248.3 4.8l-7.6-0.5q-0.1 0-0.2 0c-1.5 0-2.9 0.6-4 1.7-0.6 0.6-1.1 1.4-1.4 2.2-0.3-0.9-0.8-1.8-1.5-2.5-1.1-1-2.5-1.6-4-1.6q-0.1 0-0.3 0l-9.7 0.7q0 0-0.1 0c-0.8-0.5-1.7-0.7-2.7-0.7h-30q-1 0-1.8 0.3-0.9-0.3-1.8-0.3h-11.6c-1.8 0-3.6 0.9-4.7 2.5l-0.5 0.8c-1-2-2.9-3.3-5.2-3.3h-9.1c-1.1 0-2.1 0.3-3 0.9q-0.8-0.2-1.6-0.2h-11.1c-1.9 0-3.7 0.9-4.7 2.6q-0.3-0.4-0.6-0.8c-1.1-1.2-2.6-1.8-4.2-1.8h-10.5c-1 0-2 0.3-2.9 0.8-1-0.9-2.3-1.5-3.8-1.5h-25.8c-2.8 0-5.1 2.1-5.6 4.9-0.7-2.4-2.8-4.1-5.3-4.2l-9.4-0.5q-0.1 0-0.3 0c-1.4 0-2.9 0.6-3.9 1.7-0.7 0.6-1.2 1.4-1.5 2.2-0.2-0.9-0.8-1.8-1.5-2.5-1-1-2.4-1.6-3.9-1.6q-0.2 0-0.4 0l-9.7 0.7q-0.7 0-1.4 0.3-0.9-0.3-1.8-0.3h-11c-2 0-3.7 0.9-4.8 2.6q-0.3-0.4-0.6-0.8c-1.1-1.2-2.6-1.8-4.2-1.8h-8.8c-3.2 0-5.7 2.6-5.7 5.9v36.1c0 1.5 0.5 2.9 1.4 4l8 10c1 1.3 2.5 2 4.1 2h223.6c1.8 0 3.4-0.9 4.4-2.4l7-10.7v-0.1l0.3-0.4v-0.1c0.6-0.9 0.9-1.9 0.9-3v-35.4c0-3.2-2.5-5.8-5.5-5.9zm-209.1 41.4h-11.4v-18.6l-10.9 18.6-8.7 0.6v-38.4h10.4l-0.9 17.3 10.5-17.3h11v37.8zm33.6-0.1h-9.6v-15.5l-10.5 0.1v15.4h-9.9v-37.7l9.7-0.7-0.3 15.1h11.2l-0.1-14.8 9.5 0.4v37.7zm40.6 0.7h-9.9v-6.7l-14.2-0.3-0.3 6.3h-13.1v-10.7h3.4c2.6 0 4.6-2.1 4.6-4.7v-23h25.8v27.4h3.7v11.8zm34.1-0.7h-11.4v-22l-10.9 22-8.8 0.7v-38.5h10.5l-0.9 17.3 10.4-17.3h11.1v37.8zm18.7-18l15.1 18h-12.3l-8-7.5-0.1 7.5h-8.8v-38.5h9.1v15.4l10.4-15.4h11.6zm50.5 17.9h-30.6l0.6-38.4h30v38.4zm33.2 0h-9.6v-15.5l-10.5 0.1v15.4h-9.9v-37.7l9.7-0.7-0.2 15.1h11.2l-0.2-14.8 9.5 0.4v37.7z"/></svg>