<svg width="38" height="31" viewBox="0 0 38 31" fill="none" xmlns="http://www.w3.org/2000/svg">
<path d="M34.7147 0.0139629C36.8887 -0.159978 37.2395 1.31477 37.0793 3.12224C36.9039 5.08852 36.5149 7.16821 36.225 9.13449C35.5461 13.6948 34.7681 18.2323 34.0739 22.7926C33.7841 24.6984 33.662 28.147 32.4263 29.6292C30.3972 32.0568 26.7662 28.8578 24.9354 27.6251C22.3266 25.8782 19.6645 24.1993 17.0633 22.4372C14.363 20.3121 17.9329 18.0962 19.4585 16.6971C20.7858 15.472 22.0826 14.2166 23.4023 12.9763C24.7067 11.7512 26.2399 10.5034 27.407 9.16477C27.6969 8.83201 28.2613 8.27994 27.8112 7.84131C27.4146 7.44805 26.8806 7.81863 26.4992 8.03794C24.0506 9.46728 21.6402 11.3125 19.2831 12.9158C17.2846 14.2771 15.2174 15.7896 13.1807 17.0602C11.5788 18.066 9.99214 18.8979 8.03936 18.4366C6.08657 17.9752 3.68371 17.4156 1.81483 16.7576C0.220565 16.198 -0.870267 15.3737 0.937584 14.0048C10.2972 9.83781 19.7255 5.75399 29.2453 1.94999C30.6489 1.39036 33.3264 0.134972 34.7223 0.0215329L34.7147 0.0139629Z" fill="black"/>
</svg>
