<svg width="47" height="31" viewBox="0 0 47 31" fill="none" xmlns="http://www.w3.org/2000/svg">
<path d="M18.9399 21.0696V0.886347C18.9399 0.608423 19.4206 0.120189 19.6986 0.0525857L26.2937 0.0150376C26.6091 0.0525949 27.1724 0.585888 27.1724 0.886347V11.6878C27.8935 11.4249 28.5921 11.0794 29.2682 10.7189C33.1666 8.6382 36.5317 5.77634 38.4321 1.72015C38.7551 1.02159 38.8829 0.142732 39.8143 0.0150376H46.1014C47.1079 0.405634 46.9802 1.0516 46.7022 1.91541C46.4318 2.7567 46.0037 3.71819 45.6206 4.52943C43.5249 9.0288 40.2124 13.0699 35.8332 15.4961C35.728 15.5713 35.698 15.6314 35.8181 15.699C40.6029 18.7036 44.4113 22.3091 46.4394 27.7248C46.8074 28.7013 47.476 30.0834 46.0112 30.4515C43.9831 30.2938 41.6621 30.6543 39.6715 30.4515C38.8227 30.3689 38.6199 29.475 38.2594 28.8665C36.0285 25.0958 32.6633 22.264 28.6522 20.5063C28.3142 20.3636 27.7434 20.0781 27.4204 19.988C27.3377 19.9655 27.2551 19.958 27.1724 19.9655V29.5726C27.1724 29.798 26.7443 30.2261 26.534 30.3313C25.9932 30.5942 24.8739 30.3914 24.2505 30.3463C16.739 29.813 10.0839 27.0638 5.59955 20.8593C1.85133 15.6764 0.198774 8.66825 0.0260099 2.32858C0.00347553 1.44223 -0.176811 0.353053 0.859771 0.0150376L7.33474 0C7.59013 0.0300458 7.91309 0.270416 8.05581 0.473226C8.40134 0.953959 8.30371 2.42621 8.35629 3.06469C8.79946 8.65322 10.3243 14.7675 14.6434 18.6359C15.8227 19.6875 17.385 20.6941 18.9324 21.0546L18.9399 21.0696Z" fill="black"/>
</svg>
