<svg width="1249" height="195" viewBox="0 0 1249 195" fill="none" xmlns="http://www.w3.org/2000/svg">
<path d="M0 194.312L85.1394 135.369L92.1456 113.27L77.5596 90.1505L106.568 67.6844L127.996 0H1244.81L1202.19 48.6494L1248.21 194.312H0Z" fill="white"/>
<path d="M1189.16 45.9123L1219.28 11.5596H1068.09L1068.3 12.4582L1067.03 11.5596H1007.41L1006.55 12.4582L1006.35 11.5596H818.82L808.741 11.8047V11.5596H558.117L557.01 19.484L548.775 11.5596H222.476L222.23 12.4582L221.451 11.5596H136.558L116.604 74.5873L93.0457 92.8462L104.887 111.636L95.0943 142.639L37.1602 182.752H1042.65L1042.4 181.567L1043.84 182.752H1109.64L1110.5 181.567L1110.74 182.752H1232.43L1189.25 45.9532L1189.16 45.9123Z" fill="#1D1D1B"/>
<path d="M304.624 28.5938L299.912 50.9782V51.019L297.658 61.5577L272.789 67.9299L276.599 51.019H258.612L251.647 80.5927H273.895L254.679 104.407H245.952L238.249 136.921H257.219L261.316 118.663L284.097 125.402L281.679 136.921L276.271 162.369H202.973L217.641 104.284L209.692 92.9286L223.377 81.6955L236.815 28.5938H304.624Z" fill="white"/>
<path d="M467.242 28.5938L464.66 50.9782V51.019L463.472 61.5577L439.258 67.9299L441.429 51.019H423.443L419.305 80.5927H441.552L424.672 104.407H415.986L411.52 136.921H430.408L432.743 118.663L456.179 125.402L454.868 136.921L451.959 162.369H378.661L387.674 104.284L378.579 92.9286L391.157 81.6955L399.392 28.5938H467.242Z" fill="white"/>
<path d="M385.3 51.3867H361.741L342.238 162.369H312.861L324.088 104.284L315.361 92.9286L328.349 81.7772L328.431 81.6955L334.208 51.3867H310.649L321.957 28.5938H382.268L385.3 51.3867Z" fill="white"/>
<path d="M553.489 41.9917L539.805 28.5938H480.682L475.028 81.6955L462.982 92.9286L472.652 104.284L466.465 162.369H495.76L500.349 111.228H509.485L519.81 162.369H547.016L547.343 157.182L536.076 109.268L550.047 96.7274L553.489 41.9917ZM522.801 84.3098L519.564 87.21H502.52L505.757 51.019H522.473L525.178 53.715L522.801 84.3098Z" fill="white"/>
<path d="M708.322 162.369H679.027L678.371 104.284L667.432 92.9286L678.084 81.6955L677.429 28.5938H704.552L708.322 162.369Z" fill="white"/>
<path d="M802.147 162.369H772.852L770.148 120.827L746.425 66.2552L751.465 162.369H722.538L720.449 104.284L709.182 92.9286L719.629 81.6955L717.745 28.5938H748.76L767.648 74.9557L764.616 28.5938H791.371L802.147 162.369Z" fill="white"/>
<path d="M933.789 51.3867L951.98 162.369H922.603L914.04 104.284L901.503 92.9286L910.721 81.6955L906.256 51.3867H882.697L886.302 28.5938H946.613L957.347 51.3867H933.789Z" fill="white"/>
<path d="M1017.86 162.369H988.566L977.913 104.284L964.925 92.9286L973.775 81.7772V81.6955L963.942 28.5938H991.065L1017.86 162.369Z" fill="white"/>
<path d="M1081.29 41.9917L1063.38 28.5938H1018.8L1007.09 41.9917L1015.32 81.6955L1006.84 92.9286L1020.07 104.284L1028.97 147.011L1047.85 162.369H1096.04L1107.84 147.011L1081.29 41.9509V41.9917ZM1073.34 136.921H1058.83L1055.06 133.899L1037.04 53.7558L1039.41 51.0599H1053.18L1056.74 53.7558L1075.71 133.899L1073.34 136.921Z" fill="white"/>
<path d="M1138.44 98.6473H1137.25L1154.83 162.369H1125.99L1110.87 104.284L1097.02 92.9286L1104.93 81.6955L1091.12 28.5938H1122.13L1150.24 74.9557H1151.43L1138.07 28.5938H1176.26L1167.69 38.1521L1205.55 162.369H1176.26L1138.44 98.6473Z" fill="white"/>
<path d="M667.472 162.369H640.226L636.129 104.407H635.35L624.534 162.369H601.508L593.6 104.407H592.74L585.775 162.369H558.569L558.815 157.182L565.371 104.162L555.292 92.9286L568.116 81.6955L574.63 28.5938H608.596L614.496 79.6532H615.643L624.083 28.5938H658.008L667.431 157.182L667.472 162.369Z" fill="white"/>
<path d="M899.862 157.182L864.053 28.5527H820.459L820.541 29.0838L817.509 81.7362L804.398 92.8876L816.239 104.243L813.207 157.141L813.658 162.328H842.952L843.28 129.895H863.684L871.182 162.328H900.559L899.821 157.141L899.862 157.182ZM843.772 105.387L844.345 53.7148H845.943L857.989 105.387H843.772Z" fill="white"/>
<path d="M209.08 28.5938H149.957L133.773 81.6955L119.474 92.9286L126.849 104.284L112.509 151.3L96.7759 162.41H173.024L192.732 147.052L220.142 41.9917L209.162 28.5938H209.08ZM167.288 133.899L163.355 136.921H145.819L170.648 51.0599H187.324L189.577 53.7558L167.329 133.899H167.288Z" fill="white"/>
</svg>
